<svg width="98" height="100" viewBox="0 0 98 100" fill="none" xmlns="http://www.w3.org/2000/svg">
    <path d="M90.8429 89.7991L58.0983 42.228L54.3958 36.8486L30.9733 2.81988L29.0323 0H0.250488L7.2704 10.2009L38.4139 55.4515L42.1164 60.8252L67.14 97.183L69.081 100H97.8628L90.8429 89.7991ZM72.5012 93.4891L46.5038 55.7166L42.8012 50.34L12.6345 6.50992H25.6111L50.0075 41.9562L53.71 47.3328L85.4778 93.4891H72.5012Z" fill="#94FFDF"/>
    <path d="M42.8013 50.34L46.5038 55.7175L42.1155 60.8252L8.44125 100H0.137207L38.413 55.4505L42.8013 50.34Z" fill="#94FFDF"/>
    <path d="M94.3969 0L58.0986 42.229L53.7103 47.3338L50.0078 41.9562L54.3961 36.8486L78.9855 8.22912L86.0938 0H94.3969Z" fill="#94FFDF"/>
</svg>

