<svg width="120" height="120" viewBox="0 0 120 120" fill="none" xmlns="http://www.w3.org/2000/svg">
    <path fill-rule="evenodd" clip-rule="evenodd" d="M10.1869 56.4664C41.1944 42.9569 61.8708 34.0507 72.2164 29.7476C101.755 17.4616 107.893 15.3273 111.893 15.2569C112.773 15.2414 114.741 15.4594 116.015 16.4935C117.091 17.3666 117.387 18.5461 117.529 19.374C117.67 20.2018 117.847 22.0876 117.707 23.5612C116.106 40.3799 109.18 81.1945 105.656 100.032C104.165 108.003 101.229 110.675 98.387 110.937C92.2102 111.505 87.5199 106.855 81.5373 102.933C72.1759 96.7964 66.8872 92.9764 57.8003 86.9882C47.2988 80.0679 54.1065 76.2644 60.0913 70.0483C61.6575 68.4216 88.8726 43.6674 89.3993 41.4218C89.4652 41.141 89.5264 40.0941 88.9044 39.5413C88.2825 38.9885 87.3646 39.1776 86.7022 39.3279C85.7633 39.541 70.8082 49.4257 41.837 68.9821C37.5921 71.897 33.7471 73.3172 30.3022 73.2428C26.5044 73.1607 19.1991 71.0955 13.7683 69.3301C7.10718 67.1649 1.81308 66.0201 2.27408 62.3428C2.51419 60.4275 5.15181 58.4687 10.1869 56.4664Z" fill="#94FFDF"/>
</svg>
