<svg width="821" height="831" viewBox="0 0 821 831" fill="none" xmlns="http://www.w3.org/2000/svg">
    <g clip-path="url(#clip0_0_12)">
        <rect width="821" height="831" rx="32" fill="#131D20"/>
        <g clip-path="url(#clip1_0_12)">
            <mask id="mask0_0_12" style="mask-type:luminance" maskUnits="userSpaceOnUse" x="190" y="88" width="442"
                  height="477">
                <path d="M632 88H190V565H632V88Z" fill="white"/>
            </mask>
            <g mask="url(#mask0_0_12)">
                <path d="M413.56 497.46C513.65 497.46 594.66 416.8 594.66 317.05C594.66 217.3 513.74 136.54 413.56 136.54C313.38 136.54 232.56 217.22 232.56 316.96C232.56 416.7 313.5 497.46 413.58 497.46H413.56Z"
                      fill="#131D20" stroke="#3C4F47" stroke-width="2" stroke-linejoin="round"/>
                <path d="M612.92 523.96C650.09 485.47 623.11 420.17 568.9 420.17C544.22 420.17 523.04 434.76 513.28 455.77C504.67 456.29 496.67 459.02 479.35 470.45L476.55 408.59H455.28L453.52 447.08C446.58 441.72 439.9 442.33 435.24 442.68L436.39 442.49L434.54 404.44H399.13L396.94 449.69C390.96 445.12 389.13 447.31 387.27 447.31C383.67 447.31 380.24 448.27 377.34 449.85L375.41 408.46H354.14L352.65 441.24C342.98 435.52 331.64 432.18 319.62 432.18C305.03 432.18 291.6 437.01 280.7 445.1C233.34 422.61 181.32 466.28 195.38 516.89L229.38 538.68C228.58 539.2 227.8 539.74 227 540.26L229.38 538.68C218.39 548.96 251 519.27 259.87 523.29C260.58 524.87 261.28 526.37 262.06 527.86L260.58 523.74C261.55 524.54 262.06 525.86 262.06 527.86C262.06 527.86 262.06 527.95 262.15 527.95C253.37 528.4 245.09 530.49 237.54 534.09L265.84 528.99C290 534.17 422.51 552.36 422.77 554.66L420.84 551.06C421.64 551.15 422.51 551.25 423.38 551.32C427.69 557.65 434.01 562.57 441.4 564.94C435.42 561.86 430.41 557.29 426.81 551.67C455.89 554.47 493.77 552.54 507.65 551.06C520.4 553.34 533.74 550.45 544.64 542.54C546.92 540.87 549.11 538.94 551.14 536.82C564.58 536.73 589.28 540.61 588.93 534.63L613.19 538.94C606.34 535.79 598.95 533.67 591.05 532.96L612.93 523.9L612.91 523.94L612.92 523.96ZM542.71 539.07C542.8 538.81 542.88 538.62 543.15 538.36L542.71 539.07Z"
                      fill="#131D20"/>
                <path d="M377.33 449.89L375.4 408.59H354.13L352.64 441.27" fill="#132422"/>
                <path d="M377.33 449.89L375.4 408.59H354.13L352.64 441.27" stroke="#3C4F47" stroke-width="2"
                      stroke-linecap="round" stroke-linejoin="round"/>
                <path d="M479.45 472.03L476.55 408.59H455.28L453.52 447.18" fill="#132422"/>
                <path d="M479.45 472.03L476.55 408.59H455.28L453.52 447.18" stroke="#3C4F47" stroke-width="2"
                      stroke-linecap="round" stroke-linejoin="round"/>
                <path d="M436.39 442.41L434.46 404.45H399.14L396.95 449.09L397.04 449.79" fill="#132422"/>
                <path d="M436.39 442.41L434.46 404.45H399.14L396.95 449.09L397.04 449.79" stroke="#3C4F47"
                      stroke-width="2" stroke-linecap="round" stroke-linejoin="round"/>
                <path d="M245.18 506.91C248.26 505.85 251.51 505.15 254.94 504.79" stroke="#3C4F47" stroke-width="2"
                      stroke-linecap="round" stroke-linejoin="round"/>
                <path d="M430.76 390.92H401.77L395.79 394.97C394.56 395.84 393.86 397.16 393.86 398.66V402.61H439.55V398.82C439.55 397.24 438.75 395.83 437.44 395.03L430.76 390.89V390.91V390.92Z"
                      fill="white" stroke="#ABC5BA" stroke-width="2" stroke-linecap="round" stroke-linejoin="round"/>
                <path d="M441.49 404.45C441.49 405.41 440.69 406.21 439.73 406.21H393.33C392.37 406.21 391.57 405.41 391.57 404.45C391.57 403.49 392.37 402.69 393.33 402.69H439.73C440.69 402.69 441.49 403.49 441.49 404.45Z"
                      fill="white" stroke="#ABC5BA" stroke-width="2" stroke-linecap="round" stroke-linejoin="round"/>
                <path d="M340.53 145.82H339.82C338.67 145.82 337.8 144.95 337.8 143.8V143.09C337.8 142.22 337.1 141.51 336.22 141.51C335.34 141.51 334.64 142.22 334.64 143.09V143.8C334.64 144.95 333.77 145.82 332.62 145.82H331.91C331.04 145.82 330.33 146.53 330.33 147.4C330.33 148.27 331.04 148.98 331.91 148.98H332.62C333.77 148.98 334.64 149.85 334.64 151V151.71C334.64 152.58 335.35 153.29 336.22 153.29C337.09 153.29 337.8 152.58 337.8 151.71V151C337.8 149.85 338.67 148.98 339.82 148.98H340.53C341.4 148.98 342.11 148.27 342.11 147.4C342.11 146.6 341.41 145.82 340.53 145.82Z"
                      fill="#80968C"/>
                <path d="M295.71 117.79H295.1C294.23 117.79 293.43 117.08 293.43 116.12V115.51C293.43 114.8 292.82 114.19 292.11 114.19C291.4 114.19 290.79 114.8 290.79 115.51V116.12C290.79 116.99 290.08 117.79 289.12 117.79H288.51C287.8 117.79 287.19 118.4 287.19 119.11C287.19 119.82 287.8 120.43 288.51 120.43H289.12C289.99 120.43 290.79 121.14 290.79 122.1V122.71C290.79 123.42 291.4 124.03 292.11 124.03C292.82 124.03 293.43 123.42 293.43 122.71V122.1C293.43 121.23 294.14 120.43 295.1 120.43H295.71C296.42 120.43 297.03 119.82 297.03 119.11C297.03 118.4 296.42 117.79 295.71 117.79Z"
                      fill="#80968C"/>
                <path d="M241.15 303.65H240.54C239.67 303.65 238.87 302.95 238.87 301.98V301.37C238.87 300.66 238.26 300.05 237.55 300.05C236.84 300.05 236.23 300.66 236.23 301.37V301.98C236.23 302.85 235.52 303.65 234.56 303.65H233.95C233.24 303.65 232.63 304.26 232.63 304.97C232.63 305.68 233.24 306.29 233.95 306.29H234.56C235.43 306.29 236.23 307 236.23 307.96V308.57C236.23 309.28 236.84 309.89 237.55 309.89C238.26 309.89 238.87 309.28 238.87 308.57V307.96C238.87 307.09 239.58 306.29 240.54 306.29H241.15C241.86 306.29 242.47 305.68 242.47 304.97C242.47 304.17 241.86 303.65 241.15 303.65Z"
                      fill="#80968C"/>
                <path d="M385.78 91.51H385.17C384.3 91.51 383.5 90.8 383.5 89.84V89.32C383.5 88.61 382.89 88 382.18 88C381.47 88 380.86 88.61 380.86 89.32V89.93C380.86 90.8 380.15 91.6 379.19 91.6H378.58C377.87 91.6 377.26 92.21 377.26 92.92C377.26 93.63 377.87 94.24 378.58 94.24H379.19C380.06 94.24 380.86 94.95 380.86 95.91V96.52C380.86 97.23 381.47 97.84 382.18 97.84C382.89 97.84 383.5 97.23 383.5 96.52V95.72C383.5 94.85 384.21 94.05 385.17 94.05H385.78C386.49 94.05 387.1 93.44 387.1 92.73C387.1 92.12 386.58 91.51 385.78 91.51Z"
                      fill="#80968C"/>
                <path d="M616.61 195.74H616C615.13 195.74 614.33 195.03 614.33 194.07V193.46C614.33 192.75 613.72 192.14 613.01 192.14C612.3 192.14 611.69 192.75 611.69 193.46V194.07C611.69 194.94 610.98 195.74 610.02 195.74H609.41C608.71 195.74 608.09 196.35 608.09 197.06C608.09 197.77 608.7 198.38 609.41 198.38H610.02C610.89 198.38 611.69 199.09 611.69 200.05V200.66C611.69 201.36 612.3 201.98 613.01 201.98C613.72 201.98 614.33 201.37 614.33 200.66V200.05C614.33 199.18 615.03 198.38 616 198.38H616.61C617.32 198.38 617.93 197.77 617.93 197.06C617.93 196.35 617.32 195.74 616.61 195.74Z"
                      fill="#80968C"/>
                <path d="M567.84 386.43H567.23C566.36 386.43 565.56 385.73 565.56 384.76V384.15C565.56 383.44 564.95 382.83 564.24 382.83C563.53 382.83 562.92 383.44 562.92 384.15V384.76C562.92 385.63 562.21 386.43 561.25 386.43H560.81C560.1 386.43 559.49 387.04 559.49 387.75C559.49 388.46 560.1 389.07 560.81 389.07H561.42C562.29 389.07 563.09 389.78 563.09 390.74V391.35C563.09 392.05 563.7 392.67 564.41 392.67C565.12 392.67 565.73 392.06 565.73 391.35V390.74C565.73 389.87 566.43 389.07 567.4 389.07H568.01C568.71 389.07 569.33 388.46 569.33 387.75C569.16 387.05 568.53 386.43 567.85 386.43H567.84Z"
                      fill="#80968C"/>
                <path d="M235.34 399.8H234.82C233.95 399.8 233.15 399.09 233.15 398.13V397.52C233.15 396.81 232.54 396.2 231.83 396.2C231.12 396.2 230.51 396.81 230.51 397.52V398.13C230.51 399 229.8 399.8 228.84 399.8H228.23C227.52 399.8 226.91 400.41 226.91 401.12C226.91 401.83 227.52 402.44 228.23 402.44H228.84C229.71 402.44 230.51 403.15 230.51 404.11V404.72C230.51 405.42 231.12 406.04 231.83 406.04C232.54 406.04 233.15 405.43 233.15 404.72V404.11C233.15 403.24 233.86 402.44 234.82 402.44H235.43C236.14 402.44 236.75 401.83 236.75 401.12C236.66 400.42 236.04 399.8 235.34 399.8Z"
                      fill="#80968C"/>
                <path d="M511.77 243.27H511.07C509.94 243.27 509.05 242.4 509.05 241.25V240.54C509.05 239.67 508.35 238.96 507.47 238.96C506.59 238.96 505.89 239.67 505.89 240.54V241.25C505.89 242.4 505.02 243.27 503.87 243.27H503.17C502.3 243.27 501.59 243.98 501.59 244.85C501.59 245.72 502.3 246.43 503.17 246.43H503.87C505.02 246.43 505.89 247.3 505.89 248.45V249.16C505.89 250.03 506.59 250.74 507.47 250.74C508.35 250.74 509.05 250.03 509.05 249.16V248.45C509.05 247.3 509.92 246.43 511.07 246.43H511.77C512.64 246.43 513.35 245.72 513.35 244.85C513.35 243.98 512.65 243.27 511.77 243.27Z"
                      fill="#80968C"/>
                <path d="M531.73 364.29H531.02C529.87 364.29 529 363.42 529 362.27V361.57C529 360.7 528.3 359.99 527.42 359.99C526.54 359.99 525.84 360.69 525.84 361.57V362.27C525.84 363.42 524.97 364.29 523.82 364.29H523.02C522.15 364.29 521.44 364.99 521.44 365.87C521.44 366.75 522.15 367.45 523.02 367.45H523.72C524.87 367.45 525.74 368.32 525.74 369.47V370.18C525.74 371.05 526.44 371.76 527.32 371.76C528.2 371.76 528.9 371.06 528.9 370.18V369.47C528.9 368.32 529.77 367.45 530.92 367.45H531.62C532.49 367.45 533.2 366.75 533.2 365.87C533.29 365 532.59 364.29 531.7 364.29H531.72H531.73Z"
                      fill="#80968C"/>
                <path d="M608.71 240.73H608.26C607.56 240.73 607.03 240.21 607.03 239.5V239.15C607.03 238.63 606.58 238.19 606.07 238.19C605.56 238.19 605.11 238.63 605.11 239.15V239.6C605.11 240.31 604.59 240.83 603.88 240.83H603.43C602.91 240.83 602.47 241.27 602.47 241.79C602.47 242.31 602.92 242.75 603.43 242.75H603.88C604.59 242.75 605.11 243.27 605.11 243.98V244.42C605.11 244.94 605.56 245.39 606.07 245.39C606.58 245.39 607.03 244.94 607.03 244.42V243.98C607.03 243.27 607.55 242.75 608.26 242.75H608.71C609.23 242.75 609.68 242.3 609.68 241.79C609.68 241.18 609.23 240.73 608.71 240.73Z"
                      fill="#80968C"/>
                <path d="M567.58 262.52H567.23C566.71 262.52 566.27 262.07 566.27 261.55V261.2C566.27 260.75 565.92 260.4 565.47 260.4C565.02 260.4 564.67 260.75 564.67 261.2V261.55C564.67 262.07 564.22 262.52 563.71 262.52H563.36C562.91 262.52 562.56 262.87 562.56 263.32C562.56 263.77 562.91 264.12 563.36 264.12H563.71C564.23 264.12 564.67 264.56 564.67 265.08V265.43C564.67 265.88 565.02 266.23 565.47 266.23C565.92 266.23 566.27 265.88 566.27 265.43V265.08C566.27 264.56 566.72 264.12 567.23 264.12H567.58C568.03 264.12 568.38 263.77 568.38 263.32C568.38 262.87 568.03 262.52 567.58 262.52Z"
                      fill="#80968C"/>
                <path d="M483.4 149.6H483.05C482.53 149.6 482.09 149.15 482.09 148.63V148.28C482.09 147.83 481.74 147.48 481.29 147.48C480.84 147.48 480.49 147.83 480.49 148.28V148.63C480.49 149.15 480.04 149.6 479.53 149.6H479.18C478.73 149.6 478.38 149.95 478.38 150.4C478.38 150.85 478.73 151.2 479.18 151.2H479.53C480.05 151.2 480.49 151.65 480.49 152.17V152.52C480.49 152.97 480.84 153.32 481.29 153.32C481.74 153.32 482.09 152.97 482.09 152.52V152.17C482.09 151.65 482.54 151.2 483.05 151.2H483.4C483.85 151.2 484.2 150.85 484.2 150.4C484.11 149.95 483.85 149.6 483.4 149.6Z"
                      fill="#80968C"/>
                <path d="M570.48 146.71H570.13C569.61 146.71 569.17 146.26 569.17 145.74V145.39C569.17 144.94 568.82 144.59 568.37 144.59C567.92 144.59 567.57 144.94 567.57 145.39V145.74C567.57 146.26 567.13 146.71 566.61 146.71H566.26C565.81 146.71 565.46 147.06 565.46 147.51C565.46 147.96 565.81 148.31 566.26 148.31H566.61C567.13 148.31 567.57 148.76 567.57 149.28V149.63C567.57 150.08 567.92 150.43 568.37 150.43C568.82 150.43 569.17 150.08 569.17 149.63V149.28C569.17 148.76 569.62 148.31 570.13 148.31H570.48C570.93 148.31 571.28 147.96 571.28 147.51C571.28 147.06 570.93 146.71 570.48 146.71Z"
                      fill="#80968C"/>
                <path d="M217.76 219.82H217.31C216.6 219.82 215.99 219.21 215.99 218.5V218.05C215.99 217.44 215.54 216.99 214.93 216.99C214.32 216.99 213.87 217.44 213.87 218.05V218.5C213.87 219.21 213.26 219.82 212.55 219.82H212.1C211.49 219.82 211.04 220.27 211.04 220.88C211.04 221.49 211.49 221.94 212.1 221.94H212.55C213.26 221.94 213.87 222.55 213.87 223.26V223.71C213.87 224.32 214.32 224.77 214.93 224.77C215.54 224.77 215.99 224.33 215.99 223.71V223.26C215.99 222.56 216.6 221.94 217.31 221.94H217.76C218.37 221.94 218.82 221.49 218.82 220.88C218.82 220.36 218.3 219.82 217.76 219.82Z"
                      fill="#80968C"/>
                <path d="M303.26 346.27H302.82C302.11 346.27 301.5 345.66 301.5 344.95V344.5C301.5 343.89 301.06 343.44 300.44 343.44C299.82 343.44 299.38 343.89 299.38 344.5V344.95C299.38 345.65 298.77 346.27 298.06 346.27H297.61C297 346.27 296.55 346.72 296.55 347.33C296.55 347.94 297 348.39 297.61 348.39H298.06C298.77 348.39 299.38 349 299.38 349.71V350.16C299.38 350.77 299.83 351.22 300.44 351.22C301.05 351.22 301.5 350.77 301.5 350.16V349.71C301.5 349 302.11 348.39 302.82 348.39H303.26C303.87 348.39 304.32 347.94 304.32 347.33C304.32 346.72 303.8 346.27 303.26 346.27Z"
                      fill="#80968C"/>
                <path d="M625.75 390.03H625.3C624.6 390.03 623.98 389.42 623.98 388.71V388.27C623.98 387.66 623.53 387.21 622.92 387.21C622.31 387.21 621.86 387.66 621.86 388.27V388.71C621.86 389.42 621.25 390.03 620.54 390.03H620.09C619.48 390.03 619.03 390.47 619.03 391.09C619.03 391.71 619.48 392.15 620.09 392.15H620.54C621.24 392.15 621.86 392.76 621.86 393.47V393.92C621.86 394.53 622.31 394.98 622.92 394.98C623.53 394.98 623.98 394.53 623.98 393.92V393.47C623.98 392.76 624.59 392.15 625.3 392.15H625.75C626.36 392.15 626.81 391.7 626.81 391.09C626.81 390.57 626.29 390.03 625.75 390.03Z"
                      fill="#80968C"/>
                <path d="M209.06 163.84H208.71C208.1 163.84 207.65 163.39 207.65 162.78V162.43C207.65 161.98 207.3 161.56 206.78 161.56C206.33 161.56 205.91 161.91 205.91 162.43V162.78C205.91 163.39 205.46 163.84 204.85 163.84H204.5C204.05 163.84 203.63 164.19 203.63 164.71C203.63 165.16 203.98 165.58 204.5 165.58H204.95C205.56 165.58 206.01 166.03 206.01 166.64V166.99C206.01 167.44 206.36 167.86 206.88 167.86C207.33 167.86 207.75 167.51 207.75 166.99V166.64C207.75 166.03 208.2 165.58 208.81 165.58H209.16C209.61 165.58 210.03 165.23 210.03 164.71C209.94 164.19 209.51 163.84 209.06 163.84Z"
                      fill="#80968C"/>
                <path d="M242.19 124.21H241.84C241.23 124.21 240.78 123.76 240.78 123.15V122.8C240.78 122.35 240.43 121.93 239.91 121.93C239.46 121.93 239.04 122.28 239.04 122.8V123.15C239.04 123.76 238.59 124.21 237.98 124.21H237.63C237.18 124.21 236.76 124.56 236.76 125.08C236.76 125.53 237.11 125.95 237.63 125.95H237.98C238.59 125.95 239.04 126.4 239.04 127.01V127.36C239.04 127.81 239.39 128.23 239.91 128.23C240.36 128.23 240.78 127.88 240.78 127.36V127.01C240.78 126.4 241.23 125.95 241.84 125.95H242.19C242.64 125.95 243.06 125.6 243.06 125.08C243.06 124.56 242.71 124.21 242.19 124.21Z"
                      fill="#80968C"/>
                <path d="M195.36 296.54H195.01C194.4 296.54 193.95 296.09 193.95 295.48V295.13C193.95 294.69 193.6 294.26 193.08 294.26C192.63 294.26 192.21 294.61 192.21 295.13V295.48C192.21 296.09 191.76 296.54 191.15 296.54H190.89C190.44 296.54 190.02 296.89 190.02 297.41C190.02 297.85 190.37 298.28 190.89 298.28H191.24C191.85 298.28 192.3 298.73 192.3 299.34V299.69C192.3 300.13 192.65 300.56 193.17 300.56C193.62 300.56 194.04 300.21 194.04 299.69V299.34C194.04 298.73 194.49 298.28 195.1 298.28H195.45C195.9 298.28 196.32 297.93 196.32 297.41C196.23 296.89 195.87 296.54 195.35 296.54H195.36Z"
                      fill="#80968C"/>
                <path d="M324.35 190.9H324C323.39 190.9 322.94 190.46 322.94 189.84V189.49C322.94 189.04 322.59 188.62 322.07 188.62C321.62 188.62 321.2 188.97 321.2 189.49V189.84C321.2 190.45 320.76 190.9 320.14 190.9H319.79C319.34 190.9 318.92 191.25 318.92 191.77C318.92 192.21 319.27 192.64 319.79 192.64H320.14C320.75 192.64 321.2 193.09 321.2 193.7V194.05C321.2 194.49 321.55 194.92 322.07 194.92C322.52 194.92 322.94 194.57 322.94 194.05V193.7C322.94 193.09 323.38 192.64 324 192.64H324.35C324.8 192.64 325.22 192.29 325.22 191.77C325.22 191.25 324.77 190.9 324.35 190.9Z"
                      fill="#80968C"/>
                <path d="M300.72 293.37H300.37C299.76 293.37 299.31 292.92 299.31 292.31V291.96C299.31 291.52 298.96 291.09 298.44 291.09C298 291.09 297.57 291.44 297.57 291.96V292.31C297.57 292.92 297.12 293.37 296.51 293.37H296.16C295.72 293.37 295.29 293.72 295.29 294.24C295.29 294.69 295.64 295.11 296.16 295.11H296.51C297.12 295.11 297.57 295.56 297.57 296.17V296.52C297.57 296.97 297.92 297.39 298.44 297.39C298.89 297.39 299.31 297.04 299.31 296.52V296.17C299.31 295.56 299.76 295.11 300.37 295.11H300.72C301.16 295.11 301.59 294.76 301.59 294.24C301.5 293.7 301.15 293.37 300.72 293.37Z"
                      fill="#80968C"/>
                <path d="M452.39 112.26C449.66 112.26 447.47 110.07 447.47 107.34C447.47 104.61 449.66 102.42 452.39 102.42C455.12 102.42 457.31 104.61 457.31 107.34C457.31 110.07 455.03 112.26 452.39 112.26ZM452.39 105.13C451.17 105.13 450.11 106.1 450.11 107.41C450.11 108.72 451.07 109.69 452.39 109.69C453.62 109.69 454.67 108.72 454.67 107.41C454.67 106.1 453.61 105.13 452.39 105.13Z"
                      fill="#80968C"/>
                <path d="M280.68 166.38C277.95 166.38 275.76 164.19 275.76 161.46C275.76 158.73 277.95 156.54 280.68 156.54C283.41 156.54 285.6 158.73 285.6 161.46C285.6 164.19 283.32 166.38 280.68 166.38ZM280.68 159.25C279.46 159.25 278.4 160.22 278.4 161.53C278.4 162.84 279.37 163.81 280.68 163.81C281.99 163.81 282.96 162.84 282.96 161.53C282.96 160.22 281.9 159.25 280.68 159.25Z"
                      fill="#80968C"/>
                <path d="M492.55 127.55C490.62 127.55 488.95 125.97 488.95 123.95C488.95 121.93 490.53 120.35 492.55 120.35C494.57 120.35 496.15 121.93 496.15 123.95C496.15 125.97 494.48 127.55 492.55 127.55ZM492.55 122.28C491.68 122.28 490.88 122.99 490.88 123.95C490.88 124.91 491.59 125.62 492.55 125.62C493.42 125.62 494.22 124.91 494.22 123.95C494.22 122.99 493.42 122.28 492.55 122.28Z"
                      fill="#80968C"/>
                <path d="M518.9 413.23C516.97 413.23 515.3 411.65 515.3 409.63C515.3 407.61 516.88 406.03 518.9 406.03C520.92 406.03 522.5 407.61 522.5 409.63C522.41 411.65 520.83 413.23 518.9 413.23ZM518.9 408.05C518.03 408.05 517.23 408.76 517.23 409.72C517.23 410.59 517.94 411.39 518.9 411.39C519.77 411.39 520.57 410.69 520.57 409.72C520.57 408.75 519.77 408.05 518.9 408.05Z"
                      fill="#80968C"/>
                <path d="M378.58 408.67H350.37C349.76 408.67 349.31 408.22 349.31 407.61C349.31 407 349.76 406.55 350.37 406.55H378.58C379.19 406.55 379.64 407 379.64 407.61C379.64 408.22 379.12 408.67 378.58 408.67Z"
                      fill="#2E3D36" stroke="#4B5B54" stroke-width="2" stroke-linecap="round" stroke-linejoin="round"/>
                <path d="M377.17 401.89C377.97 402.41 378.49 403.3 378.49 404.17V406.45H350.73V404.07C350.73 403.2 351.18 402.31 351.88 401.79L355.48 399.34H355.57V389.41H373.24V399.51L377.19 401.89H377.17Z"
                      fill="#2E3D36" stroke="#4B5B54" stroke-width="2" stroke-linecap="round" stroke-linejoin="round"/>
                <path opacity="0.3"
                      d="M378.39 404.27V406.55H370.22V404.27C370.22 403.31 370.05 402.43 369.7 401.99L368.12 399.52V389.42H373.22V399.52L377.17 401.99C377.97 402.44 378.39 403.31 378.39 404.27Z"
                      fill="#132422"/>
                <path d="M366.27 165.6C365.21 164.63 363.54 164.63 362.48 165.6C357.3 170 349.21 185.55 349.21 202.07V396.19C349.21 398.03 350.7 399.44 352.46 399.44H376.27C378.13 399.44 379.52 397.94 379.52 396.19V202.07C379.61 185.55 371.43 170.09 366.25 165.6H366.27Z"
                      fill="#2E3D36" stroke="#4B5B54" stroke-width="2" stroke-linecap="round" stroke-linejoin="round"/>
                <path opacity="0.3"
                      d="M379.62 202.07V396.19C379.62 398.03 378.12 399.53 376.28 399.53H367.84C368.36 399.53 368.8 398.04 368.8 396.19V202.07C368.8 185.55 366.42 170.09 364.94 165.6C364.77 165.15 364.59 164.89 364.42 164.89C365.12 164.89 365.74 165.15 366.26 165.6C371.44 170.07 379.62 185.55 379.62 202.07Z"
                      fill="#132422"/>
                <path opacity="0.05"
                      d="M364.42 164.9C364.25 164.9 364.16 165.16 364.07 165.61C363.01 170.08 361.34 185.56 361.34 202.08V396.2C361.34 398.04 361.6 399.54 362.05 399.54H356.33C355.11 399.54 354.14 398.05 354.14 396.2V202.07C354.14 185.55 359.67 170.09 363.2 165.6C363.46 165.15 364 164.89 364.43 164.89L364.42 164.9Z"
                      fill="white"/>
                <path d="M419.68 115.51C417.14 114.29 413.35 114.29 410.81 115.51C398.77 121.58 379.52 149.96 379.52 172.55V387.68H450.88V172.54C450.88 150.04 431.73 121.67 419.68 115.5V115.51Z"
                      fill="#132422" stroke="#3C4E43" stroke-width="2" stroke-linejoin="round"/>
                <path opacity="0.05"
                      d="M415.21 114.63C414.69 114.63 414.15 114.98 413.8 115.6C409.85 121.67 403.7 150.05 403.7 172.64V387.77H388.93V172.64C388.93 150.05 403.07 121.67 412.03 115.6C412.9 114.89 414.05 114.63 415.18 114.63H415.2H415.21Z"
                      fill="white"/>
                <path d="M419.68 115.51C417.14 114.29 413.35 114.29 410.81 115.51C398.77 121.58 379.52 149.96 379.52 172.55V387.68H450.88V172.54C450.88 150.04 431.73 121.67 419.68 115.5V115.51Z"
                      stroke="#4B5B54" stroke-width="2" stroke-linecap="round" stroke-linejoin="round"/>
                <path d="M399.05 188.97H450.9" stroke="#4B5B54" stroke-width="2" stroke-linecap="round"
                      stroke-linejoin="round"/>
                <path d="M393.68 188.97H393.94" stroke="#4B5B54" stroke-width="2" stroke-linecap="round"
                      stroke-linejoin="round"/>
                <path d="M379.54 188.97H388.5" stroke="#4B5B54" stroke-width="2" stroke-linecap="round"
                      stroke-linejoin="round"/>
                <path d="M396.51 227.11H450.91" stroke="#4B5B54" stroke-width="2" stroke-linecap="round"
                      stroke-linejoin="round"/>
                <path d="M379.54 227.11H388.86" stroke="#4B5B54" stroke-width="2" stroke-linecap="round"
                      stroke-linejoin="round"/>
                <path d="M365.21 204.71H379.61" stroke="#4B5B54" stroke-width="2" stroke-linecap="round"
                      stroke-linejoin="round"/>
                <path d="M359.24 204.71H360.2" stroke="#4B5B54" stroke-width="2" stroke-linecap="round"
                      stroke-linejoin="round"/>
                <path d="M349.22 204.71H355.46" stroke="#4B5B54" stroke-width="2" stroke-linecap="round"
                      stroke-linejoin="round"/>
                <path d="M360.74 244.85H379.63" stroke="#4B5B54" stroke-width="2" stroke-linecap="round"
                      stroke-linejoin="round"/>
                <path d="M354.93 244.85H355.73" stroke="#4B5B54" stroke-width="2" stroke-linecap="round"
                      stroke-linejoin="round"/>
                <path d="M349.22 275.27H379.62" stroke="#4B5B54" stroke-width="2" stroke-linecap="round"
                      stroke-linejoin="round"/>
                <path d="M366.27 165.6C365.21 164.63 363.54 164.63 362.48 165.6C357.3 170 349.21 185.55 349.21 202.07V396.19C349.21 398.03 350.7 399.44 352.46 399.44H376.27C378.13 399.44 379.52 397.94 379.52 396.19V202.07C379.61 185.55 371.43 170.09 366.25 165.6H366.27Z"
                      stroke="#4B5B54" stroke-width="2" stroke-miterlimit="10"/>
                <path d="M480.24 408.67H452.03C451.42 408.67 450.97 408.22 450.97 407.61C450.97 407 451.42 406.55 452.03 406.55H480.24C480.85 406.55 481.3 407 481.3 407.61C481.3 408.22 480.78 408.67 480.24 408.67Z"
                      fill="#2E3D36" stroke="#4B5B54" stroke-width="2" stroke-linecap="round" stroke-linejoin="round"/>
                <path d="M478.83 401.89C479.63 402.41 480.15 403.3 480.15 404.17V406.45H452.39V404.07C452.39 403.2 452.84 402.31 453.54 401.79L457.14 399.34H457.23V389.41H474.9V399.51L478.85 401.89H478.83Z"
                      fill="#2E3D36" stroke="#4B5B54" stroke-width="2" stroke-linecap="round" stroke-linejoin="round"/>
                <path opacity="0.3"
                      d="M480.06 404.27V406.55H472.77V404.27C472.77 403.31 472.51 402.43 472.16 401.99L470.32 399.52V389.42H474.89V399.52L478.84 401.99C479.64 402.44 480.07 403.31 480.07 404.27H480.06Z"
                      fill="#132422"/>
                <path d="M467.94 165.6C466.88 164.63 465.21 164.63 464.15 165.6C458.97 170 450.88 185.55 450.88 202.07V396.19C450.88 398.03 452.37 399.44 454.13 399.44H477.85C479.69 399.44 481.1 397.94 481.1 396.19V202.07C481.27 185.55 473.1 170.09 467.92 165.6H467.94Z"
                      fill="#2E3D36" stroke="#4B5B54" stroke-width="2" stroke-linecap="round" stroke-linejoin="round"/>
                <path opacity="0.3"
                      d="M481.3 202.07V396.19C481.3 398.03 479.8 399.53 477.96 399.53H469.53C470.05 399.53 470.49 398.04 470.49 396.19V202.07C470.49 185.55 468.11 170.09 466.63 165.6C466.44 165.15 466.28 164.89 466.11 164.89C466.82 164.89 467.43 165.15 467.95 165.6C473.13 170.07 481.31 185.55 481.31 202.07H481.29H481.3Z"
                      fill="#132422"/>
                <path opacity="0.05"
                      d="M466.08 164.9C465.89 164.9 465.82 165.16 465.73 165.61C464.67 170.08 463 185.56 463 202.08V396.2C463 398.04 463.26 399.54 463.7 399.54H457.98C456.75 399.54 455.79 398.05 455.79 396.2V202.07C455.79 185.55 461.32 170.09 464.85 165.6C465.2 165.15 465.65 164.89 466.08 164.89V164.9Z"
                      fill="white"/>
                <path d="M463.02 204.71H480.2" stroke="#4B5B54" stroke-width="2" stroke-linecap="round"
                      stroke-linejoin="round"/>
                <path d="M450.88 204.71H457.12" stroke="#4B5B54" stroke-width="2" stroke-linecap="round"
                      stroke-linejoin="round"/>
                <path d="M464.6 244.85H481.3" stroke="#4B5B54" stroke-width="2" stroke-linecap="round"
                      stroke-linejoin="round"/>
                <path d="M450.88 244.85H457.38" stroke="#4B5B54" stroke-width="2" stroke-linecap="round"
                      stroke-linejoin="round"/>
                <path d="M450.88 275.27H481.28" stroke="#4B5B54" stroke-width="2" stroke-linecap="round"
                      stroke-linejoin="round"/>
                <path d="M467.94 165.6C466.88 164.63 465.21 164.63 464.15 165.6C458.97 170 450.88 185.55 450.88 202.07V396.19C450.88 398.03 452.37 399.44 454.13 399.44H477.85C479.69 399.44 481.1 397.94 481.1 396.19V202.07C481.27 185.55 473.1 170.09 467.92 165.6H467.94Z"
                      stroke="#4B5B54" stroke-width="2" stroke-miterlimit="10"/>
                <path d="M394.74 230.62L396.24 225L399.93 224.13L406.09 222.72L406.8 222.55L407.34 230.64L416.47 364.03L396.71 391.02L388.97 389.7L335.19 380.47C331.85 379.95 329.47 377.04 329.47 373.7V348.31C329.47 345.32 330.7 342.33 332.81 340.22L369.02 303.49C374.9 297.51 379.12 290.13 381.23 282.05L388.97 252.87L394.76 230.63L394.74 230.61V230.62Z"
                      fill="#2E3D36" stroke="#4B5B54" stroke-width="2" stroke-linecap="round" stroke-linejoin="round"/>
                <path d="M399.83 224.12V260.94L395.88 265.34L395.53 262.96C395.34 261.81 394.4 260.94 393.25 260.94C392.19 260.94 391.32 261.64 390.97 262.61L380.43 301.53C379.73 304.17 378.31 306.54 376.48 308.47L336.93 348.1C336.13 348.9 335.71 349.94 335.71 351V359.61C335.71 361.89 337.55 363.73 339.85 363.73H390.37L391.5 371.9C391.5 372.42 340.35 371.99 329.38 371.9V348.09C329.38 345.1 330.53 342.11 332.72 340.02L368.93 303.29C374.81 297.31 379.04 289.93 381.14 281.85L396.17 224.91L399.86 224.11L399.84 224.13L399.83 224.12Z"
                      fill="#132422"/>
                <path d="M394.74 230.62L396.24 225L399.93 224.13L406.09 222.72L406.8 222.55L407.34 230.64L416.47 364.03L396.71 391.02L388.97 389.7L335.19 380.47C331.85 379.95 329.47 377.04 329.47 373.7V348.31C329.47 345.32 330.7 342.33 332.81 340.22L369.02 303.49C374.9 297.51 379.12 290.13 381.23 282.05L388.97 252.87L394.76 230.63L394.74 230.61V230.62Z"
                      stroke="#4B5B54" stroke-width="2" stroke-linecap="round" stroke-linejoin="round"/>
                <path d="M364.86 341.29C364.86 341.29 364.95 341.12 365.03 341.03L364.86 341.29Z" fill="white"/>
                <path d="M364.86 341.29C364.86 341.29 364.95 341.12 365.03 341.03" stroke="#4B5B54" stroke-width="2"
                      stroke-linecap="round" stroke-linejoin="round"/>
                <path d="M376.98 352.54C375.57 353.77 373.73 354.47 371.71 354.47C367.14 354.47 363.36 350.78 363.36 346.12V345.67"
                      stroke="#4B5B54" stroke-width="2" stroke-linecap="round" stroke-linejoin="round"/>
                <path d="M370.49 337.86C370.84 337.77 371.29 337.77 371.64 337.77C376.21 337.77 379.99 341.46 379.99 346.12C379.99 346.99 379.9 347.79 379.64 348.57"
                      stroke="#4B5B54" stroke-width="2" stroke-linecap="round" stroke-linejoin="round"/>
                <path d="M503.7 348.22V373.61C503.7 376.95 501.32 379.85 497.98 380.39L457.65 387.33L436.47 390.93L416.7 364.04L426.37 222.56L427.08 222.73L433.22 224.22L436.91 225.09L450.35 275.8L452.02 282.04C454.14 290.13 458.35 297.5 464.23 303.48L500.44 340.21C502.56 342.33 503.69 345.22 503.69 348.21V348.25L503.7 348.22Z"
                      fill="#2E3D36" stroke="#4B5B54" stroke-width="2" stroke-linecap="round" stroke-linejoin="round"/>
                <path d="M470.22 336.52H453.52V348.38H470.22V336.52Z" stroke="#4B5B54" stroke-width="2"
                      stroke-linecap="round" stroke-linejoin="round"/>
                <path d="M462.22 336.52H453.52V343.02H462.22V336.52Z" fill="#4B5B54"/>
                <path d="M433.23 224.12V260.94L437.18 265.34L437.53 262.96C437.7 261.81 438.66 260.94 439.81 260.94C440.87 260.94 441.74 261.64 442.09 262.61L452.72 301.53C453.42 304.17 454.84 306.54 456.67 308.47L496.22 348.1C497.02 348.9 497.45 349.94 497.45 351V359.61C497.45 361.89 495.61 363.73 493.33 363.73H442.89L441.74 371.9C441.74 372.44 492.89 371.99 503.86 371.9V348.09C503.86 345.1 502.71 342.11 500.52 340L464.14 303.36C458.26 297.38 454.04 290 451.93 281.92L436.9 224.98L433.21 224.11L433.23 224.13V224.12Z"
                      fill="#132422"/>
                <path d="M503.7 348.22V373.61C503.7 376.95 501.32 379.85 497.98 380.39L457.65 387.33L436.47 390.93L416.7 364.04L426.37 222.56L427.08 222.73L433.22 224.22L436.91 225.09L450.35 275.8L452.02 282.04C454.14 290.13 458.35 297.5 464.23 303.48L500.44 340.21C502.56 342.33 503.69 345.22 503.69 348.21V348.25L503.7 348.22Z"
                      stroke="#4B5B54" stroke-width="2" stroke-linecap="round" stroke-linejoin="round"/>
                <path d="M437.19 217.79V387.75H395.28V217.79C395.28 210.4 396.86 203.11 400.03 196.43C400.64 195.21 401.26 193.89 401.96 192.64V192.55L410.76 177.96C413.23 173.82 419.19 173.82 421.75 177.96L430.55 192.55V192.64C431.26 193.86 431.87 195.11 432.48 196.33C435.63 203.1 437.23 210.4 437.23 217.77L437.19 217.79Z"
                      fill="#2E3D36" stroke="#4B5B54" stroke-width="2" stroke-linecap="round" stroke-linejoin="round"/>
                <path d="M432.44 196.45C430.95 194.17 428.39 192.66 425.59 192.66H407.05C404.25 192.66 401.61 194.14 400.11 196.45C400.72 195.23 401.33 193.91 402.04 192.66V192.57L410.82 177.98C413.29 173.84 419.27 173.84 421.81 177.98L430.59 192.57V192.66C431.2 193.88 431.91 195.13 432.43 196.45H432.45H432.44Z"
                      fill="#132422"/>
                <path d="M425.66 215.06C425.66 215.76 424.86 216.03 424.43 215.5C423.47 214.27 421.98 213.57 420.22 213.57H412.13C410.55 213.57 409.05 214.27 408.08 215.41C408.08 215.41 408.03 215.47 407.91 215.58C407.46 216.1 406.68 215.75 406.68 215.13V213.01C406.68 210.02 409.15 207.65 412.14 207.65H420.75C421.55 207.74 422.25 208 422.94 208.36C424.52 209.33 425.67 211.09 425.67 213.02V215.04L425.65 215.06H425.66Z"
                      fill="#132422"/>
                <path d="M416.27 265.7H437.19" stroke="#4B5B54" stroke-width="2" stroke-linecap="round"
                      stroke-linejoin="round"/>
                <path d="M411.87 265.2H412.74" stroke="#4B5B54" stroke-width="2" stroke-linecap="round"
                      stroke-linejoin="round"/>
                <path d="M395.35 265.7H405.11" stroke="#4B5B54" stroke-width="2" stroke-linecap="round"
                      stroke-linejoin="round"/>
                <path d="M409.85 312.43H437.17" stroke="#4B5B54" stroke-width="2" stroke-linecap="round"
                      stroke-linejoin="round"/>
                <path d="M402.82 311.93H405.27" stroke="#4B5B54" stroke-width="2" stroke-linecap="round"
                      stroke-linejoin="round"/>
                <path d="M437.19 217.79V387.75H395.28V217.79C395.28 210.4 396.86 203.11 400.03 196.43C400.64 195.21 401.26 193.89 401.96 192.64V192.55L410.76 177.96C413.23 173.82 419.19 173.82 421.75 177.96L430.55 192.55V192.64C431.26 193.86 431.87 195.11 432.48 196.33C435.63 203.1 437.23 210.4 437.23 217.77L437.19 217.79Z"
                      stroke="#4B5B54" stroke-width="2" stroke-linecap="round" stroke-linejoin="round"/>
                <path d="M405.28 351.54H400.18C393.95 351.54 388.93 356.55 388.93 362.79V391.09H416.53V362.79C416.44 356.55 411.43 351.54 405.28 351.54Z"
                      fill="#2E3D36" stroke="#4B5B54" stroke-width="2" stroke-linecap="round" stroke-linejoin="round"/>
                <path opacity="0.3"
                      d="M416.44 362.79V391.09H405.45V354.36C405.45 352.78 404.22 351.56 402.63 351.56H405.17C411.41 351.56 416.42 356.57 416.42 362.81L416.44 362.79Z"
                      fill="#132422"/>
                <path d="M405.28 351.54H400.18C393.95 351.54 388.93 356.55 388.93 362.79V391.09H416.53V362.79C416.44 356.55 411.43 351.54 405.28 351.54Z"
                      stroke="#4B5B54" stroke-width="2" stroke-linecap="round" stroke-linejoin="round"/>
                <path d="M432.62 351.54H427.52C421.28 351.54 416.27 356.55 416.27 362.79V391.09H443.87V362.79C443.87 356.55 438.86 351.54 432.62 351.54Z"
                      fill="#2E3D36" stroke="#4B5B54" stroke-width="2" stroke-linecap="round" stroke-linejoin="round"/>
                <path opacity="0.3"
                      d="M443.87 362.79V391.09H434.29V355.23C434.29 353.21 432.62 351.54 430.6 351.54H432.62C438.86 351.54 443.87 356.55 443.87 362.79Z"
                      fill="#132422"/>
                <path opacity="0.1"
                      d="M416.18 362.79V391.09H425.76V355.23C425.76 353.21 427.43 351.54 429.45 351.54H427.43C421.29 351.54 416.18 356.55 416.18 362.79Z"
                      fill="#293731"/>
                <path d="M432.62 351.54H427.52C421.28 351.54 416.27 356.55 416.27 362.79V391.09H443.87V362.79C443.87 356.55 438.86 351.54 432.62 351.54Z"
                      stroke="#4B5B54" stroke-width="2" stroke-miterlimit="10"/>
                <path d="M430.76 390.92H401.77L395.79 394.97C394.56 395.84 393.86 397.16 393.86 398.66V402.61H439.55V398.82C439.55 397.24 438.75 395.83 437.44 395.03L430.76 390.89V390.91V390.92Z"
                      fill="#2E3D36" stroke="#4B5B54" stroke-width="2" stroke-linecap="round" stroke-linejoin="round"/>
                <path opacity="0.3"
                      d="M439.56 398.9V402.69H425.85V398.9C425.85 397.32 425.5 395.91 424.98 395.04L422.34 390.9H430.78L437.46 395.04C438.78 395.84 439.58 397.32 439.58 398.9H439.56Z"
                      fill="#132422"/>
                <path d="M441.49 404.45C441.49 405.41 440.69 406.21 439.73 406.21H393.33C392.37 406.21 391.57 405.41 391.57 404.45C391.57 403.49 392.37 402.69 393.33 402.69H439.73C440.69 402.69 441.49 403.49 441.49 404.45Z"
                      fill="#2E3D36" stroke="#4B5B54" stroke-width="2" stroke-linecap="round" stroke-linejoin="round"/>
                <path d="M413.45 238.88H411.52C410.56 238.88 409.76 238.08 409.76 237.12V235.19C409.76 234.23 410.56 233.43 411.52 233.43H413.45C414.41 233.43 415.21 234.23 415.21 235.19V237.12C415.21 238.09 414.41 238.88 413.45 238.88Z"
                      fill="#132422"/>
                <path d="M421.63 238.88H419.7C418.74 238.88 417.94 238.08 417.94 237.12V235.19C417.94 234.23 418.74 233.43 419.7 233.43H421.63C422.59 233.43 423.39 234.23 423.39 235.19V237.12C423.39 238.09 422.59 238.88 421.63 238.88Z"
                      fill="#132422"/>
                <path d="M419.07 409.72H413.35V344.68C413.35 343.1 414.67 341.88 416.15 341.88C417.73 341.88 418.97 343.2 418.97 344.68V409.72H419.06H419.07Z"
                      fill="#2E3D36" stroke="#4B5B54" stroke-width="2" stroke-linecap="round" stroke-linejoin="round"/>
                <path d="M374.18 451.99C377.69 449.1 382.27 447.33 387.26 447.33C395.35 447.33 402.29 451.99 405.63 458.74"
                      stroke="#3C4F47" stroke-width="2" stroke-linecap="round" stroke-linejoin="round"/>
                <path opacity="0.3"
                      d="M417.33 207.6L414.18 213.58H412.16C410.58 213.58 409.08 214.28 408.11 215.42L412.25 207.61H417.35H417.33V207.6Z"
                      fill="white"/>
                <path opacity="0.3"
                      d="M422.95 208.31L420.22 213.58H417.58L420.73 207.6C421.53 207.69 422.23 207.95 422.92 208.31H422.94H422.95Z"
                      fill="white"/>
                <path d="M254.94 504.72C254.68 502.25 254.49 499.8 254.49 497.33C254.49 461.38 283.57 432.29 319.52 432.29C349.49 432.29 374.7 452.5 382.27 480.1"
                      stroke="#3C4F47" stroke-width="2" stroke-linecap="round" stroke-linejoin="round"/>
                <path d="M262.14 527.92C259.32 522.65 257.22 516.86 255.9 510.88" stroke="#3C4F47" stroke-width="2"
                      stroke-linecap="round" stroke-linejoin="round"/>
                <path d="M382.79 479.85C383.5 468.06 393.33 458.67 405.28 458.67C409.75 458.67 413.89 459.99 417.4 462.18"
                      stroke="#3C4F47" stroke-width="2" stroke-linecap="round" stroke-linejoin="round"/>
                <path d="M427.07 446.27C430.67 443.8 435.07 442.41 439.73 442.41C447.19 442.41 453.71 446.01 457.83 451.54"
                      stroke="#3C4F47" stroke-width="2" stroke-linecap="round" stroke-linejoin="round"/>
                <path d="M559.58 482.93C562.66 489.26 564.33 496.29 564.33 503.76C564.33 507.62 563.88 511.41 563.01 515.01"
                      stroke="#3C4F47" stroke-width="2" stroke-linecap="round" stroke-linejoin="round"/>
                <path d="M476.72 476.34C485.42 463.87 499.83 455.68 516.18 455.68C532.53 455.68 545.61 463.07 554.41 474.57"
                      stroke="#3C4F47" stroke-width="2" stroke-linecap="round" stroke-linejoin="round"/>
                <path d="M564.33 500.41H565.65C577.34 500.41 586.82 509.89 586.82 521.59C586.82 525.8 585.6 529.68 583.48 532.93"
                      stroke="#3C4F47" stroke-width="2" stroke-linecap="round" stroke-linejoin="round"/>
                <path opacity="0.3"
                      d="M564.33 503.84C564.33 537.42 530.76 560.62 499.39 548.92C529.44 555.51 557.91 532.66 557.91 501.91C557.91 481.25 544.9 463.6 526.55 456.83C548.17 461.58 564.34 480.83 564.34 503.84H564.33Z"
                      fill="#132422"/>
                <path d="M537.79 546.81C536.99 547.26 536.21 547.61 535.41 547.96" stroke="#3C4F47" stroke-width="2"
                      stroke-linecap="round" stroke-linejoin="round"/>
                <path d="M563.11 514.46C560.47 525.97 553.79 535.9 544.57 542.67" stroke="#3C4F47" stroke-width="2"
                      stroke-linecap="round" stroke-linejoin="round"/>
                <path d="M330.42 513.16C336.04 514.03 340.52 518.26 341.85 523.7" stroke="#3C4F47" stroke-width="2"
                      stroke-linecap="round" stroke-linejoin="round"/>
                <path d="M336.13 515.09C340.6 508.06 348.53 503.3 357.49 503.3C362.59 503.3 367.33 504.8 371.28 507.44"
                      stroke="#3C4F47" stroke-width="2" stroke-linecap="round" stroke-linejoin="round"/>
                <path d="M366.98 505.16C366.89 504.55 366.89 503.94 366.89 503.3C366.89 489.32 378.23 478.08 392.11 478.08C405.99 478.08 417.33 489.42 417.33 503.3C417.33 505.16 417.16 506.9 416.81 508.66"
                      stroke="#3C4F47" stroke-width="2" stroke-linecap="round" stroke-linejoin="round"/>
                <path d="M416.79 508.67C418.72 510.51 420.39 512.72 421.54 515.17" stroke="#3C4F47" stroke-width="2"
                      stroke-linecap="round" stroke-linejoin="round"/>
                <path d="M418.72 522.13C422.93 507.45 436.39 496.74 452.46 496.74C468.53 496.74 483.12 508.43 486.64 523.99"
                      stroke="#3C4F47" stroke-width="2" stroke-linecap="round" stroke-linejoin="round"/>
                <path opacity="0.3"
                      d="M441.4 565C427.43 560.34 417.33 547.26 417.33 531.68C417.33 516.1 428.41 501.8 443.33 497.75C414.6 510.32 413.45 550.83 441.4 564.97V564.99V565Z"
                      fill="#132422"/>
                <path d="M417.4 530.03C417.4 529.42 417.49 528.88 417.49 528.36" stroke="#3C4F47" stroke-width="2"
                      stroke-linecap="round" stroke-linejoin="round"/>
                <path d="M475.14 551.92C475.05 551.05 474.95 550.25 474.95 549.38C474.95 539.71 482.76 531.8 492.52 531.8C502.28 531.8 510.1 539.61 510.1 549.38"
                      stroke="#3C4F47" stroke-width="2" stroke-linecap="round" stroke-linejoin="round"/>
                <path d="M610.19 503.92C611.42 501.99 613.62 500.67 616.07 500.67C619.86 500.67 622.92 503.75 622.92 507.52"
                      stroke="#3C4F47" stroke-width="2" stroke-linecap="round" stroke-linejoin="round"/>
                <path d="M609.32 508.84C609.32 508.84 609.32 508.65 609.23 508.58" stroke="#3C4F47" stroke-width="2"
                      stroke-linecap="round" stroke-linejoin="round"/>
                <path d="M621.18 512.1C619.95 513.51 618.1 514.38 616 514.38C613.62 514.38 611.6 513.23 610.38 511.49"
                      stroke="#3C4F47" stroke-width="2" stroke-linecap="round" stroke-linejoin="round"/>
                <path d="M354.67 527.4C355.9 525.47 358.1 524.15 360.55 524.15C364.34 524.15 367.4 527.23 367.4 531"
                      stroke="#3C4F47" stroke-width="2" stroke-linecap="round" stroke-linejoin="round"/>
                <path d="M353.8 532.39C353.8 532.39 353.8 532.22 353.71 532.13" stroke="#3C4F47" stroke-width="2"
                      stroke-linecap="round" stroke-linejoin="round"/>
                <path d="M365.66 535.56C364.44 536.97 362.58 537.84 360.48 537.84C358.1 537.84 356.08 536.69 354.86 534.94"
                      stroke="#3C4F47" stroke-width="2" stroke-linecap="round" stroke-linejoin="round"/>
                <path d="M237.62 534.15C246.14 530.2 255.64 527.91 265.57 527.91C267.41 527.91 269.26 528 271.03 528.17"
                      stroke="#3C4F47" stroke-width="2" stroke-linecap="round" stroke-linejoin="round"/>
                <path d="M226.99 540.39C228.57 539.24 230.14 538.2 231.82 537.22" stroke="#3C4F47" stroke-width="2"
                      stroke-linecap="round" stroke-linejoin="round"/>
                <path d="M613.11 539.07C604.59 535.12 595.09 532.83 585.16 532.83C583.32 532.83 581.47 532.92 579.72 533.09"
                      stroke="#3C4F47" stroke-width="2" stroke-linecap="round" stroke-linejoin="round"/>
                <path d="M510.55 312.36C510.55 305.33 516.27 299.63 523.28 299.63C524.69 299.63 526.01 299.89 527.33 300.24"
                      stroke="#4B5B54" stroke-width="2" stroke-linecap="round" stroke-linejoin="round"/>
                <path d="M595.53 313.68H618.02" stroke="#4B5B54" stroke-width="2" stroke-linecap="round"
                      stroke-linejoin="round"/>
                <path d="M557.49 304.88C562.32 304.88 566.19 308.74 566.19 313.59H585.18" stroke="#4B5B54"
                      stroke-width="2" stroke-linecap="round" stroke-linejoin="round"/>
                <path d="M527.42 300.22C529.35 294.15 535.07 289.77 541.82 289.77C550.17 289.77 556.93 296.55 556.93 304.88"
                      stroke="#4B5B54" stroke-width="2" stroke-linecap="round" stroke-linejoin="round"/>
                <path d="M322.07 330.64C322.07 327.39 319.43 324.66 316.09 324.66C315.48 324.66 314.77 324.75 314.25 324.92"
                      stroke="#4B5B54" stroke-width="2" stroke-linecap="round" stroke-linejoin="round"/>
                <path d="M282.44 331.16H271.9" stroke="#4B5B54" stroke-width="2" stroke-linecap="round"
                      stroke-linejoin="round"/>
                <path d="M300.18 327.11C297.9 327.11 296.13 328.95 296.13 331.16H287.26" stroke="#4B5B54"
                      stroke-width="2" stroke-linecap="round" stroke-linejoin="round"/>
                <path d="M314.16 324.92C313.29 322.12 310.56 320 307.48 320C303.62 320 300.45 323.15 300.45 327.03"
                      stroke="#4B5B54" stroke-width="2" stroke-linecap="round" stroke-linejoin="round"/>
                <path d="M206.78 378.08C206.78 374.29 209.86 371.14 213.72 371.14C214.52 371.14 215.2 371.23 215.91 371.49"
                      stroke="#4B5B54" stroke-width="2" stroke-linecap="round" stroke-linejoin="round"/>
                <path d="M232.18 374.05C234.82 374.05 236.93 376.16 236.93 378.8H247.21" stroke="#4B5B54"
                      stroke-width="2" stroke-linecap="round" stroke-linejoin="round"/>
                <path d="M215.93 371.58C216.99 368.33 220.07 365.86 223.74 365.86C228.21 365.86 231.91 369.55 231.91 374.03"
                      stroke="#4B5B54" stroke-width="2" stroke-linecap="round" stroke-linejoin="round"/>
                <path opacity="0.3"
                      d="M513.28 455.77C522.95 434.76 544.22 420.17 568.9 420.17C602.73 420.17 630.14 447.58 630.14 481.42C630.14 497.94 623.64 512.97 613.01 523.96"
                      stroke="#3C4F47" stroke-width="2" stroke-linecap="round" stroke-linejoin="round"/>
                <path opacity="0.3"
                      d="M195.36 516.93C189.12 494.6 195.88 469.73 214.7 453.84C233.69 437.75 259.59 435.21 280.7 445.23"
                      stroke="#3C4F47" stroke-width="2" stroke-linecap="round" stroke-linejoin="round"/>
                <path d="M266.35 405.77H273.64V405.32C273.64 401.53 276.72 398.47 280.49 398.47C282.25 398.47 283.83 399.18 285.06 400.23V400.14C286.9 394.52 292.19 390.38 298.42 390.38C306.16 390.38 312.49 396.71 312.49 404.45C312.49 405.16 312.4 405.95 312.32 406.64L312.49 406.83H316.28"
                      stroke="#4B5B54" stroke-width="2" stroke-linecap="round" stroke-linejoin="round"/>
                <path d="M597.2 357.7H590.26V357.25C590.26 353.65 587.37 350.75 583.76 350.75C582.09 350.75 580.6 351.36 579.36 352.42V352.33C577.6 346.97 572.59 343.01 566.53 343.01C559.14 343.01 553.09 348.99 553.09 356.45C553.09 357.16 553.18 357.86 553.27 358.57L553.09 358.74H549.49"
                      stroke="#4B5B54" stroke-width="2" stroke-linecap="round" stroke-linejoin="round"/>
                <path d="M566.6 204.43C576.73 194.32 576.73 177.89 566.6 167.77C556.47 157.65 540.06 157.65 529.95 167.77C519.84 177.89 519.84 194.31 529.95 204.43C540.08 214.54 556.49 214.54 566.6 204.43Z"
                      fill="#2E3D36" stroke="#4B5B54" stroke-width="2" stroke-linecap="round" stroke-linejoin="round"/>
                <path d="M553.7 211.46C543.32 202.05 532.43 191.15 522.95 180.71C527.16 160.76 552.03 153.11 566.71 167.7C581.2 182.29 573.65 207.25 553.7 211.46Z"
                      fill="#F1F9F9" stroke="#ABC5BA" stroke-width="2" stroke-miterlimit="10"/>
                <path d="M532.62 165.42C514.69 149.51 500.46 140.03 497.66 142.83C494.76 145.73 505.4 161.46 522.88 180.71C551.7 212.62 586.95 241.35 591.6 236.69C596.43 231.86 565.15 194.15 532.64 165.42H532.62ZM560.57 208.92C529.21 185.11 502.67 145.39 531.14 166.57C551.17 181.42 577 211.39 573.32 215.09C572 216.41 567.18 213.94 560.57 208.95V208.93V208.92Z"
                      fill="#6D817D" stroke="#93AA9C" stroke-width="2" stroke-linejoin="round"/>
                <path opacity="0.3"
                      d="M509.68 153.11C506.43 156.36 519.78 174.99 539.56 194.76C559.32 214.53 577.96 227.89 581.21 224.64C588.86 216.99 517.42 145.37 509.68 153.11ZM519.26 161.02C521.64 158.64 535.68 168.76 550.62 183.7C565.56 198.64 575.66 212.62 573.28 215.07C567.56 220.79 513.52 166.74 519.24 161.02H519.26Z"
                      fill="#ABC5BA"/>
                <path d="M560.55 208.92C549.04 200.22 534.1 185.27 525.4 173.77C533.4 158.83 554.04 155.14 566.62 167.7C579.09 180.17 575.58 200.83 560.55 208.92Z"
                      fill="#2E3D36" stroke="#4B5B54" stroke-width="2" stroke-linecap="round" stroke-linejoin="round"/>
                <path opacity="0.3"
                      d="M566.52 204.52C564.68 206.28 562.66 207.77 560.54 208.92C549.03 200.22 534.09 185.27 525.39 173.77C526.45 171.75 527.93 169.98 529.6 168.24C527.74 175.44 561.41 208.4 566.5 204.53H566.52V204.52Z"
                      fill="#132422"/>
                <path d="M560.55 208.92C549.04 200.22 534.1 185.27 525.4 173.77C533.4 158.83 554.04 155.14 566.62 167.7C579.09 180.17 575.58 200.83 560.55 208.92Z"
                      stroke="#4B5B54" stroke-width="2" stroke-linecap="round" stroke-linejoin="round"/>
                <path opacity="0.3"
                      d="M566 193.98C567.99 193.98 569.6 191.35 569.6 188.1C569.6 184.85 567.98 182.22 566 182.22C564.02 182.22 562.4 184.86 562.4 188.1C562.4 191.34 564.01 193.98 566 193.98Z"
                      fill="#132422"/>
                <path opacity="0.3"
                      d="M557.04 176.14C558.64 176.14 559.93 174.56 559.93 172.63C559.93 170.7 558.63 169.12 557.04 169.12C555.45 169.12 554.14 170.7 554.14 172.63C554.14 174.56 555.44 176.14 557.04 176.14Z"
                      fill="#132422"/>
                <path opacity="0.3"
                      d="M539.17 173.4C540.66 173.16 541.69 171.99 541.51 170.8C541.31 169.59 539.95 168.83 538.47 169.07C536.98 169.31 535.95 170.48 536.13 171.67C536.32 172.88 537.69 173.64 539.17 173.4Z"
                      fill="#132422"/>
                <path opacity="0.3"
                      d="M548.82 183.14C551.21 182.75 552.9 180.8 552.57 178.8C552.24 176.8 550.05 175.48 547.63 175.87C545.24 176.26 543.57 178.21 543.88 180.21C544.21 182.21 546.4 183.53 548.8 183.14H548.82Z"
                      fill="#132422"/>
                <path d="M314.42 230.54C314.42 258.57 286.12 277.91 260.02 267.62C253.17 264.89 247.27 260.42 242.89 254.61C223.12 228.61 241.48 190.63 274.61 190.63C279.18 190.63 283.48 191.43 287.53 192.75C303.27 198.28 314.42 213.22 314.42 230.54Z"
                      fill="#2E3D36" stroke="#4B5B54" stroke-width="2" stroke-linecap="round" stroke-linejoin="round"/>
                <path opacity="0.5"
                      d="M269.62 234.31C269.62 239.93 265.05 244.5 259.43 244.5C257.85 244.5 256.35 244.15 254.96 243.44C251.53 241.77 249.24 238.34 249.24 234.31C249.24 228.69 253.81 224.12 259.43 224.12C262.33 224.12 265.05 225.34 266.89 227.37C268.56 229.13 269.62 231.58 269.62 234.31Z"
                      fill="#132422"/>
                <path d="M269.62 234.31C269.62 239.93 265.05 244.5 259.43 244.5C257.85 244.5 256.35 244.15 254.96 243.44C253.29 241.6 252.23 239.23 252.23 236.5C252.23 230.88 256.8 226.31 262.42 226.31C264 226.31 265.5 226.66 266.89 227.37C268.56 229.13 269.62 231.58 269.62 234.31Z"
                      fill="#132422"/>
                <path opacity="0.5"
                      d="M284.98 217.18C284.98 221.04 281.9 224.12 278.04 224.12C277.33 224.12 276.72 224.03 276.11 223.86C273.21 223.06 271.1 220.35 271.1 217.18C271.1 213.32 274.18 210.24 278.04 210.24C279.97 210.24 281.64 211.04 282.87 212.17C284.19 213.49 284.99 215.25 284.99 217.18H284.98Z"
                      fill="#132422"/>
                <path d="M284.98 217.18C284.98 221.04 281.9 224.12 278.04 224.12C277.33 224.12 276.72 224.03 276.11 223.86C274.79 222.63 273.99 220.87 273.99 218.94C273.99 215.08 277.07 212 280.93 212C281.64 212 282.25 212.09 282.86 212.26C284.18 213.48 284.98 215.25 284.98 217.18Z"
                      fill="#132422"/>
                <path opacity="0.5"
                      d="M290.7 245.65C290.7 249.51 287.62 252.59 283.76 252.59C283.41 252.59 282.96 252.59 282.61 252.5C279.27 251.98 276.82 249.07 276.82 245.65C276.82 241.79 279.9 238.71 283.76 238.71C285.17 238.71 286.49 239.15 287.62 239.86C289.46 241.09 290.7 243.2 290.7 245.65Z"
                      fill="#132422"/>
                <path d="M290.7 245.65C290.7 249.51 287.62 252.59 283.76 252.59C283.41 252.59 282.96 252.59 282.61 252.5C280.77 251.27 279.53 249.16 279.53 246.71C279.53 242.85 282.61 239.77 286.47 239.77C286.82 239.77 287.18 239.77 287.62 239.86C289.46 241.09 290.7 243.2 290.7 245.65Z"
                      fill="#132422"/>
                <path opacity="0.5"
                      d="M298.44 229.65C298.44 232.19 296.42 234.22 293.87 234.22C293.61 234.22 293.35 234.22 293.07 234.13C290.88 233.78 289.21 231.85 289.21 229.56C289.21 227.02 291.33 224.99 293.78 224.99C294.84 224.99 295.8 225.34 296.6 225.95C297.75 226.91 298.44 228.23 298.44 229.64V229.65Z"
                      fill="#132422"/>
                <path d="M298.44 229.65C298.44 232.19 296.42 234.22 293.87 234.22C293.61 234.22 293.35 234.22 293.07 234.13C292.01 233.26 291.31 231.94 291.31 230.53C291.31 227.99 293.33 225.96 295.88 225.96C296.14 225.96 296.4 225.96 296.68 226.05C297.74 226.92 298.44 228.24 298.44 229.65Z"
                      fill="#132422"/>
                <path opacity="0.3"
                      d="M314.42 230.54C314.42 258.57 286.12 277.91 260.02 267.62C260.63 267.1 261.43 266.75 262.14 266.39C275.76 259.71 288.33 265.17 293.69 255.66C296.16 251.26 294.75 245.56 297.03 241.07C298.09 238.88 299.93 237.12 300.98 235C304.77 227.26 297.03 210.57 298.51 205.92C299.12 204.08 300.98 202.93 302.91 202.58C310.04 209.78 314.42 219.64 314.42 230.53V230.54Z"
                      fill="#132422"/>
                <path opacity="0.05"
                      d="M288.51 198.9C286.32 204.43 277.17 202.76 273.12 202.85C264.95 202.94 263.8 207.06 262.13 209.27C259.49 212.7 254.67 214.1 250.62 212.7C254.13 229.57 246.83 228.09 245.52 233.43C244.04 239.76 255.28 243.62 253.17 249.86C251.95 253.46 246.67 254.33 242.8 254.61C223.03 228.61 241.39 190.63 274.52 190.63C279.09 190.63 283.39 191.43 287.44 192.75C288.66 194.68 289.28 196.96 288.5 198.89H288.52L288.51 198.9Z"
                      fill="white"/>
                <path opacity="0.3"
                      d="M256.7 216.47C258.26 216.47 259.52 215.21 259.52 213.65C259.52 212.09 258.26 210.83 256.7 210.83C255.14 210.83 253.88 212.09 253.88 213.65C253.88 215.21 255.14 216.47 256.7 216.47Z"
                      fill="#ABC5BA"/>
                <path d="M314.42 230.54C314.42 258.57 286.12 277.91 260.02 267.62C253.17 264.89 247.27 260.42 242.89 254.61C223.12 228.61 241.48 190.63 274.61 190.63C279.18 190.63 283.48 191.43 287.53 192.75C303.27 198.28 314.42 213.22 314.42 230.54Z"
                      stroke="#4B5B54" stroke-width="2" stroke-linecap="round" stroke-linejoin="round"/>
            </g>
        </g>
        <path d="M232.248 679.896C226.701 679.896 222.307 678.36 219.064 675.288C215.821 672.173 214.2 667.736 214.2 661.976V651.224C214.2 645.464 215.821 641.048 219.064 637.976C222.307 634.861 226.701 633.304 232.248 633.304C237.752 633.304 241.997 634.819 244.984 637.848C248.013 640.835 249.528 644.952 249.528 650.2V650.584H241.208V649.944C241.208 647.299 240.461 645.123 238.968 643.416C237.517 641.709 235.277 640.856 232.248 640.856C229.261 640.856 226.915 641.773 225.208 643.608C223.501 645.443 222.648 647.939 222.648 651.096V662.104C222.648 665.219 223.501 667.715 225.208 669.592C226.915 671.427 229.261 672.344 232.248 672.344C235.277 672.344 237.517 671.491 238.968 669.784C240.461 668.035 241.208 665.859 241.208 663.256V662.104H249.528V663C249.528 668.248 248.013 672.387 244.984 675.416C241.997 678.403 237.752 679.896 232.248 679.896ZM271.772 679.896C268.614 679.896 265.777 679.256 263.26 677.976C260.742 676.696 258.758 674.84 257.308 672.408C255.857 669.976 255.132 667.053 255.132 663.64V662.616C255.132 659.203 255.857 656.28 257.308 653.848C258.758 651.416 260.742 649.56 263.26 648.28C265.777 647 268.614 646.36 271.772 646.36C274.929 646.36 277.766 647 280.284 648.28C282.801 649.56 284.785 651.416 286.236 653.848C287.686 656.28 288.412 659.203 288.412 662.616V663.64C288.412 667.053 287.686 669.976 286.236 672.408C284.785 674.84 282.801 676.696 280.284 677.976C277.766 679.256 274.929 679.896 271.772 679.896ZM271.772 672.728C274.246 672.728 276.294 671.939 277.916 670.36C279.537 668.739 280.348 666.435 280.348 663.448V662.808C280.348 659.821 279.537 657.539 277.916 655.96C276.337 654.339 274.289 653.528 271.772 653.528C269.297 653.528 267.249 654.339 265.628 655.96C264.006 657.539 263.196 659.821 263.196 662.808V663.448C263.196 666.435 264.006 668.739 265.628 670.36C267.249 671.939 269.297 672.728 271.772 672.728ZM295.855 679V647.256H303.791V650.712H304.943C305.498 649.645 306.415 648.728 307.695 647.96C308.975 647.149 310.66 646.744 312.751 646.744C315.012 646.744 316.826 647.192 318.191 648.088C319.556 648.941 320.602 650.072 321.327 651.48H322.479C323.204 650.115 324.228 648.984 325.551 648.088C326.874 647.192 328.751 646.744 331.183 646.744C333.146 646.744 334.916 647.171 336.495 648.024C338.116 648.835 339.396 650.093 340.335 651.8C341.316 653.464 341.807 655.576 341.807 658.136V679H333.743V658.712C333.743 656.963 333.295 655.661 332.399 654.808C331.503 653.912 330.244 653.464 328.623 653.464C326.788 653.464 325.359 654.061 324.335 655.256C323.354 656.408 322.863 658.072 322.863 660.248V679H314.799V658.712C314.799 656.963 314.351 655.661 313.455 654.808C312.559 653.912 311.3 653.464 309.679 653.464C307.844 653.464 306.415 654.061 305.391 655.256C304.41 656.408 303.919 658.072 303.919 660.248V679H295.855ZM350.48 679V647.256H358.544V679H350.48ZM354.512 643.544C353.061 643.544 351.824 643.075 350.8 642.136C349.819 641.197 349.328 639.96 349.328 638.424C349.328 636.888 349.819 635.651 350.8 634.712C351.824 633.773 353.061 633.304 354.512 633.304C356.005 633.304 357.243 633.773 358.224 634.712C359.205 635.651 359.696 636.888 359.696 638.424C359.696 639.96 359.205 641.197 358.224 642.136C357.243 643.075 356.005 643.544 354.512 643.544ZM367.48 679V647.256H375.416V651.416H376.568C377.08 650.307 378.04 649.261 379.448 648.28C380.856 647.256 382.989 646.744 385.848 646.744C388.323 646.744 390.477 647.32 392.312 648.472C394.189 649.581 395.64 651.139 396.664 653.144C397.688 655.107 398.2 657.411 398.2 660.056V679H390.136V660.696C390.136 658.307 389.539 656.515 388.344 655.32C387.192 654.125 385.528 653.528 383.352 653.528C380.877 653.528 378.957 654.36 377.592 656.024C376.227 657.645 375.544 659.928 375.544 662.872V679H367.48ZM405.382 663.256V662.232C405.382 658.904 406.043 656.067 407.366 653.72C408.688 651.331 410.438 649.517 412.614 648.28C414.832 647 417.243 646.36 419.846 646.36C422.747 646.36 424.944 646.872 426.438 647.896C427.931 648.92 429.019 649.987 429.702 651.096H430.854V647.256H438.79V684.632C438.79 686.808 438.15 688.536 436.87 689.816C435.59 691.139 433.883 691.8 431.75 691.8H410.502V684.76H428.934C430.128 684.76 430.726 684.12 430.726 682.84V674.584H429.574C429.147 675.267 428.55 675.971 427.782 676.696C427.014 677.379 425.99 677.955 424.71 678.424C423.43 678.893 421.808 679.128 419.846 679.128C417.243 679.128 414.832 678.509 412.614 677.272C410.438 675.992 408.688 674.179 407.366 671.832C406.043 669.443 405.382 666.584 405.382 663.256ZM422.15 672.088C424.624 672.088 426.694 671.299 428.358 669.72C430.022 668.141 430.854 665.923 430.854 663.064V662.424C430.854 659.523 430.022 657.304 428.358 655.768C426.736 654.189 424.667 653.4 422.15 653.4C419.675 653.4 417.606 654.189 415.942 655.768C414.278 657.304 413.446 659.523 413.446 662.424V663.064C413.446 665.923 414.278 668.141 415.942 669.72C417.606 671.299 419.675 672.088 422.15 672.088ZM477.164 679.896C473.025 679.896 469.633 679 466.988 677.208C464.343 675.416 462.743 672.856 462.188 669.528L469.612 667.608C469.911 669.101 470.401 670.275 471.084 671.128C471.809 671.981 472.684 672.6 473.708 672.984C474.775 673.325 475.927 673.496 477.164 673.496C479.041 673.496 480.428 673.176 481.324 672.536C482.22 671.853 482.668 671.021 482.668 670.04C482.668 669.059 482.241 668.312 481.388 667.8C480.535 667.245 479.169 666.797 477.292 666.456L475.5 666.136C473.281 665.709 471.255 665.133 469.42 664.408C467.585 663.64 466.113 662.595 465.004 661.272C463.895 659.949 463.34 658.243 463.34 656.152C463.34 652.995 464.492 650.584 466.796 648.92C469.1 647.213 472.129 646.36 475.884 646.36C479.425 646.36 482.369 647.149 484.716 648.728C487.063 650.307 488.599 652.376 489.324 654.936L481.836 657.24C481.495 655.619 480.791 654.467 479.724 653.784C478.7 653.101 477.42 652.76 475.884 652.76C474.348 652.76 473.175 653.037 472.364 653.592C471.553 654.104 471.148 654.829 471.148 655.768C471.148 656.792 471.575 657.56 472.428 658.072C473.281 658.541 474.433 658.904 475.884 659.16L477.676 659.48C480.065 659.907 482.22 660.483 484.14 661.208C486.103 661.891 487.639 662.893 488.748 664.216C489.9 665.496 490.476 667.245 490.476 669.464C490.476 672.792 489.26 675.373 486.828 677.208C484.439 679 481.217 679.896 477.164 679.896ZM512.647 679.896C509.489 679.896 506.652 679.256 504.135 677.976C501.617 676.696 499.633 674.84 498.183 672.408C496.732 669.976 496.007 667.053 496.007 663.64V662.616C496.007 659.203 496.732 656.28 498.183 653.848C499.633 651.416 501.617 649.56 504.135 648.28C506.652 647 509.489 646.36 512.647 646.36C515.804 646.36 518.641 647 521.159 648.28C523.676 649.56 525.66 651.416 527.111 653.848C528.561 656.28 529.287 659.203 529.287 662.616V663.64C529.287 667.053 528.561 669.976 527.111 672.408C525.66 674.84 523.676 676.696 521.159 677.976C518.641 679.256 515.804 679.896 512.647 679.896ZM512.647 672.728C515.121 672.728 517.169 671.939 518.791 670.36C520.412 668.739 521.223 666.435 521.223 663.448V662.808C521.223 659.821 520.412 657.539 518.791 655.96C517.212 654.339 515.164 653.528 512.647 653.528C510.172 653.528 508.124 654.339 506.503 655.96C504.881 657.539 504.071 659.821 504.071 662.808V663.448C504.071 666.435 504.881 668.739 506.503 670.36C508.124 671.939 510.172 672.728 512.647 672.728ZM551.834 679.896C548.677 679.896 545.839 679.256 543.322 677.976C540.805 676.696 538.821 674.84 537.37 672.408C535.919 669.976 535.194 667.053 535.194 663.64V662.616C535.194 659.203 535.919 656.28 537.37 653.848C538.821 651.416 540.805 649.56 543.322 648.28C545.839 647 548.677 646.36 551.834 646.36C554.991 646.36 557.829 647 560.346 648.28C562.863 649.56 564.847 651.416 566.298 653.848C567.749 656.28 568.474 659.203 568.474 662.616V663.64C568.474 667.053 567.749 669.976 566.298 672.408C564.847 674.84 562.863 676.696 560.346 677.976C557.829 679.256 554.991 679.896 551.834 679.896ZM551.834 672.728C554.309 672.728 556.357 671.939 557.978 670.36C559.599 668.739 560.41 666.435 560.41 663.448V662.808C560.41 659.821 559.599 657.539 557.978 655.96C556.399 654.339 554.351 653.528 551.834 653.528C549.359 653.528 547.311 654.339 545.69 655.96C544.069 657.539 543.258 659.821 543.258 662.808V663.448C543.258 666.435 544.069 668.739 545.69 670.36C547.311 671.939 549.359 672.728 551.834 672.728ZM575.918 679V647.256H583.854V651.416H585.006C585.518 650.307 586.478 649.261 587.885 648.28C589.294 647.256 591.427 646.744 594.286 646.744C596.76 646.744 598.915 647.32 600.75 648.472C602.627 649.581 604.078 651.139 605.102 653.144C606.126 655.107 606.638 657.411 606.638 660.056V679H598.574V660.696C598.574 658.307 597.976 656.515 596.782 655.32C595.63 654.125 593.966 653.528 591.79 653.528C589.315 653.528 587.395 654.36 586.03 656.024C584.664 657.645 583.982 659.928 583.982 662.872V679H575.918Z"
              fill="#94FFDF"/>
        <g filter="url(#filter0_f_0_12)">
            <circle cx="411" cy="67" r="116" fill="#94FFDF"/>
        </g>
    </g>
    <defs>
        <filter id="filter0_f_0_12" x="-305" y="-649" width="1432" height="1432" filterUnits="userSpaceOnUse"
                color-interpolation-filters="sRGB">
            <feFlood flood-opacity="0" result="BackgroundImageFix"/>
            <feBlend mode="normal" in="SourceGraphic" in2="BackgroundImageFix" result="shape"/>
            <feGaussianBlur stdDeviation="300" result="effect1_foregroundBlur_0_12"/>
        </filter>
        <clipPath id="clip0_0_12">
            <rect width="821" height="831" rx="32" fill="white"/>
        </clipPath>
        <clipPath id="clip1_0_12">
            <rect width="442" height="477" fill="white" transform="translate(190 88)"/>
        </clipPath>
    </defs>
</svg>
