<svg width="301" height="52" viewBox="0 0 301 52" fill="none" xmlns="http://www.w3.org/2000/svg">
    <path d="M218.53 18.0834C218.685 18.0834 218.839 18.0834 218.993 18.2417C219.148 18.4001 219.148 18.5584 219.148 18.7167V22.2001C219.148 22.3584 219.148 22.5167 218.993 22.6751C218.839 22.8334 218.685 22.8334 218.53 22.8334H215.598V36.7667C215.598 36.9251 215.598 37.0834 215.443 37.2417C215.289 37.4001 215.135 37.4001 214.98 37.4001H210.504C210.35 37.4001 210.196 37.4001 210.041 37.2417C209.887 37.0834 209.887 36.9251 209.887 36.7667V22.6751H206.954C206.8 22.6751 206.646 22.6751 206.491 22.5167C206.337 22.3584 206.337 22.2001 206.337 22.0417V18.5584C206.337 18.4001 206.337 18.2417 206.491 18.0834C206.646 18.0834 206.8 18.0834 206.954 18.0834H209.887V13.1751C209.887 13.0167 209.887 12.8584 210.041 12.7001C210.196 12.5417 210.35 12.5417 210.504 12.5417H214.98C215.135 12.5417 215.289 12.5417 215.443 12.7001C215.598 12.8584 215.598 13.0167 215.598 13.1751V18.0834H218.53Z" fill="#B9C5C2"/>
    <path d="M205.72 27.4249C205.72 28.2166 205.565 28.8499 205.411 29.3249C205.256 29.6416 204.948 29.7999 204.33 29.7999H193.217C193.526 30.9083 193.989 31.6999 194.761 32.1749C195.533 32.6499 196.613 32.9666 197.848 32.9666C198.465 32.9666 199.083 32.9666 199.546 32.8083C200.163 32.6499 200.78 32.3333 201.398 31.8583C201.552 31.6999 201.706 31.6999 201.861 31.6999C202.015 31.6999 202.17 31.6999 202.324 31.8583L204.33 33.7583C204.485 33.9166 204.485 33.9166 204.485 34.0749C204.485 34.2333 204.485 34.3916 204.33 34.5499C203.404 35.4999 202.478 36.1332 201.243 36.7666C200.163 37.2416 198.928 37.5583 197.539 37.5583C195.687 37.5583 193.989 37.0833 192.446 36.2916C191.056 35.3416 189.822 34.2333 189.05 32.6499C188.278 31.2249 187.815 29.4833 187.815 27.7416C187.815 25.9999 188.278 24.2583 189.05 22.8333C189.822 21.4083 191.056 20.1416 192.446 19.3499C193.835 18.3999 195.378 18.0833 197.23 18.0833C198.928 18.0833 200.472 18.5583 201.706 19.3499C203.096 20.1416 204.022 21.4083 204.793 22.8333C205.411 24.0999 205.72 25.6833 205.72 27.4249ZM197.076 22.8333C196.15 22.8333 195.224 23.1499 194.606 23.6249C193.835 24.0999 193.526 24.8916 193.217 25.9999H200.78C200.626 24.8916 200.163 24.0999 199.546 23.6249C198.774 23.1499 198.002 22.8333 197.076 22.8333Z" fill="#B9C5C2"/>
    <path d="M185.346 18.4C185.5 18.4 185.654 18.4 185.809 18.5584C185.963 18.7167 185.963 18.875 185.963 19.0334V37.2417C185.963 39.1417 185.5 40.725 184.419 41.8334C183.493 43.1 182.259 43.8917 180.715 44.3667C179.172 44.6834 177.783 45 176.085 45C174.541 45 172.998 44.8417 171.609 44.3667C170.219 43.8917 168.985 43.2584 168.059 42.625C167.904 42.4667 167.904 42.3084 167.904 42.1501C167.904 41.9917 167.904 41.8334 167.904 41.8334L169.293 39.1417C169.448 38.9834 169.602 38.8251 169.756 38.8251C169.911 38.8251 169.911 38.8251 170.065 38.8251C170.837 39.3001 171.763 39.775 172.689 39.9334C173.615 40.0917 174.541 40.25 175.776 40.25C177.011 40.25 178.246 39.9334 179.172 39.4584C180.252 38.9834 180.715 38.0334 180.715 36.7667V35.0251C179.326 36.7667 177.474 37.5584 175.313 37.5584C173.615 37.5584 172.072 37.0834 170.837 36.2917C169.448 35.3417 168.367 34.2334 167.596 32.6501C166.824 31.2251 166.515 29.4834 166.515 27.7417C166.515 26 166.824 24.4167 167.596 22.8334C168.522 21.25 169.448 20.1417 170.837 19.1917C172.226 18.2417 173.615 17.925 175.313 17.925C177.319 17.925 179.017 18.7167 180.561 20.4584L180.715 18.875C180.715 18.5584 181.024 18.2417 181.333 18.2417H185.346V18.4ZM176.085 32.175C177.165 32.175 178.246 31.7 179.017 30.75C179.789 29.8 180.252 28.85 180.252 27.5834C180.252 26.3167 179.789 25.3667 179.017 24.4167C178.246 23.4667 177.319 22.9917 176.085 22.9917C174.85 22.9917 173.924 23.4667 173.152 24.2584C172.38 25.05 171.917 26.1584 171.917 27.425C171.917 28.6917 172.226 29.8 172.998 30.5917C173.924 31.7 174.85 32.175 176.085 32.175Z" fill="#B9C5C2"/>
    <path d="M164.663 18.0834C164.817 18.0834 164.972 18.0834 165.126 18.2417C165.28 18.4001 165.28 18.5584 165.28 18.7167V22.2001C165.28 22.3584 165.28 22.5167 165.126 22.6751C164.972 22.8334 164.817 22.8334 164.663 22.8334H161.73V36.7667C161.73 36.9251 161.73 37.0834 161.576 37.2417C161.422 37.4001 161.267 37.4001 161.113 37.4001H156.637C156.483 37.4001 156.328 37.4001 156.174 37.2417C156.174 37.0834 156.174 36.9251 156.174 36.7667V22.6751H153.087C152.933 22.6751 152.778 22.6751 152.624 22.5167C152.469 22.3584 152.469 22.2001 152.469 22.0417V18.5584C152.469 18.4001 152.469 18.2417 152.624 18.0834C152.778 18.0834 152.933 18.0834 153.087 18.0834H156.174V13.1751C156.174 13.0167 156.174 12.8584 156.328 12.7001C156.483 12.5417 156.637 12.5417 156.791 12.5417H161.267C161.422 12.5417 161.576 12.5417 161.73 12.7001C161.885 12.8584 161.885 13.0167 161.885 13.1751V18.0834H164.663Z" fill="#B9C5C2"/>
    <path d="M147.685 16.5001C146.913 16.5001 146.141 16.1834 145.524 15.5501C145.061 14.9167 144.752 14.2834 144.752 13.3334C144.752 12.3834 145.061 11.7501 145.678 11.1167C146.141 10.4834 146.913 10.1667 147.685 10.1667C148.457 10.1667 149.228 10.4834 149.846 11.1167C150.463 11.7501 150.772 12.5417 150.772 13.3334C150.772 14.1251 150.463 14.9167 149.846 15.5501C149.228 16.1834 148.611 16.5001 147.685 16.5001ZM144.907 18.5584C144.907 18.4001 144.907 18.2417 145.061 18.0834C145.215 18.0834 145.37 18.0834 145.524 18.0834H150C150.154 18.0834 150.309 18.0834 150.463 18.2417C150.617 18.4001 150.617 18.5584 150.617 18.7167V36.7667C150.617 36.9251 150.617 37.0834 150.463 37.2417C150.309 37.4001 150.154 37.4001 150 37.4001H145.524C145.37 37.4001 145.215 37.4001 145.061 37.2417C144.907 37.0834 144.907 36.9251 144.907 36.7667V18.5584Z" fill="#B9C5C2"/>
    <path d="M137.806 22.8334C139.196 23.1501 140.43 23.9417 141.357 25.2084C142.437 26.4751 142.9 27.9001 142.9 29.4834C142.9 32.0167 142.128 34.0751 140.43 35.3417C138.887 36.6084 136.417 37.2417 133.176 37.2417H124.07C123.915 37.2417 123.761 37.2417 123.606 37.0834C123.452 36.9251 123.452 36.7668 123.452 36.6084V10.8001C123.452 10.6417 123.452 10.4834 123.606 10.3251C123.606 10.3251 123.761 10.1667 123.915 10.1667H133.022C134.72 10.1667 136.109 10.4834 137.189 11.1167C138.424 11.7501 139.35 12.5417 139.813 13.6501C140.43 14.7584 140.739 15.8667 140.739 17.2917C140.739 18.5584 140.43 19.8251 139.813 20.7751C139.35 21.7251 138.578 22.5167 137.806 22.8334ZM135.491 18.0834C135.491 16.5001 134.565 15.5501 132.559 15.5501H129.163V20.7751H132.559C133.485 20.7751 134.256 20.6167 134.72 20.1417C135.183 19.6667 135.491 18.8751 135.491 18.0834ZM133.33 32.0167C134.411 32.0167 135.337 31.7001 136.109 31.2251C136.726 30.7501 137.189 29.8001 137.189 28.8501C137.189 27.7417 136.88 26.9501 136.109 26.4751C135.491 26.0001 134.565 25.6834 133.33 25.6834H129.163V32.0167H133.33Z" fill="#B9C5C2"/>
    <path d="M91.5022 7.79167C91.9652 7.31667 92.5826 7 93.2 7H97.6761C98.2935 7 98.6022 7.63333 98.1391 8.10833L89.3413 17.925H94.2804L99.2196 23.3083H89.3413L99.2196 34.2333H93.2C92.5826 34.2333 91.8109 33.9167 91.3478 33.4417L81.3152 22.3583C80.5435 21.4083 80.5435 19.825 81.4696 18.875L91.5022 7.79167Z" fill="#B9C5C2"/>
    <path d="M105.239 44.2083C104.776 44.6833 104.159 44.9999 103.387 44.9999H98.9109C98.2935 44.9999 97.9848 44.3666 98.4478 43.8916L107.4 34.0749H102.461L97.5217 28.6916H107.4L97.5217 17.7666H103.541C104.159 17.7666 104.93 18.0833 105.393 18.5583L115.426 29.6416C116.352 30.5916 116.352 32.1749 115.426 33.1249L105.239 44.2083Z" fill="#B9C5C2"/>
</svg>
