<svg width="301" height="42" viewBox="0 0 301 42" fill="none" xmlns="http://www.w3.org/2000/svg">
    <path d="M178.582 32.044V0.619141H185.4V32.044H178.582Z" fill="#B9C5C2"/>
    <path d="M99.1173 41.3787H84.5V9.95386H98.5295C105.348 9.95386 109.321 13.3964 109.321 18.7813C109.321 22.267 106.769 24.5196 105.003 25.2696C107.111 26.1519 109.81 28.1376 109.81 32.3325C109.81 38.2007 105.348 41.3787 99.1173 41.3787ZM97.9898 15.4277H91.3184V22.6661H97.9898C100.883 22.6661 102.502 21.2093 102.502 19.0457C102.502 16.8845 100.883 15.4277 97.9898 15.4277ZM98.4307 28.1832H91.3184V35.9072H98.4307C101.522 35.9072 102.991 34.1428 102.991 32.0224C102.991 29.9045 101.519 28.1832 98.4307 28.1832Z" fill="#B9C5C2"/>
    <path d="M130.606 28.4909V41.3787H123.836V28.4909L113.339 9.95386H120.745L127.269 22.6204L133.695 9.95386H141.101L130.606 28.4909Z" fill="#B9C5C2"/>
    <path d="M160.432 41.3787H145.814V9.95386H159.844C166.662 9.95386 170.635 13.3964 170.635 18.7813C170.635 22.267 168.084 24.5196 166.317 25.2696C168.426 26.1519 171.124 28.1376 171.124 32.3325C171.124 38.2007 166.662 41.3787 160.432 41.3787ZM159.304 15.4277H152.633V22.6661H159.304C162.198 22.6661 163.817 21.2093 163.817 19.0457C163.817 16.8845 162.198 15.4277 159.304 15.4277ZM159.745 28.1832H152.633V35.9072H159.745C162.836 35.9072 164.306 34.1428 164.306 32.0224C164.306 29.9045 162.836 28.1832 159.745 28.1832Z" fill="#B9C5C2"/>
    <path d="M207.376 15.4277V41.3811H200.557V15.4277H191.433V9.95386H216.5V15.4277H207.376Z" fill="#B9C5C2"/>
</svg>
