<svg width="301" height="42" viewBox="0 0 301 42" fill="none" xmlns="http://www.w3.org/2000/svg">
    <path d="M77.7719 24.9586C77.1555 25.3352 76.4364 25.4037 75.8885 25.0955C75.2036 24.6846 74.7927 23.76 74.7927 22.493V18.6234C74.7927 16.7742 74.0736 15.4386 72.8408 15.0962C70.7519 14.4798 69.1766 17.0481 68.5945 18.007L64.8961 23.9312V16.6372C64.8618 14.9592 64.3139 13.9661 63.2866 13.6579C62.6017 13.4525 61.5744 13.5552 60.5813 15.062L52.3284 28.2802C51.2326 26.1913 50.6505 23.8627 50.6505 21.4999C50.6505 13.521 57.0542 7.04879 64.8961 7.04879C72.738 7.04879 79.1417 13.521 79.1417 21.4999V21.5341V21.5684C79.2102 23.1094 78.7308 24.3422 77.7719 24.9586ZM82.2922 21.4999V21.4656V21.4314C82.2579 11.7403 74.4502 3.82983 64.8961 3.82983C55.3077 3.82983 47.5 11.7403 47.5 21.4999C47.5 31.2253 55.3077 39.1699 64.8961 39.1699C69.3136 39.1699 73.4914 37.492 76.7104 34.4442C77.361 33.8278 77.3953 32.8347 76.7789 32.1841C76.1967 31.5335 75.2036 31.4992 74.553 32.0814C74.553 32.0814 74.553 32.0814 74.5187 32.1156C71.9162 34.5812 68.4233 35.9852 64.8276 35.9852C60.6156 35.9852 56.8487 34.136 54.2461 31.191L61.6771 19.274V24.7873C61.6771 27.4241 62.7045 28.2802 63.5606 28.52C64.4167 28.7597 65.718 28.5885 67.122 26.3626L71.197 19.7534C71.334 19.548 71.4367 19.3425 71.5737 19.2055V22.5615C71.5737 25.027 72.5668 27.0132 74.279 27.972C75.82 28.8624 77.7719 28.7597 79.3814 27.7666C81.3676 26.4653 82.4292 24.2052 82.2922 21.4999ZM106.537 15.4729C106.948 15.7126 107.325 16.2947 107.325 16.8084C107.325 17.6303 106.64 18.3152 105.852 18.3152C105.647 18.3152 105.476 18.2467 105.304 18.2124C104.38 17.5275 103.215 17.0824 101.983 17.0824C99.0719 17.0824 97.0857 19.4452 97.0857 22.3902C97.0857 25.3352 99.1061 27.6639 101.983 27.6639C103.421 27.6639 104.722 27.0817 105.681 26.1571C105.921 25.9859 106.229 25.8831 106.537 25.8831C107.325 25.8831 107.941 26.4995 107.941 27.2872C107.941 27.8008 107.633 28.246 107.256 28.4857C105.852 29.6843 103.969 30.4719 102.017 30.4719C97.5651 30.4719 93.9352 26.8077 93.9352 22.2875C93.9352 17.7673 97.5651 14.1031 102.017 14.1031C103.661 14.0689 105.236 14.5825 106.537 15.4729ZM114.687 18.8973C117.735 18.8973 120.269 21.4656 120.269 24.6504C120.269 27.8008 117.701 30.5061 114.687 30.5061C111.503 30.5061 108.866 27.8351 108.866 24.6504C108.866 21.4656 111.503 18.8973 114.687 18.8973ZM114.653 27.6639C115.989 27.6639 117.119 26.3968 117.119 24.6846C117.119 22.9724 115.989 21.8766 114.653 21.8766C113.215 21.8766 112.016 22.9381 112.016 24.6846C112.016 26.3626 113.215 27.6639 114.653 27.6639ZM122.187 28.7254V20.6438C122.187 19.7534 122.872 19.0343 123.762 19.0343C124.618 19.0343 125.337 19.7534 125.337 20.6438V28.7254C125.337 29.6158 124.618 30.3349 123.762 30.3349C122.906 30.3349 122.187 29.5815 122.187 28.7254ZM121.947 15.9866C121.947 14.925 122.769 14.1031 123.762 14.1031C124.789 14.1031 125.611 14.9592 125.611 15.9866C125.611 17.0139 124.789 17.8357 123.762 17.8357C122.735 17.8015 121.947 16.9796 121.947 15.9866ZM131.364 24.3422V28.7254C131.364 29.6158 130.645 30.3349 129.789 30.3349C128.933 30.3349 128.214 29.6158 128.214 28.7254V20.2671C128.214 19.5822 128.762 19.0343 129.447 19.0343C130.131 19.0343 130.645 19.6164 130.645 20.2671C131.912 19.0685 133.042 18.8973 134.104 18.8973C137.254 18.8973 138.658 21.2602 138.658 23.9655V28.7254C138.658 29.6158 137.939 30.3349 137.083 30.3349C136.227 30.3349 135.508 29.6158 135.508 28.7254V24.3422C135.508 22.9724 135.337 21.8081 133.35 21.8081C131.946 21.8081 131.364 22.9724 131.364 24.3422ZM148.863 26.0201C148.486 26.0201 148.247 25.8489 148.041 25.6092L144.377 21.6369V28.7254C144.377 29.6158 143.658 30.3349 142.802 30.3349C141.946 30.3349 141.227 29.6158 141.227 28.7254V14.6853C141.329 14.4456 141.569 14.2743 141.809 14.2743C142.083 14.2743 142.322 14.5141 142.494 14.6853L148.349 21.2602C148.521 21.4656 148.726 21.5684 148.863 21.5684C148.966 21.5684 149.205 21.4656 149.377 21.2602L155.232 14.6853C155.404 14.5141 155.609 14.2743 155.917 14.2743C156.191 14.2743 156.431 14.4456 156.5 14.6853V28.7254C156.5 29.6158 155.815 30.3349 154.924 30.3349C154.068 30.3349 153.349 29.6158 153.349 28.7254V21.6369L149.685 25.6092C149.411 25.8489 149.171 26.0201 148.863 26.0201ZM163.999 27.6639C165.403 27.6639 166.602 26.3968 166.602 24.6846C166.602 22.9724 165.369 21.8423 163.999 21.8423C162.629 21.8423 161.499 23.0066 161.499 24.6846C161.499 26.3283 162.595 27.6639 163.999 27.6639ZM167.355 29.1021L167.286 28.7254C166.67 29.924 164.718 30.4719 163.485 30.4719C160.54 30.4719 158.349 27.8008 158.349 24.6161C158.349 21.4656 160.575 18.8631 163.657 18.8631C164.17 18.8631 165.951 19 167.321 20.6095L167.389 20.2328C167.389 19.548 167.903 19.0001 168.588 19.0001C169.273 19.0001 169.821 19.5822 169.821 20.2328V29.0679C169.821 29.7528 169.273 30.3007 168.588 30.3007C167.869 30.3349 167.355 29.7528 167.355 29.1021ZM178.484 21.8081H178.142C176.156 21.9108 175.779 23.0409 175.779 24.3422V28.7254C175.779 29.6158 175.06 30.3349 174.204 30.3349C173.348 30.3349 172.629 29.6158 172.629 28.7254V20.2671C172.629 19.5822 173.176 19.0343 173.861 19.0343C174.546 19.0343 175.06 19.6164 175.06 20.2671C176.224 19.1713 177.183 18.9316 178.142 18.8973H178.45C179.203 18.8973 179.888 19.548 179.888 20.3698C179.923 21.1232 179.238 21.8081 178.484 21.8081ZM190.641 27.972C190.778 28.2118 190.881 28.4515 190.881 28.7254C190.881 29.5473 190.127 30.3007 189.306 30.3007C188.758 30.3007 188.278 29.8897 187.902 29.4103L184.272 25.1983V28.6912C184.272 29.5815 183.553 30.3007 182.696 30.3007C181.84 30.3007 181.121 29.5815 181.121 28.6912V15.8496C181.121 14.9592 181.806 14.2401 182.696 14.2401C183.587 14.2401 184.272 14.9592 184.272 15.8496V23.8627L187.902 19.8562C188.278 19.4452 188.723 19.0001 189.271 19.0001C190.059 19.0001 190.778 19.7192 190.778 20.541C190.778 20.7808 190.71 21.0547 190.573 21.2602L187.696 24.4106L190.641 27.972ZM196.805 21.8423C195.949 21.8423 194.545 22.2875 194.545 23.623H199.099C199.065 22.2875 197.627 21.8423 196.805 21.8423ZM200.914 25.6434H194.545C194.545 27.5269 196.36 27.8351 197.147 27.8351C197.73 27.8351 198.551 27.7323 199.202 27.4241C199.408 27.2872 199.716 27.1844 200.024 27.1844C200.709 27.1844 201.291 27.7666 201.291 28.4857C201.291 28.9651 200.983 29.3761 200.606 29.6158C199.647 30.3349 198.38 30.5061 197.182 30.5061C193.997 30.5061 191.36 28.7939 191.36 24.7873C191.36 21.6369 192.97 18.8973 196.737 18.8973C199.784 18.8973 202.079 20.8835 202.147 24.4106C202.147 25.0613 201.599 25.6434 200.914 25.6434ZM209.681 30.4719H208.825C206.428 30.4719 205.024 29.4103 205.024 25.6777V21.8081H204.202C203.448 21.8081 202.798 21.1232 202.798 20.3698C202.798 19.548 203.483 18.8973 204.202 18.8973H205.024V15.9181C205.024 15.0277 205.709 14.3086 206.599 14.3086C207.455 14.3086 208.174 15.0277 208.174 15.9181V18.8973H209.475C210.229 18.8973 210.879 19.548 210.879 20.3698C210.879 21.1232 210.195 21.8081 209.475 21.8081H208.174V25.0613C208.174 27.2187 208.277 27.6639 209.236 27.6639H209.681C210.434 27.6639 211.085 28.2803 211.085 29.0679C211.085 29.8212 210.434 30.4719 209.681 30.4719ZM224.92 15.4729C225.331 15.7126 225.707 16.2947 225.707 16.8084C225.707 17.6303 225.022 18.3152 224.235 18.3152C224.029 18.3152 223.858 18.2467 223.687 18.2124C222.762 17.5275 221.598 17.0824 220.365 17.0824C217.454 17.0824 215.468 19.4452 215.468 22.3902C215.468 25.3352 217.489 27.6639 220.365 27.6639C221.803 27.6639 223.105 27.0817 224.063 26.1571C224.303 25.9859 224.611 25.8831 224.92 25.8831C225.707 25.8831 226.324 26.4995 226.324 27.2872C226.324 27.8008 226.015 28.246 225.639 28.4857C224.235 29.6843 222.351 30.4719 220.399 30.4719C215.948 30.4719 212.318 26.8077 212.318 22.2875C212.318 17.7673 215.948 14.1031 220.399 14.1031C222.043 14.0689 223.653 14.5825 224.92 15.4729ZM232.898 27.6639C234.303 27.6639 235.501 26.3968 235.501 24.6846C235.501 22.9724 234.268 21.8423 232.898 21.8423C231.494 21.8423 230.399 23.0066 230.399 24.6846C230.399 26.3283 231.529 27.6639 232.898 27.6639ZM236.254 29.1021L236.186 28.7254C235.57 29.924 233.618 30.4719 232.385 30.4719C229.44 30.4719 227.248 27.8008 227.248 24.6161C227.248 21.4656 229.474 18.8631 232.556 18.8631C233.07 18.8631 234.85 19 236.22 20.6095L236.289 20.2328C236.289 19.548 236.802 19.0001 237.487 19.0001C238.172 19.0001 238.72 19.5822 238.72 20.2328V29.0679C238.72 29.7528 238.172 30.3007 237.487 30.3007C236.768 30.3349 236.254 29.7528 236.254 29.1021ZM247.315 27.6639C248.719 27.6639 249.815 26.3283 249.815 24.6846C249.815 22.9724 248.685 21.8423 247.315 21.8423C245.911 21.8423 244.713 22.9724 244.713 24.6846C244.713 26.3968 245.911 27.6639 247.315 27.6639ZM244.713 29.5473V33.5539C244.713 34.4442 243.994 35.1633 243.138 35.1633C242.281 35.1633 241.562 34.4442 241.562 33.5539V20.2671C241.562 19.5822 242.11 19.0343 242.795 19.0343C243.48 19.0343 243.994 19.6164 243.994 20.4041C245.158 19.2055 246.596 18.8973 247.692 18.8973C250.74 18.8973 253 21.4656 253 24.6504C253 27.8008 250.842 30.5061 247.863 30.5061C246.939 30.4719 245.569 30.1979 244.713 29.5473Z" fill="#B9C5C2"/>
</svg>
