<svg width="301" height="50" viewBox="0 0 301 50" fill="none" xmlns="http://www.w3.org/2000/svg">
    <path d="M85.8552 15.1146C85.7983 14.957 85.7343 14.8079 85.6597 14.6672C85.7592 14.8265 85.8232 14.9773 85.8552 15.1146Z" fill="#B9C5C2"/>
    <path d="M133.477 19.9492C132.953 18.0085 131.635 16.589 129.043 16.589C125.233 16.589 123.639 19.7828 123.639 23.0258C123.639 26.2688 125.233 29.4626 129.043 29.4626C131.808 29.4626 133.327 27.4981 133.575 25.0378H136.613C136.365 29.0839 133.35 31.877 129.042 31.877C123.713 31.877 120.525 27.8546 120.525 23.0275C120.525 18.2003 123.713 14.178 129.042 14.178C133.052 14.2017 136.215 16.3072 136.588 19.9509H133.477V19.9492Z" fill="#B9C5C2"/>
    <path d="M138.459 25.3435C138.459 21.6047 140.825 18.9067 144.959 18.9067C149.092 18.9067 151.458 21.6047 151.458 25.3435C151.458 29.1061 149.092 31.8041 144.959 31.8041C140.825 31.8041 138.459 29.1061 138.459 25.3435ZM148.62 25.3435C148.62 23.2381 147.5 21.0376 144.959 21.0376C142.418 21.0376 141.297 23.2381 141.297 25.3435C141.297 27.4727 142.418 29.6732 144.959 29.6732C147.5 29.6749 148.62 27.4727 148.62 25.3435Z" fill="#B9C5C2"/>
    <path d="M153.901 14.5771H156.741V17.1325H153.901V14.5771ZM153.901 19.2396H156.741V31.4731H153.901V19.2396Z" fill="#B9C5C2"/>
    <path d="M159.829 19.2395H162.518V21.0376L162.568 21.0852C163.415 19.737 164.884 18.9084 166.578 18.9084C169.368 18.9084 171.135 20.3279 171.135 23.0734V31.473H168.296V23.7831C168.246 21.8662 167.449 21.0376 165.78 21.0376C163.887 21.0376 162.667 22.4571 162.667 24.2552V31.473H159.829V19.2395Z" fill="#B9C5C2"/>
    <path d="M190.039 31.4731H188.046L187.573 29.4849C185.904 31.283 184.385 31.8755 182.219 31.8755C176.89 31.8755 173.702 27.8532 173.702 23.026C173.702 18.1989 176.89 14.1765 182.219 14.1765C186.104 14.1765 189.367 16.141 189.84 19.9494H186.802C186.504 17.7251 184.461 16.5892 182.22 16.5892C178.41 16.5892 176.816 19.783 176.816 23.026C176.816 26.269 178.41 29.4628 182.22 29.4628C185.409 29.5103 187.151 27.6885 187.201 24.8241H182.469V22.5761H190.041V31.4731H190.039Z" fill="#B9C5C2"/>
    <path d="M195.244 26.0532C195.244 27.9702 196.34 29.6732 198.706 29.6732C200.35 29.6732 201.345 28.9872 201.844 27.6374H204.533C203.911 30.3116 201.52 31.8024 198.706 31.8024C194.671 31.8024 192.405 29.1281 192.405 25.3656C192.405 21.8866 194.796 18.905 198.631 18.905C202.691 18.905 205.18 22.384 204.706 26.0515H195.244V26.0532ZM201.869 24.2789C201.769 22.5759 200.548 21.0376 198.631 21.0376C196.663 21.0376 195.317 22.4571 195.244 24.2789H201.869Z" fill="#B9C5C2"/>
    <path d="M215.566 23.3332C215.343 21.8424 214.196 21.0376 212.628 21.0376C211.159 21.0376 209.092 21.7711 209.092 25.4862C209.092 27.5219 210.039 29.6749 212.503 29.6749C214.147 29.6749 215.293 28.6341 215.566 26.8818H218.406C217.882 30.0535 215.816 31.8041 212.503 31.8041C208.468 31.8041 206.252 29.0823 206.252 25.4862C206.252 21.7949 208.37 18.9084 212.603 18.9084C215.591 18.9084 218.132 20.3279 218.406 23.3332H215.566Z" fill="#B9C5C2"/>
    <path d="M220.797 14.5771H223.636V24.1839L228.767 19.2379H232.254L227.323 23.734L232.727 31.4714H229.266L225.331 25.5321L223.636 27.0941V31.4714H220.797V14.5771Z" fill="#B9C5C2"/>
    <path d="M233.499 25.3435C233.499 21.6047 235.865 18.9067 240 18.9067C244.134 18.9067 246.5 21.6047 246.5 25.3435C246.5 29.1061 244.134 31.8041 240 31.8041C235.865 31.8041 233.499 29.1061 233.499 25.3435ZM243.66 25.3435C243.66 23.2381 242.54 21.0376 239.998 21.0376C237.457 21.0376 236.337 23.2381 236.337 25.3435C236.337 27.4727 237.457 29.6732 239.998 29.6732C242.54 29.6749 243.66 27.4727 243.66 25.3435Z" fill="#B9C5C2"/>
    <path d="M79.028 0.635741C64.8658 0.696866 53.4377 11.6518 53.5003 25.1094C53.5646 38.5654 65.0981 49.4235 79.2586 49.3641C93.4208 49.303 104.849 38.3463 104.786 24.8921C104.722 11.4345 93.1903 0.576314 79.028 0.635741ZM75.781 23.8037C73.2488 23.8037 71.1955 21.8545 71.1955 19.4486C71.1955 17.0443 73.2488 15.0935 75.781 15.0935C78.3114 15.0935 80.3647 17.0443 80.3647 19.4486C80.3665 21.8545 78.3132 23.8037 75.781 23.8037ZM79.4373 28.5137L79.4605 28.4866L79.4855 28.4594C80.7936 29.2608 82.2876 29.5444 83.7798 29.5851C85.2737 29.6225 86.7963 29.5155 88.2938 29.2286C89.7896 28.9331 91.2603 28.4968 92.681 27.9398C93.478 27.6274 94.2715 27.2861 95.0274 26.8854C95.0327 26.882 95.0363 26.8803 95.0417 26.8769C95.5117 26.6087 95.9709 26.3251 96.423 26.0331C96.5213 25.9669 96.616 25.8973 96.709 25.8259L96.7197 25.8378L96.759 25.882C95.6064 26.8786 94.2339 27.6189 92.8365 28.2726C91.4247 28.9043 89.9522 29.4221 88.4314 29.7957C86.916 30.1675 85.3345 30.4494 83.7333 30.3101C82.1589 30.176 80.4988 29.6513 79.4373 28.5137ZM91.2031 23.8037C91.2013 23.2808 91.6445 22.8597 92.1913 22.8546C92.7417 22.8529 93.1849 23.2723 93.1903 23.7935C93.1921 24.3148 92.7489 24.741 92.2021 24.7427C91.6534 24.7461 91.2067 24.325 91.2031 23.8037ZM83.3491 47.1721C82.3591 40.5791 88.4189 34.1219 91.8357 30.8178C92.6113 30.069 93.8104 29.0367 94.9255 27.9398C99.3609 23.999 100.244 19.2907 91.1656 16.9374C89.4447 16.4637 87.6612 15.793 85.8545 15.1155C85.7973 14.9576 85.733 14.8082 85.6579 14.6673C85.4506 14.3277 85.0879 13.9372 84.5393 13.494C83.3598 12.5211 81.1421 12.5466 79.2282 12.9779C77.1123 12.5041 75.0251 12.336 73.0182 12.7928C64.2403 15.0901 62.8286 19.1582 62.4873 24.0601C62.0226 29.3576 61.751 33.3052 59.6405 37.8149C57.0064 34.2051 55.4535 29.8262 55.432 25.1009C55.3731 12.6586 65.9416 2.52721 79.037 2.47118C92.1324 2.41515 102.796 12.4549 102.855 24.8972C102.908 36.01 94.4787 45.2823 83.3491 47.1721Z" fill="#B9C5C2"/>
    <path d="M79.0046 19.4893C79.0046 21.1821 77.5607 22.5523 75.7808 22.5523C73.9991 22.5523 72.5552 21.1821 72.5552 19.4893C72.5552 17.7965 73.9991 16.4263 75.7808 16.4263C77.5607 16.4246 79.0046 17.7965 79.0046 19.4893Z" fill="#B9C5C2"/>
</svg>
