<svg width="301" height="52" viewBox="0 0 301 52" fill="none" xmlns="http://www.w3.org/2000/svg">
    <mask id="mask0_376_587" style="mask-type:luminance" maskUnits="userSpaceOnUse" x="53" y="4" width="195" height="44">
        <path d="M53.5 4.72681H247.5V47.2732H53.5V4.72681Z" fill="black"/>
    </mask>
    <g mask="url(#mask0_376_587)">
        <path fill-rule="evenodd" clip-rule="evenodd" d="M214.106 17.3714H219.616V12.0938H214.106V17.3714ZM184.822 26.1604C185.875 23.4863 188.571 21.5823 191.732 21.5823C194.893 21.5823 197.588 23.4863 198.642 26.1604H184.822ZM191.732 16.6754C184.826 16.6754 179.225 22.0391 179.225 28.6558C179.225 35.2725 184.826 40.6354 191.732 40.6354C196.471 40.6354 200.594 38.1113 202.716 34.3907L198.095 32.2431C196.811 34.3285 194.442 35.7285 191.732 35.7285C188.307 35.7285 185.428 33.4952 184.593 30.4662H198.87C198.869 30.4685 198.869 30.4715 198.868 30.4742H204.097C204.192 29.881 204.24 29.2737 204.24 28.6558C204.24 22.0391 198.64 16.6754 191.732 16.6754ZM205.693 39.9967H211.202V34.7191H205.693V39.9967ZM214.106 39.9967H219.616V19.6916H214.106V39.9967ZM234.994 35.7285C230.916 35.7285 227.61 32.5618 227.61 28.6558C227.61 24.749 230.916 21.5823 234.994 21.5823C239.072 21.5823 242.377 24.749 242.377 28.6558C242.377 32.5618 239.072 35.7285 234.994 35.7285ZM234.991 16.6754C228.085 16.6754 222.485 22.0391 222.485 28.6558C222.485 35.2725 228.085 40.6354 234.991 40.6354C241.9 40.6354 247.5 35.2725 247.5 28.6558C247.5 22.0391 241.9 16.6754 234.991 16.6754ZM119.8 24.2397V29.6965H127.504C127.101 31.2558 126.306 32.6531 125.166 33.7693C123.446 35.4531 121.061 36.3808 118.45 36.3808C113.032 36.3808 108.624 32.1584 108.624 26.9681C108.624 21.7778 113.032 17.555 118.45 17.555C121.352 17.555 124.02 18.7449 125.869 20.7972L130.28 17.3449C127.356 14.0622 123.017 12.0977 118.45 12.0977C109.891 12.0977 102.927 18.7687 102.927 26.9681C102.927 35.1675 109.891 41.8381 118.45 41.8381C122.606 41.8381 126.437 40.4037 129.238 37.662C131.588 35.3608 133.146 32.1509 133.445 28.9352C133.591 27.3666 133.605 25.8087 133.519 24.2397H119.8ZM147.863 35.7298C143.785 35.7298 140.479 32.5622 140.479 28.6558C140.479 24.7486 143.785 21.5819 147.863 21.5819C151.941 21.5819 155.248 24.7486 155.248 28.6558C155.248 32.5622 151.941 35.7298 147.863 35.7298ZM155.249 19.0101C153.178 17.5563 150.626 16.6957 147.863 16.6957C140.957 16.6957 135.358 22.059 135.358 28.6744C135.358 35.2906 140.957 40.653 147.863 40.653C150.626 40.653 153.178 39.7928 155.249 38.339V39.9967H160.368V17.3524H155.249V19.0101ZM171.357 12.0942H166.238V17.3714H163.169V21.9998H166.238V34.1122C166.238 35.363 166.402 36.4152 166.727 37.241C167.048 38.0579 167.538 38.6974 168.121 39.197C168.711 39.7041 169.404 40.0991 170.226 40.3233C171.061 40.5484 171.982 40.6354 172.955 40.6354C173.963 40.6354 174.861 40.5352 175.628 40.337C176.34 40.1539 177.022 39.8948 177.657 39.5655V35.8361C176.647 36.2545 175.703 36.4059 174.626 36.454C173.489 36.5052 172.816 36.1941 172.256 35.683C171.67 35.1476 171.357 34.4499 171.357 33.2794V21.9998H177.657V17.3714H171.357V12.0942Z" fill="#B9C5C2"/>
    </g>
    <mask id="mask1_376_587" style="mask-type:luminance" maskUnits="userSpaceOnUse" x="53" y="4" width="195" height="44">
        <path d="M53.5 4.72681H247.5V47.2732H53.5V4.72681Z" fill="#2354E6"/>
    </mask>
    <g mask="url(#mask1_376_587)">
        <path fill-rule="evenodd" clip-rule="evenodd" d="M75.7082 37.7002C68.9625 37.7002 63.4939 32.4623 63.4939 26C63.4939 19.5383 68.9625 14.2994 75.7082 14.2994V4.72656C63.4428 4.72656 53.5 14.2509 53.5 26C53.5 37.7488 63.4428 47.2731 75.7082 47.2731C87.9731 47.2731 97.9164 37.7488 97.9164 26H87.9224C87.9224 32.4623 82.4539 37.7002 75.7082 37.7002Z" fill="#B9C5C2"/>
    </g>
    <mask id="mask2_376_587" style="mask-type:luminance" maskUnits="userSpaceOnUse" x="53" y="4" width="195" height="44">
        <path d="M53.5 4.72681H247.5V47.2732H53.5V4.72681Z" fill="#17E6A1"/>
    </mask>
    <g mask="url(#mask2_376_587)">
        <path fill-rule="evenodd" clip-rule="evenodd" d="M75.708 26H87.9223V14.2998H75.708V26Z" fill="#B9C5C2"/>
    </g>
</svg>
