<svg width="301" height="60" viewBox="0 0 301 60" fill="none" xmlns="http://www.w3.org/2000/svg">
    <path d="M193.121 29.6998C193.121 28.8383 193.121 27.9767 193.121 27.2382C193.121 26.4997 192.998 25.7612 192.875 25.1458C192.752 24.5303 192.506 23.9149 192.26 23.2995C192.014 22.6841 191.521 22.1918 191.029 21.6994C190.291 20.9609 189.552 20.4686 188.567 19.9763C187.583 19.607 186.598 19.3608 185.49 19.3608C184.383 19.3608 183.398 19.4839 182.413 19.9763C181.552 20.3455 180.69 20.9609 179.952 21.5763C179.459 22.0687 179.09 22.561 178.721 23.1764C178.475 23.7918 178.228 24.4073 178.105 25.0227C177.982 25.7612 177.859 26.4997 177.859 27.1151C177.859 27.8536 177.859 28.7152 177.859 29.5768C177.859 30.4383 177.859 31.2999 177.859 32.0384C177.859 32.7769 177.982 33.5154 178.105 34.1308C178.228 34.7463 178.475 35.3617 178.721 35.9771C178.967 36.5925 179.459 37.0848 179.952 37.5772C180.69 38.3157 181.429 38.808 182.413 39.1773C183.398 39.5465 184.506 39.7927 185.49 39.7927C186.598 39.7927 187.583 39.6696 188.567 39.1773C189.429 38.808 190.291 38.1926 191.029 37.5772C191.521 37.0848 191.891 36.5925 192.26 35.9771C192.506 35.3617 192.752 34.7463 192.875 34.1308C192.998 33.3923 193.121 32.6538 193.121 32.0384C193.121 31.423 193.245 30.5614 193.121 29.6998ZM189.183 29.6998C189.183 30.6845 189.183 31.5461 189.183 32.1615C189.183 32.6538 189.06 33.2693 189.06 33.7616C189.06 34.1308 188.937 34.5001 188.69 34.7463C188.567 34.9924 188.444 35.2386 188.198 35.4848C187.952 35.854 187.583 36.1002 187.09 36.2233C186.598 36.4694 186.106 36.4694 185.613 36.4694C185.121 36.4694 184.629 36.3463 184.136 36.2233C183.767 36.1002 183.275 35.7309 183.029 35.4848C182.782 35.2386 182.659 34.9924 182.536 34.7463C182.413 34.377 182.29 34.1308 182.29 33.7616C182.167 33.2693 182.167 32.6538 182.167 32.1615C182.167 31.5461 182.167 30.6845 182.167 29.6998C182.167 28.7152 182.167 27.8536 182.167 27.2382C182.167 26.7458 182.29 26.1304 182.29 25.6381C182.29 25.2688 182.413 24.8996 182.536 24.6534C182.659 24.4073 182.782 24.1611 183.029 23.9149C183.275 23.5457 183.767 23.2995 184.136 23.1764C184.629 22.9303 185.121 22.9303 185.613 22.9303C186.106 22.9303 186.598 23.0533 187.09 23.1764C187.46 23.2995 187.829 23.6688 188.198 23.9149C188.444 24.1611 188.567 24.4073 188.69 24.6534C188.814 25.0227 188.937 25.2688 189.06 25.6381C189.183 26.1304 189.183 26.7458 189.183 27.2382C189.183 27.9767 189.183 28.7152 189.183 29.6998Z" fill="#B9C5C2"/>
    <path d="M224.877 19.8534C224.877 19.6072 224.754 19.4841 224.508 19.4841H221.308C221.061 19.4841 220.938 19.6072 220.938 19.8534V32.0386L212.938 19.6072C212.938 19.4841 212.815 19.4841 212.692 19.4841H209.615C209.368 19.4841 209.245 19.6072 209.245 19.8534V39.5467C209.245 39.7929 209.368 39.916 209.615 39.916H212.938C213.184 39.916 213.307 39.7929 213.307 39.5467V27.3615L221.308 39.7929C221.308 39.916 221.431 39.916 221.554 39.916H224.631C224.877 39.916 225 39.7929 225 39.5467L224.877 19.8534Z" fill="#B9C5C2"/>
    <path d="M202.845 19.8534C202.845 19.6072 202.722 19.4841 202.476 19.4841H199.152C198.906 19.4841 198.783 19.6072 198.783 19.8534V39.5467C198.783 39.7929 198.906 39.916 199.152 39.916H202.476C202.722 39.916 202.845 39.7929 202.845 39.5467V19.8534Z" fill="#B9C5C2"/>
    <path d="M163.582 29.7001C163.582 28.7155 163.582 27.8539 163.582 27.2385C163.582 26.7461 163.705 26.1307 163.705 25.6384C163.951 23.9152 165.305 22.8075 167.028 22.8075C168.136 22.8075 169.12 23.1767 169.859 24.1614C170.105 24.6537 170.351 25.146 170.474 25.6384C170.474 25.6384 170.474 25.7615 170.597 25.7615H174.536C174.536 25.7615 174.659 25.7615 174.659 25.6384C174.29 23.2998 172.936 21.0843 170.72 19.9765C169.613 19.4842 168.382 19.238 167.151 19.238C164.935 19.238 163.089 19.9765 161.612 21.4535C160.751 22.3151 160.135 23.2998 159.889 24.5306C159.643 25.6384 159.52 27.3615 159.52 29.577C159.52 31.7925 159.643 33.5157 159.889 34.6235C160.135 35.7312 160.751 36.839 161.489 37.7005C162.966 39.1775 164.812 39.916 167.028 39.916C168.259 39.916 169.49 39.6699 170.597 39.1775C172.813 38.0698 174.167 35.9774 174.536 33.5157C174.536 33.5157 174.536 33.3926 174.413 33.3926H170.597C170.597 33.3926 170.474 33.3926 170.474 33.5157C170.351 34.008 170.105 34.5004 169.859 34.9927C169.243 35.9774 168.136 36.3466 167.028 36.3466C165.305 36.3466 163.951 35.362 163.705 33.5157C163.582 33.0234 163.582 32.408 163.582 31.9156C163.582 31.5464 163.582 30.6848 163.582 29.7001Z" fill="#B9C5C2"/>
    <path d="M122.718 19.8534C122.718 19.6072 122.595 19.4841 122.348 19.4841H119.148C118.902 19.4841 118.779 19.6072 118.779 19.8534V39.5467C118.779 39.7929 118.902 39.916 119.148 39.916H122.472C122.718 39.916 122.841 39.7929 122.841 39.5467V33.7618L125.426 30.5616L130.841 39.7929C130.841 39.916 130.964 39.916 131.087 39.916H135.026C135.149 39.916 135.272 39.7929 135.149 39.6698L128.01 27.6076L134.534 19.8534C134.657 19.7303 134.657 19.4841 134.411 19.4841H130.103C130.103 19.4841 129.98 19.4841 129.98 19.6072L122.841 28.223V19.8534H122.718Z" fill="#B9C5C2"/>
    <path d="M146.719 36.5927C144.873 36.5927 143.15 34.8695 143.15 32.9002V19.8534C143.15 19.6072 143.027 19.4841 142.78 19.4841H139.457C139.211 19.4841 139.088 19.6072 139.088 19.8534V32.7771C139.088 37.3312 142.411 40.1621 146.596 40.1621C150.781 40.1621 154.104 37.3312 154.104 32.7771V19.8534C154.104 19.6072 153.981 19.4841 153.735 19.4841H150.412C150.165 19.4841 150.042 19.6072 150.042 19.8534V32.7771C150.165 34.8695 148.565 36.5927 146.719 36.5927Z" fill="#B9C5C2"/>
    <path fill-rule="evenodd" clip-rule="evenodd" d="M85.7928 29.6999L96.0087 39.9158L102.409 33.5155C103.517 32.5308 105.363 32.5308 106.471 33.6386C107.579 34.7463 107.579 36.4695 106.594 37.7003L97.978 46.07C96.8703 47.1777 95.024 47.1777 93.9163 46.07L81.608 33.7617V41.1467C81.608 42.7467 80.254 44.1007 78.654 44.1007C77.0539 44.1007 75.7 42.7467 75.7 41.1467V18.3763C75.7 16.7762 77.0539 15.4222 78.654 15.4222C80.254 15.4222 81.608 16.7762 81.608 18.3763V25.6382L93.9163 13.3298C95.024 12.2221 96.8703 12.2221 97.978 13.3298L106.471 21.8226C107.455 22.9303 107.455 24.7766 106.348 25.8843C105.24 26.9921 103.517 26.9921 102.286 26.0074L95.8856 19.6071L85.7928 29.6999ZM96.0087 26.869C94.7779 26.869 93.7932 27.6075 93.3009 28.7153C92.8085 29.823 93.0547 31.0538 93.9163 31.9154C94.7779 32.777 96.0087 33.0232 97.1164 32.5308C98.2242 32.0385 98.9627 31.0538 98.9627 29.823C98.9627 29.0845 98.7165 28.346 98.1011 27.7306C97.4857 27.1152 96.7472 26.869 96.0087 26.869Z" fill="#B9C5C2"/>
</svg>
