<svg width="301" height="50" viewBox="0 0 301 50" fill="none" xmlns="http://www.w3.org/2000/svg">
    <path d="M121.571 31.6168L109.797 11.1939C107.216 6.93721 100.922 6.89193 98.431 11.375L86.0686 32.6131C83.7591 36.5074 86.6119 41.398 91.2309 41.398H116.001C120.665 41.398 124.152 36.3715 121.571 31.6168Z" fill="#B9C5C2"/>
    <path d="M104.589 33.2017L103.865 31.9338C103.186 30.7564 101.691 28.2205 101.691 28.2205L91.7289 10.9222C89.1477 7.0731 83.0345 6.75612 80.4533 11.6015L68.8607 31.6621C66.4607 35.8734 69.3136 41.3527 74.5212 41.3981H99.1554H109.661H115.91C109.525 41.4434 107.488 38.1376 104.589 33.2017Z" fill="#B9C5C2"/>
    <path d="M104.589 33.2017L103.865 31.9339C103.186 30.7565 101.691 28.2206 101.691 28.2206L95.261 16.8997L86.0231 32.6584C83.7138 36.5527 86.5666 41.4433 91.1856 41.4433H99.1101H109.616H115.91C109.48 41.3981 107.488 38.1377 104.589 33.2017Z" fill="#B9C5C2"/>
    <path d="M161.539 39.5859V15.9932H181.146V17.4875C181.146 18.6649 180.195 19.6158 179.018 19.6158H166.429V25.9555H179.018V29.5783H166.429V35.9179H179.018C180.195 35.9179 181.146 36.8688 181.146 38.0462V39.5407L161.539 39.5859Z" fill="#B9C5C2"/>
    <path d="M209.313 15.9932H204.694C203.834 15.9932 203.064 16.3554 202.52 17.0347L196.951 24.0536L191.381 17.08C190.837 16.4007 190.067 16.0384 189.207 16.0384H184.588L193.962 27.8122L184.588 39.5859H189.207C190.067 39.5859 190.837 39.2237 191.381 38.5444L196.951 31.5707L202.566 38.5897C203.109 39.2237 203.879 39.6312 204.739 39.6312H209.358L199.985 27.8574L209.313 15.9932Z" fill="#B9C5C2"/>
    <path d="M146.188 37.0969L152.618 25.8666V39.5422H157.509V15.9495H154.475C153.524 15.9495 152.618 16.4476 152.165 17.308L144.467 31.3458L136.769 17.308C136.316 16.4476 135.41 15.9495 134.459 15.9495H131.425V39.5422H136.316V25.8666L142.746 37.0969H146.188Z" fill="#B9C5C2"/>
    <path d="M222.083 39.858C215.29 39.9485 209.766 34.605 209.72 27.8125C209.72 24.0993 210.852 21.02 212.981 18.8917C215.109 16.8086 218.188 15.6765 221.856 15.6765C226.158 15.6765 229.555 17.1709 232 20.069L230.46 21.3823C229.509 22.1974 228.106 22.2426 227.064 21.4728C225.706 20.4313 223.985 19.9332 222.038 19.9332C217.237 19.9332 214.385 22.8313 214.385 27.722C214.385 32.6578 217.328 35.6919 222.038 35.6919C224.03 35.6919 225.706 35.1485 227.064 34.1523C228.06 33.3823 229.464 33.4278 230.46 34.2428L232 35.556C229.555 38.4089 226.294 39.858 222.083 39.858Z" fill="#B9C5C2"/>
</svg>
