<svg width="301" height="42" viewBox="0 0 301 42" fill="none" xmlns="http://www.w3.org/2000/svg">
    <g clip-path="url(#clip0_376_588)">
        <path d="M121.766 3H81.9265C81.6808 3 81.4451 3.08662 81.2714 3.24081C81.0976 3.395 81 3.60413 81 3.82219V39.1763C81 39.3944 81.0976 39.6038 81.2714 39.758C81.4451 39.912 81.6808 39.9985 81.9265 39.9985H121.766C122.012 39.9985 122.247 39.912 122.421 39.758C122.595 39.6038 122.693 39.3944 122.693 39.1763V3.82219C122.693 3.60413 122.595 3.395 122.421 3.24081C122.247 3.08662 122.012 3 121.766 3ZM108.795 26.8436C108.795 27.0617 108.697 27.2708 108.524 27.425C108.35 27.5792 108.114 27.6658 107.869 27.6658H95.824C95.5783 27.6658 95.3427 27.5792 95.1689 27.425C94.9951 27.2708 94.8975 27.0617 94.8975 26.8436V16.1551C94.8975 15.937 94.9951 15.7279 95.1689 15.5737C95.3427 15.4195 95.5783 15.3329 95.824 15.3329H107.869C108.114 15.3329 108.35 15.4195 108.524 15.5737C108.697 15.7279 108.795 15.937 108.795 16.1551V26.8436Z" fill="#B9C5C2"/>
        <path d="M205.168 15.3345H193.124C192.612 15.3345 192.197 15.7026 192.197 16.1567V26.8452C192.197 27.2992 192.612 27.6674 193.124 27.6674H205.168C205.68 27.6674 206.095 27.2992 206.095 26.8452V16.1567C206.095 15.7026 205.68 15.3345 205.168 15.3345Z" fill="#B9C5C2"/>
        <path d="M191.274 3.00049H179.23C178.718 3.00049 178.303 3.3686 178.303 3.82268V14.5112C178.303 14.9653 178.718 15.3334 179.23 15.3334H191.274C191.786 15.3334 192.201 14.9653 192.201 14.5112V3.82268C192.201 3.3686 191.786 3.00049 191.274 3.00049Z" fill="#B9C5C2"/>
        <path d="M219.073 3.00049H207.029C206.517 3.00049 206.102 3.3686 206.102 3.82268V14.5112C206.102 14.9653 206.517 15.3334 207.029 15.3334H219.073C219.585 15.3334 220 14.9653 220 14.5112V3.82268C220 3.3686 219.585 3.00049 219.073 3.00049Z" fill="#B9C5C2"/>
        <path d="M191.274 27.667H179.23C178.718 27.667 178.303 28.0351 178.303 28.4892V39.1778C178.303 39.6318 178.718 40 179.23 40H191.274C191.786 40 192.201 39.6318 192.201 39.1778V28.4892C192.201 28.0351 191.786 27.667 191.274 27.667Z" fill="#B9C5C2"/>
        <path d="M219.073 27.667H207.029C206.517 27.667 206.102 28.0351 206.102 28.4892V39.1778C206.102 39.6318 206.517 40 207.029 40H219.073C219.585 40 220 39.6318 220 39.1778V28.4892C220 28.0351 219.585 27.667 219.073 27.667Z" fill="#B9C5C2"/>
        <path d="M170.411 3.00049H158.367C157.855 3.00049 157.44 3.3686 157.44 3.82268V14.5112C157.44 14.9653 157.855 15.3334 158.367 15.3334H170.411C170.923 15.3334 171.338 14.9653 171.338 14.5112V3.82268C171.338 3.3686 170.923 3.00049 170.411 3.00049Z" fill="#B9C5C2"/>
        <path d="M170.411 27.667H158.367C157.855 27.667 157.44 28.0351 157.44 28.4892V39.1778C157.44 39.6318 157.855 40 158.367 40H170.411C170.923 40 171.338 39.6318 171.338 39.1778V28.4892C171.338 28.0351 170.923 27.667 170.411 27.667Z" fill="#B9C5C2"/>
        <path d="M157.436 16.1458C157.436 15.9278 157.338 15.7186 157.165 15.5645C156.991 15.4103 156.755 15.3236 156.509 15.3236H143.538V3.82219C143.538 3.60413 143.441 3.395 143.267 3.24081C143.093 3.08662 142.857 3 142.612 3H130.567C130.321 3 130.086 3.08662 129.912 3.24081C129.738 3.395 129.641 3.60413 129.641 3.82219V39.158C129.641 39.3761 129.738 39.5851 129.912 39.7394C130.086 39.8936 130.321 39.9802 130.567 39.9802H142.612C142.857 39.9802 143.093 39.8936 143.267 39.7394C143.441 39.5851 143.538 39.3761 143.538 39.158V27.6565H156.509C156.755 27.6565 156.991 27.5699 157.165 27.4157C157.338 27.2615 157.436 27.0524 157.436 26.8343V16.1458Z" fill="#B9C5C2"/>
    </g>
    <defs>
        <clipPath id="clip0_376_588">
            <rect width="139" height="37" fill="white" transform="translate(81 3)"/>
        </clipPath>
    </defs>
</svg>
