<svg width="25" height="24" viewBox="0 0 25 24" fill="none" xmlns="http://www.w3.org/2000/svg">
    <path fill-rule="evenodd" clip-rule="evenodd" d="M12.5 24C5.88317 24 0.5 18.6168 0.5 12C0.5 5.38317 5.88317 0 12.5 0C19.1168 0 24.5 5.38317 24.5 12C24.5 18.6168 19.1168 24 12.5 24ZM18.723 16.2155C18.871 16.2155 18.9914 16.0951 18.9914 15.9472V8.41355L12.8859 13.2619C12.773 13.3517 12.6364 13.3965 12.5 13.3965C12.3635 13.3965 12.227 13.3516 12.114 13.2619L6.00856 8.41355V15.9472C6.00856 16.0951 6.12898 16.2155 6.27692 16.2155H18.723ZM17.7874 7.78448L12.5 11.9833L7.21255 7.78448H17.7874ZM20.2328 8.05284V15.9473C20.2328 16.7797 19.5555 17.457 18.723 17.457H6.27692C5.44442 17.457 4.76722 16.7797 4.76722 15.9473V8.05284C4.76722 7.22039 5.44447 6.54314 6.27692 6.54314H18.723C19.5555 6.54309 20.2328 7.22039 20.2328 8.05284Z" fill="#C8B5AB"/>
</svg>
