<svg width="60" height="60" viewBox="0 0 60 60" fill="none" xmlns="http://www.w3.org/2000/svg">
    <rect x="0.5" y="0.5" width="59" height="59" rx="29.5" fill="#110E0B"/>
    <path d="M42.8003 16.0005H17.1997C17.0439 15.9958 16.8887 16.0223 16.7434 16.0787C16.5981 16.135 16.4655 16.2199 16.3536 16.3284C16.2418 16.437 16.1528 16.5668 16.0921 16.7104C16.0313 16.8539 16 17.0082 16 17.1641C16 17.3199 16.0313 17.4742 16.0921 17.6177C16.1528 17.7613 16.2418 17.8912 16.3536 17.9997C16.4655 18.1082 16.5981 18.1931 16.7434 18.2495C16.8887 18.3058 17.0439 18.3323 17.1997 18.3276H42.8003C42.9561 18.3323 43.1113 18.3058 43.2566 18.2495C43.4019 18.1931 43.5345 18.1082 43.6464 17.9997C43.7583 17.8912 43.8472 17.7613 43.908 17.6177C43.9687 17.4742 44 17.3199 44 17.1641C44 17.0082 43.9687 16.8539 43.908 16.7104C43.8472 16.5668 43.7583 16.437 43.6464 16.3284C43.5345 16.2199 43.4019 16.135 43.2566 16.0787C43.1113 16.0223 42.9561 15.9958 42.8003 16.0005Z" fill="#EC6418"/>
    <path d="M30.9465 24.6343C30.8391 24.4834 30.6973 24.3604 30.5327 24.2754C30.3682 24.1904 30.1858 24.1459 30.0007 24.1455C29.8229 24.1455 29.6476 24.1864 29.4881 24.2649C29.3287 24.3434 29.1894 24.4574 29.081 24.5983L22.677 31.0033C22.4588 31.2221 22.3365 31.5185 22.3369 31.8275C22.3373 32.1364 22.4604 32.4325 22.6792 32.6507C22.8979 32.8688 23.1944 32.9912 23.5033 32.9908C23.8123 32.9904 24.1084 32.8672 24.3265 32.6485L28.8388 28.1363L28.8191 42.765C28.819 42.9179 28.849 43.0693 28.9073 43.2106C28.9657 43.3519 29.0513 43.4803 29.1593 43.5885C29.2673 43.6967 29.3956 43.7825 29.5367 43.8412C29.6779 43.8998 29.8292 43.93 29.9821 43.9302C30.2911 43.9302 30.5875 43.8074 30.806 43.5889C31.0245 43.3704 31.1473 43.074 31.1473 42.765L31.1604 28.1384L35.653 32.631C35.8716 32.8493 36.1679 32.9719 36.4769 32.9717C36.7858 32.9715 37.082 32.8486 37.3003 32.63C37.5186 32.4114 37.6412 32.115 37.641 31.806C37.6407 31.4971 37.5178 31.2009 37.2992 30.9826L30.9465 24.6343Z" fill="#EC6418"/>
    <rect x="0.5" y="0.5" width="59" height="59" rx="29.5" stroke="#3D342F"/>
</svg>
