<svg width="122" height="27" viewBox="0 0 122 27" fill="none" xmlns="http://www.w3.org/2000/svg">
<g clip-path="url(#clip0_1791_20367)">
<mask id="mask0_1791_20367" style="mask-type:luminance" maskUnits="userSpaceOnUse" x="0" y="0" width="24" height="27">
<path d="M0.197266 0.5H23.1973V26.5H0.197266V0.5Z" fill="white"/>
</mask>
<g mask="url(#mask0_1791_20367)">
<path fill-rule="evenodd" clip-rule="evenodd" d="M0.197754 23.7894H23.1975V0.5H0.197754V23.7894Z" fill="white"/>
</g>
<mask id="mask1_1791_20367" style="mask-type:luminance" maskUnits="userSpaceOnUse" x="0" y="0" width="24" height="27">
<path d="M0.197266 0.5H23.1973V26.5H0.197266V0.5Z" fill="white"/>
</mask>
<g mask="url(#mask1_1791_20367)">
<path fill-rule="evenodd" clip-rule="evenodd" d="M0.197266 23.7896H23.1973V26.5044H0.197487L0.197266 23.7896Z" fill="#FF322E"/>
</g>
<path fill-rule="evenodd" clip-rule="evenodd" d="M5.49139 6.62866L1.62524 17.9552H4.42444L7.05043 9.94921L8.36661 13.9518H6.66402L5.98408 16.2366H9.11792L9.68301 17.9552H12.5622L8.69652 6.62866H5.49139Z" fill="black"/>
<path fill-rule="evenodd" clip-rule="evenodd" d="M16.9608 6.62866H12.9419V17.9552H15.7211V8.91356H16.841C18.1405 8.91356 18.8803 9.51879 18.8803 10.6124C18.8803 11.6865 18.1405 12.3115 16.841 12.3115H16.6611V14.5963H16.9608C19.9599 14.5963 21.7195 13.1218 21.7195 10.6124C21.7195 8.05422 19.9599 6.62866 16.9608 6.62866Z" fill="black"/>
</g>
<path d="M33.1773 21.5L38.7173 7.5H41.5973L47.0973 21.5H43.6573L41.0173 14.4C40.9106 14.12 40.8039 13.82 40.6973 13.5C40.5906 13.18 40.4839 12.8533 40.3773 12.52C40.2706 12.1733 40.1639 11.84 40.0573 11.52C39.9639 11.1867 39.8839 10.88 39.8173 10.6L40.4173 10.58C40.3373 10.9133 40.2439 11.24 40.1373 11.56C40.0439 11.88 39.9439 12.2 39.8373 12.52C39.7439 12.8267 39.6373 13.14 39.5173 13.46C39.3973 13.7667 39.2839 14.0867 39.1773 14.42L36.5373 21.5H33.1773ZM35.8173 18.82L36.8773 16.26H43.3173L44.3573 18.82H35.8173ZM48.844 21.5V7.5H54.884C55.764 7.5 56.544 7.7 57.224 8.1C57.9173 8.5 58.464 9.04667 58.864 9.74C59.2773 10.4333 59.484 11.2133 59.484 12.08C59.484 12.9867 59.2773 13.8 58.864 14.52C58.464 15.2267 57.9173 15.7867 57.224 16.2C56.544 16.6133 55.764 16.82 54.884 16.82H52.244V21.5H48.844ZM52.184 13.84H54.404C54.6973 13.84 54.964 13.7667 55.204 13.62C55.444 13.4733 55.6373 13.2733 55.784 13.02C55.9307 12.7667 56.004 12.4733 56.004 12.14C56.004 11.7933 55.9307 11.5 55.784 11.26C55.6373 11.02 55.444 10.8333 55.204 10.7C54.964 10.5667 54.6973 10.5 54.404 10.5H52.184V13.84ZM68.4924 21.5V7.5H71.5324L78.8724 17.5L78.2124 17.4C78.1458 16.96 78.0924 16.54 78.0524 16.14C78.0124 15.74 77.9724 15.3467 77.9324 14.96C77.9058 14.5733 77.8791 14.18 77.8524 13.78C77.8391 13.38 77.8258 12.9467 77.8124 12.48C77.8124 12.0133 77.8124 11.5067 77.8124 10.96V7.5H81.1124V21.5H78.0324L70.3724 11.18L71.3924 11.32C71.4591 11.96 71.5124 12.5067 71.5524 12.96C71.6058 13.4 71.6458 13.7933 71.6724 14.14C71.7124 14.4867 71.7391 14.8 71.7524 15.08C71.7658 15.36 71.7724 15.64 71.7724 15.92C71.7858 16.1867 71.7924 16.4867 71.7924 16.82V21.5H68.4924ZM89.3452 21.7C88.1719 21.7 87.1519 21.4667 86.2852 21C85.4186 20.52 84.7452 19.8733 84.2652 19.06C83.7852 18.2333 83.5452 17.2933 83.5452 16.24C83.5452 15.4267 83.6786 14.68 83.9452 14C84.2119 13.32 84.5852 12.7333 85.0652 12.24C85.5452 11.7333 86.1119 11.3467 86.7652 11.08C87.4319 10.8 88.1586 10.66 88.9452 10.66C89.6919 10.66 90.3719 10.7933 90.9852 11.06C91.6119 11.3267 92.1519 11.7 92.6052 12.18C93.0586 12.66 93.4052 13.2267 93.6452 13.88C93.8852 14.5333 93.9919 15.2467 93.9652 16.02L93.9452 16.88H85.4852L85.0252 15.08H91.3452L91.0052 15.46V15.06C90.9786 14.7267 90.8719 14.4333 90.6852 14.18C90.5119 13.9133 90.2786 13.7067 89.9852 13.56C89.6919 13.4133 89.3586 13.34 88.9852 13.34C88.4652 13.34 88.0186 13.4467 87.6452 13.66C87.2852 13.86 87.0119 14.16 86.8252 14.56C86.6386 14.9467 86.5452 15.4267 86.5452 16C86.5452 16.5867 86.6652 17.1 86.9052 17.54C87.1586 17.9667 87.5186 18.3 87.9852 18.54C88.4652 18.78 89.0319 18.9 89.6852 18.9C90.1386 18.9 90.5386 18.8333 90.8852 18.7C91.2452 18.5667 91.6319 18.34 92.0452 18.02L93.5452 20.14C93.1319 20.5 92.6919 20.7933 92.2252 21.02C91.7586 21.2467 91.2786 21.4133 90.7852 21.52C90.3052 21.64 89.8252 21.7 89.3452 21.7ZM98.1287 21.5L94.6287 10.88H98.0087L99.9687 17.78L99.5487 17.7L101.749 12.34H103.629L105.949 17.72L105.489 17.76L107.449 10.88H110.829L107.209 21.5H104.849L102.549 15.8L102.789 15.84L100.489 21.5H98.1287ZM115.971 21.7C114.931 21.7 114.011 21.5333 113.211 21.2C112.424 20.8667 111.797 20.42 111.331 19.86L113.271 18.18C113.684 18.5933 114.151 18.9 114.671 19.1C115.191 19.2867 115.684 19.38 116.151 19.38C116.337 19.38 116.504 19.36 116.651 19.32C116.797 19.28 116.917 19.2267 117.011 19.16C117.117 19.08 117.197 18.9933 117.251 18.9C117.304 18.7933 117.331 18.6733 117.331 18.54C117.331 18.2733 117.211 18.0667 116.971 17.92C116.851 17.8533 116.651 17.7733 116.371 17.68C116.091 17.5867 115.731 17.48 115.291 17.36C114.664 17.2 114.117 17.0133 113.651 16.8C113.197 16.5733 112.824 16.3133 112.531 16.02C112.264 15.74 112.057 15.4333 111.911 15.1C111.764 14.7533 111.691 14.3667 111.691 13.94C111.691 13.4467 111.804 13 112.031 12.6C112.271 12.2 112.584 11.8533 112.971 11.56C113.371 11.2667 113.824 11.0467 114.331 10.9C114.851 10.74 115.384 10.66 115.931 10.66C116.517 10.66 117.077 10.7267 117.611 10.86C118.144 10.9933 118.637 11.18 119.091 11.42C119.557 11.66 119.971 11.9467 120.331 12.28L118.651 14.16C118.411 13.9333 118.137 13.7333 117.831 13.56C117.537 13.3733 117.231 13.2267 116.911 13.12C116.591 13.0133 116.297 12.96 116.031 12.96C115.831 12.96 115.651 12.98 115.491 13.02C115.344 13.0467 115.217 13.1 115.111 13.18C115.004 13.2467 114.924 13.3333 114.871 13.44C114.817 13.5333 114.791 13.6467 114.791 13.78C114.791 13.9133 114.824 14.04 114.891 14.16C114.971 14.28 115.077 14.38 115.211 14.46C115.344 14.54 115.557 14.6333 115.851 14.74C116.144 14.8333 116.544 14.9533 117.051 15.1C117.677 15.2733 118.217 15.4667 118.671 15.68C119.124 15.8933 119.484 16.1467 119.751 16.44C119.964 16.6667 120.124 16.9333 120.231 17.24C120.337 17.5333 120.391 17.8533 120.391 18.2C120.391 18.88 120.197 19.4867 119.811 20.02C119.437 20.54 118.917 20.9533 118.251 21.26C117.584 21.5533 116.824 21.7 115.971 21.7Z" fill="white"/>
<defs>
<clipPath id="clip0_1791_20367">
<rect width="23" height="26" fill="white" transform="translate(0.197266 0.5)"/>
</clipPath>
</defs>
</svg>
