<svg width="250" height="29" viewBox="0 0 250 29" fill="none" xmlns="http://www.w3.org/2000/svg">
<g id="svgexport-2 (1)" clip-path="url(#clip0_1737_1933)">
<path id="Vector" d="M29.5587 28.6549H47.5399V23.8562H35.0091V17.9676H45.3904V13.1709H35.0091V7.72602H47.6187V2.9294H29.5587V28.6549ZM69.1795 19.1349L57.4042 2.9294H49.2893L51.8368 6.19463V28.7346H57.2467V11.8399L69.42 28.6528H74.6299V2.9294H69.1774L69.1795 19.1349ZM21.3651 15.4303C23.7509 14.9866 25.7407 12.7294 25.7407 9.54386C25.7407 6.11709 23.272 2.93155 18.3814 2.93155H2.62842L5.09501 6.11709V28.6959H18.939C23.8317 28.6959 26.3771 25.5922 26.3771 21.7196C26.2579 18.5362 24.1084 15.7943 21.3651 15.4303ZM10.5028 7.76694H17.3045C19.1348 7.76694 20.2883 8.85678 20.2883 10.4679C20.2883 12.0832 19.1348 13.1709 17.3045 13.1709H10.5049L10.5028 7.76694ZM17.545 23.8949H10.5049V17.9676H17.545C19.6136 17.9676 20.7671 19.2986 20.7671 20.9119C20.7671 22.7663 19.5328 23.8562 17.545 23.8949ZM154.108 19.1371H156.932V22.1611C155.456 23.3754 153.622 24.0568 151.72 24.0974C147.187 24.0974 144.003 20.5888 144.003 15.8719C144.003 11.1549 147.225 7.64417 151.72 7.64417C154.067 7.64417 156.253 8.89555 157.528 10.9116L161.825 8.49278C159.996 5.54848 156.774 2.9294 151.682 2.9294C144.482 2.9294 138.514 7.9694 138.514 15.7922C138.514 23.6128 144.403 28.6528 151.682 28.6528C153.64 28.6844 155.583 28.2865 157.375 27.4864C159.167 26.6863 160.767 25.503 162.065 24.0177V14.4999H150.449L154.108 19.1371ZM129.642 19.1371L117.83 2.9294H109.754L112.261 6.19463V28.7346H117.709V11.8399L129.882 28.6528H135.054V2.9294H129.644V19.1349L129.642 19.1371ZM180.046 2.9294H169.584L172.089 6.19463L171.653 7.44386L163.536 28.7346H169.663L171.255 24.3796H182.194L183.785 28.7346H189.91L180.046 2.9294ZM172.646 19.542L176.624 8.45186L180.604 19.542H172.646ZM101.162 2.9294H106.61V28.7756H101.164L101.162 2.9294ZM96.827 7.36417V2.92725H77.6902V7.72602H89.7039L77.6902 24.2611V28.6549H97.0228V23.8583H84.7346L96.8292 7.36632L96.827 7.36417Z" fill="white"/>
<path id="Vector_2" d="M198.423 28.3447V7.24561H207.489C207.702 7.24561 207.978 7.25637 208.313 7.27576C208.647 7.28437 208.957 7.31453 209.243 7.36191C210.511 7.5493 211.558 7.95422 212.38 8.57884C213.214 9.20345 213.827 9.99607 214.225 10.9524C214.629 11.9001 214.833 12.9555 214.833 14.1185C214.833 15.2708 214.631 16.3241 214.225 17.2825C213.818 18.2302 213.199 19.0164 212.365 19.641C211.543 20.2656 210.5 20.6727 209.243 20.8579C208.662 20.9311 208.077 20.9699 207.491 20.9742H202.096V28.3447H198.423ZM202.096 17.6788H207.338C207.54 17.6788 207.768 17.6681 208.023 17.6487C208.279 17.6271 208.511 17.5905 208.725 17.5324C209.332 17.3838 209.811 17.1253 210.156 16.7548C210.5 16.4016 210.758 15.9687 210.903 15.4948C211.052 15.0511 211.128 14.5859 211.13 14.1164C211.127 13.6483 211.05 13.1837 210.903 12.7401C210.76 12.2602 210.505 11.8225 210.158 11.465C209.811 11.0945 209.332 10.8361 208.723 10.6896C208.511 10.6293 208.276 10.597 208.021 10.5862C207.794 10.5676 207.566 10.5575 207.338 10.5561H202.096V17.6788ZM217.887 28.3447V12.5204H221.133V16.3758L220.737 15.8761C220.935 15.3591 221.205 14.8745 221.544 14.4395C221.884 14.0044 222.303 13.6361 222.778 13.3561C223.185 13.0911 223.631 12.8865 224.119 12.7401C224.613 12.5828 225.125 12.4902 225.643 12.4601C226.162 12.4235 226.664 12.4428 227.151 12.5204V15.8158C226.599 15.674 226.027 15.6303 225.46 15.6865C224.86 15.7251 224.277 15.8996 223.753 16.197C223.27 16.4409 222.844 16.786 222.503 17.2093C222.189 17.6185 221.954 18.0881 221.803 18.6158C221.65 19.1327 221.573 19.6948 221.573 20.3001V28.3447H217.887ZM237.031 28.7841C235.386 28.7841 233.947 28.4287 232.719 27.7136C231.51 27.023 230.517 26.0029 229.852 24.7693C229.182 23.5093 228.848 22.0641 228.848 20.4315C228.848 18.773 229.192 17.317 229.884 16.0656C230.555 14.8361 231.552 13.8213 232.764 13.1364C233.994 12.4321 235.415 12.081 237.031 12.081C238.686 12.081 240.129 12.4364 241.357 13.1515C242.587 13.8622 243.541 14.8508 244.222 16.1108C244.903 17.3601 245.243 18.8031 245.243 20.4315C245.243 22.0727 244.899 23.5244 244.207 24.7822C243.543 26.0163 242.551 27.0372 241.342 27.7287C240.112 28.433 238.676 28.7841 237.031 28.7841ZM237.031 25.4736C238.493 25.4736 239.58 25.0041 240.291 24.0671C241.002 23.1281 241.357 21.9176 241.357 20.4315C241.357 18.8979 240.998 17.6788 240.276 16.7699C239.555 15.8502 238.474 15.3915 237.031 15.3915C236.045 15.3915 235.232 15.6068 234.592 16.0376C233.955 16.4684 233.464 17.0865 233.189 17.8102C232.885 18.5619 232.734 19.4364 232.734 20.4315C232.734 21.965 233.093 23.1927 233.815 24.1102C234.547 25.0191 235.617 25.4736 237.031 25.4736Z" fill="#1A79FF"/>
</g>
<defs>
<clipPath id="clip0_1737_1933">
<rect width="249" height="28" fill="white" transform="translate(0.5 0.78418)"/>
</clipPath>
</defs>
</svg>
