<svg width="156" height="55" viewBox="0 0 156 55" fill="none" xmlns="http://www.w3.org/2000/svg">
<g id="Business Insider logo 1" clip-path="url(#clip0_1737_1937)">
<g id="Group">
<path id="Vector" fill-rule="evenodd" clip-rule="evenodd" d="M0.566895 1.3073H11.0169C16.8336 1.3073 19.8669 4.3448 19.8669 8.09105C19.8669 10.6729 18.4336 12.4279 16.4336 13.3392V13.4067C18.9836 14.3348 20.4169 16.3767 20.4169 18.9923C20.4169 22.7217 17.5836 25.9954 11.4336 25.9954H0.566895V1.3073ZM10.6836 11.0948C12.4169 11.0948 13.2002 10.2004 13.2002 9.20481C13.2002 8.20918 12.4169 7.28105 10.6836 7.28105H7.61689V11.0779H10.6836V11.0948ZM10.7836 20.0217C12.6169 20.0217 13.5002 19.1273 13.5002 17.9798C13.5002 16.8323 12.5836 15.9379 10.8169 15.9379H7.61689V20.0217H10.7836ZM21.9169 15.9548V1.3073H29.0336V15.8873C29.0336 18.6379 30.3669 20.0892 32.6502 20.0892C34.9336 20.0892 36.3669 18.6379 36.3669 15.8536V1.3073H43.5169V15.9548C43.5169 22.1648 39.4002 26.6367 32.6502 26.6367C25.9002 26.6367 21.9169 22.1648 21.9169 15.9548ZM61.6502 2.50543V8.85043C60.1169 7.75355 57.5002 6.99418 55.3836 6.99418C53.4502 6.99418 52.4836 7.61856 52.4836 8.44543C52.4836 9.27231 53.5669 9.69418 55.4836 10.4029C58.7502 11.5673 63.1836 13.1198 63.1836 18.3679C63.1836 23.0592 59.6836 26.5354 53.5502 26.5354C50.3836 26.5354 47.4836 25.6073 45.6836 24.3923V17.7098C47.4502 19.1611 50.1169 20.3254 52.7002 20.3254C54.8836 20.3254 55.9002 19.4986 55.9002 18.5704C55.9002 17.3723 54.2336 16.8492 52.2502 16.1236C49.6336 15.1617 45.5002 13.4404 45.5002 8.64793C45.4836 4.32793 48.8502 0.78418 54.8502 0.78418C57.5002 0.78418 59.8836 1.47605 61.6502 2.50543ZM65.0002 1.3073H72.1169V25.9954H65.0002V1.3073ZM97.4169 26.0123H90.6336L81.8502 12.7654H81.8169V26.0123H75.0669V1.3073H81.8502L90.6336 14.3348H90.6669V1.3073H97.4169V26.0123ZM100.367 1.3073H117.217V7.7198H107.484V10.6898H116.234V16.5117H107.484V19.5829H117.217V25.9954H100.367V1.3073ZM135.067 2.50543V8.85043C133.534 7.75355 130.917 6.99418 128.8 6.99418C126.867 6.99418 125.9 7.61856 125.9 8.44543C125.9 9.27231 126.984 9.69418 128.9 10.4029C132.167 11.5673 136.6 13.1198 136.6 18.3679C136.6 23.0592 133.1 26.5354 126.967 26.5354C123.8 26.5354 120.9 25.6073 119.1 24.3923V17.7098C120.867 19.1611 123.534 20.3254 126.117 20.3254C128.3 20.3254 129.317 19.4986 129.317 18.5704C129.317 17.3723 127.65 16.8492 125.667 16.1236C123.05 15.1617 118.917 13.4404 118.917 8.64793C118.9 4.32793 122.267 0.78418 128.267 0.78418C130.917 0.78418 133.3 1.47605 135.067 2.50543ZM153.9 2.50543V8.85043C152.367 7.75355 149.75 6.99418 147.634 6.99418C145.7 6.99418 144.734 7.61856 144.734 8.44543C144.734 9.27231 145.817 9.69418 147.734 10.4029C151 11.5673 155.434 13.1198 155.434 18.3679C155.434 23.0592 151.934 26.5354 145.8 26.5354C142.634 26.5354 139.734 25.6073 137.934 24.3923V17.7098C139.7 19.1611 142.367 20.3254 144.95 20.3254C147.134 20.3254 148.15 19.4986 148.15 18.5704C148.15 17.3723 146.484 16.8492 144.5 16.1236C141.884 15.1617 137.75 13.4404 137.75 8.64793C137.734 4.32793 141.1 0.78418 147.1 0.78418C149.75 0.78418 152.134 1.47605 153.9 2.50543ZM16.1836 54.2611H23.3002V29.5729H16.1836V54.2611ZM48.6002 29.5729H41.8336V42.6004H41.8002L33.0169 29.5729H26.2336V54.2611H33.0002V41.0142H33.0336L41.8169 54.2611H48.6002V29.5729ZM60.0669 29.0329C54.0669 29.0329 50.7002 32.5767 50.7002 36.8967C50.7002 41.6892 54.8502 43.4104 57.4502 44.3723C59.4502 45.0979 61.1002 45.6211 61.1002 46.8192C61.1002 47.7473 60.0836 48.5742 57.9002 48.5742C55.3169 48.5742 52.6502 47.4098 50.8836 45.9586V52.6411C52.6836 53.8561 55.5836 54.7842 58.7502 54.7842C64.8836 54.7842 68.3836 51.3079 68.3836 46.6167C68.3836 41.3686 63.9502 39.7992 60.6836 38.6517C58.7502 37.9598 57.6836 37.5548 57.6836 36.6942C57.6836 35.8336 58.6669 35.2429 60.5836 35.2429C62.7002 35.2429 65.3169 36.0023 66.8502 37.0992V30.7542C65.0836 29.7248 62.7002 29.0329 60.0669 29.0329ZM70.0502 54.2611H77.1669V29.5729H70.0502V54.2611ZM87.2169 47.7473H88.5835C92.2669 47.7473 94.6502 45.6379 94.6502 41.9254C94.6502 38.2129 92.2669 36.0698 88.5835 36.0698H87.2169V47.7473ZM101.85 41.9254C101.85 49.3673 96.3002 54.2611 88.3335 54.2611H80.1002V29.5729H88.3335C96.3002 29.5729 101.85 34.5004 101.85 41.9254ZM103.767 54.2611H120.617V47.8486H110.884V44.7773H119.634V38.9554H110.884V35.9854H120.617V29.5729H103.767V54.2611ZM131.817 41.2336C133.617 41.2336 135.017 40.3729 135.017 38.6517C135.017 36.9304 133.617 36.0698 131.784 36.0698H130.284V41.2336H131.817ZM143.467 54.2611H135.084L130.45 46.6336H130.284V54.2611H123.167V29.5729H131.85C137.95 29.5729 142.2 32.3236 142.2 38.1623C142.2 40.4742 141.184 43.8492 137.134 45.5704L143.467 54.2611Z" fill="white"/>
</g>
</g>
<defs>
<clipPath id="clip0_1737_1937">
<rect width="155" height="54" fill="white" transform="translate(0.5 0.78418)"/>
</clipPath>
</defs>
</svg>
