<svg width="248" height="59" viewBox="0 0 248 59" fill="none" xmlns="http://www.w3.org/2000/svg">
<g id="Cointelegraph 1" clip-path="url(#clip0_1738_2278)">
<g id="Clip path group">
<mask id="mask0_1738_2278" style="mask-type:luminance" maskUnits="userSpaceOnUse" x="0" y="0" width="248" height="59">
<g id="a">
<path id="Vector" d="M0 0.78418H248V58.7842H0V0.78418Z" fill="white"/>
</g>
</mask>
<g mask="url(#mask0_1738_2278)">
<g id="Group">
<path id="Vector_2" d="M81.5282 16.6688C81.4171 18.2293 80.8464 19.4583 79.8162 20.356C78.7867 21.2515 77.4297 21.6993 75.7451 21.6993C73.9028 21.6993 72.4544 21.0734 71.3999 19.8215C70.3432 18.5711 69.8149 16.8528 69.8149 14.6668V13.7792C69.8149 12.3851 70.0584 11.1564 70.5454 10.0931C71.0324 9.03111 71.7277 8.21635 72.6315 7.64878C73.5367 7.07983 74.5881 6.7957 75.7857 6.79639C77.4425 6.79639 78.778 7.24485 79.7922 8.14178C80.8044 9.03733 81.39 10.2957 81.5491 11.917H78.5887C78.5158 10.9807 78.2574 10.3016 77.8135 9.87971C77.3689 9.45852 76.693 9.24792 75.7857 9.24792C74.7986 9.24792 74.0601 9.60455 73.5704 10.3178C73.0799 11.0325 72.8281 12.14 72.8149 13.6404V14.7362C72.8149 16.3036 73.0501 17.4491 73.5204 18.1727C73.9913 18.8977 74.7333 19.2598 75.7461 19.2591C76.6603 19.2591 77.3428 19.0485 77.7937 18.6274C78.2445 18.2048 78.5026 17.5523 78.5679 16.6699L81.5282 16.6688ZM96.8146 14.5767C96.8146 16.006 96.5646 17.2578 96.0644 18.3322C95.5649 19.4086 94.8494 20.2389 93.9178 20.8231C92.9877 21.4072 91.9206 21.6993 90.7168 21.6993C89.5261 21.6993 88.4632 21.4107 87.5282 20.8334C86.5952 20.2548 85.8717 19.4297 85.3577 18.3581C84.8443 17.2858 84.5845 16.0515 84.5782 14.6554V13.9387C84.5782 12.5108 84.8332 11.2541 85.3431 10.1687C85.853 9.08324 86.5737 8.24949 87.5053 7.66742C88.4361 7.08742 89.5 6.79708 90.697 6.79639C91.8946 6.79639 92.9588 7.08673 93.8897 7.66742C94.8206 8.24949 95.5406 9.08324 96.0498 10.1687C96.5604 11.2541 96.8157 12.5073 96.8157 13.9283L96.8146 14.5767ZM93.8157 13.919C93.8157 12.3979 93.5462 11.2424 93.0071 10.4525C92.4673 9.66186 91.6973 9.26657 90.697 9.26657C89.7036 9.26657 88.937 9.65669 88.3972 10.4369C87.8575 11.2172 87.5848 12.3616 87.5792 13.8703V14.5777C87.5792 16.0588 87.8488 17.2074 88.3878 18.0235C88.9269 18.8411 89.7032 19.2498 90.7168 19.2498C91.7094 19.2498 92.4729 18.8562 93.0071 18.0691C93.5392 17.282 93.8088 16.1344 93.8157 14.6264V13.919ZM103.652 21.5004H100.693V6.99525H103.652V21.5004ZM119.621 21.5004H116.66L110.897 11.9574V21.5004H107.937V6.99525H110.897L116.67 16.559V6.99525H119.621V21.5004ZM134.277 9.41674H129.876V21.5004H126.915V9.41674H122.573V6.99525H134.277V9.41674ZM146.149 15.2147H140.466V19.0996H147.136V21.5004H137.504V6.99525H147.117V9.41674H140.466V12.8729H146.149V15.2147ZM153.373 19.0996H159.66V21.5004H150.413V6.99525H153.373V19.0996ZM171.542 15.2136H165.858V19.0996H172.528V21.5004H162.897V6.99525H172.509V9.41674H165.858V12.8729H171.542V15.2136ZM187.174 19.6672C186.641 20.3114 185.887 20.811 184.913 21.1659C183.94 21.5222 182.862 21.7003 181.676 21.7003C180.433 21.7003 179.343 21.4262 178.406 20.878C177.468 20.3297 176.744 19.5343 176.234 18.4917C175.724 17.4491 175.463 16.2238 175.449 14.8159V13.8289C175.449 12.381 175.691 11.1277 176.176 10.0692C176.658 9.01005 177.356 8.19978 178.267 7.63842C179.178 7.07707 180.245 6.79639 181.47 6.79639C183.174 6.79639 184.506 7.20653 185.466 8.02682C186.427 8.8471 186.996 10.0409 187.174 11.6083H184.292C184.16 10.7777 183.869 10.1701 183.419 9.78546C182.968 9.40017 182.348 9.20753 181.559 9.20753C180.551 9.20753 179.785 9.58936 179.258 10.353C178.733 11.1167 178.467 12.2525 178.46 13.7605V14.6865C178.46 16.2076 178.746 17.3565 179.317 18.1333C179.89 18.9101 180.73 19.2985 181.835 19.2985C182.946 19.2985 183.739 19.0596 184.213 18.5818V16.0816H181.519V13.8796H187.174V19.6672ZM196.43 16.1914H194.072V21.5004H191.111V6.99525H196.45C198.148 6.99525 199.457 7.37742 200.378 8.14178C201.299 8.90476 201.759 9.98363 201.759 11.3784C201.759 12.3685 201.547 13.1936 201.123 13.8537C200.698 14.5152 200.055 15.0417 199.194 15.4332L202.302 21.3606V21.5004H199.124L196.43 16.1914ZM194.072 13.7699H196.46C197.203 13.7699 197.779 13.5789 198.187 13.1971C198.595 12.8146 198.799 12.2881 198.799 11.6176C198.799 10.9341 198.606 10.3962 198.222 10.004C197.836 9.6125 197.246 9.41674 196.45 9.41674H194.071L194.072 13.7699ZM213.661 18.5114H208.47L207.484 21.5004H204.335L209.685 6.99525H212.427L217.805 21.5004H214.658L213.661 18.5114ZM209.27 16.0919H212.862L211.056 10.6606L209.27 16.0919ZM223.648 16.3902V21.5004H220.688V6.99525H226.293C227.372 6.99525 228.321 7.19479 229.139 7.59389C229.959 7.9916 230.589 8.55779 231.03 9.29246C231.471 10.0257 231.691 10.8609 231.691 11.7979C231.691 13.2189 231.209 14.3391 230.246 15.1587C229.281 15.9804 227.947 16.3909 226.244 16.3902H223.648ZM223.648 13.9687H226.293C227.076 13.9687 227.673 13.783 228.084 13.4115C228.496 13.0386 228.701 12.5073 228.701 11.8175C228.701 11.1063 228.494 10.5315 228.08 10.0931C227.665 9.65599 227.092 9.43055 226.362 9.41674H223.648V13.9687ZM246.958 21.5004H243.997V15.2841H238.225V21.5004H235.263V6.99525H238.225V12.8729H243.997V6.99525H246.958V21.5004Z" fill="#FABF2C"/>
<path id="Vector_3" d="M77.7772 34.302H74.647V42.8808H72.9172V34.302H69.8151V32.9048H77.7772V34.302ZM81.1471 36.276C81.3991 35.9733 81.7167 35.731 82.0761 35.5672C82.4355 35.4035 82.8275 35.3226 83.2227 35.3304C84.8136 35.3304 85.6194 36.2325 85.6402 38.0368V42.8808H83.9668V38.0989C83.9668 37.5872 83.8556 37.2251 83.6333 37.0124C83.4089 36.8005 83.081 36.6945 82.6496 36.6945C81.9786 36.6945 81.4777 36.991 81.1471 37.5841V42.8808H79.4715V32.3569H81.1471V36.276ZM91.1838 43.0175C90.1223 43.0175 89.2616 42.6854 88.6016 42.0211C87.9424 41.3562 87.6128 40.4714 87.6128 39.3666V39.1605C87.6128 38.4203 87.7566 37.7592 88.0442 37.1771C88.3096 36.6193 88.7287 36.1478 89.2529 35.8172C89.7732 35.4924 90.3766 35.3234 90.991 35.3304C92.0059 35.3304 92.7906 35.6522 93.3449 36.2957C93.8979 36.9406 94.1747 37.852 94.1754 39.03V39.7022H89.3008C89.3522 40.3139 89.5582 40.798 89.9187 41.1543C90.2793 41.5105 90.7329 41.6887 91.2796 41.6887C92.0472 41.6887 92.6725 41.38 93.1553 40.7627L94.0587 41.6203C93.759 42.0639 93.3457 42.42 92.8614 42.6519C92.3382 42.9011 91.7639 43.0262 91.1838 43.0175ZM90.9837 36.6655C90.5238 36.6655 90.1529 36.8257 89.8708 37.146C89.5881 37.465 89.4075 37.9104 89.329 38.4821H92.5196V38.3578C92.4842 37.8013 92.3352 37.3801 92.0726 37.0942C91.81 36.8084 91.447 36.6655 90.9837 36.6655ZM100.709 42.8808V36.7007H99.571V35.4671H100.709V34.7887C100.709 33.9664 100.939 33.3315 101.399 32.8841C101.858 32.4366 102.501 32.2129 103.328 32.2129C103.623 32.2129 103.936 32.254 104.266 32.3362L104.225 33.6381C104.013 33.5979 103.799 33.5795 103.584 33.5832C102.784 33.5832 102.385 33.9919 102.385 34.8095V35.4671H103.899V36.7007H102.384V42.8808H100.709ZM110.208 42.1558C109.716 42.7303 109.017 43.0175 108.111 43.0175C107.302 43.0175 106.69 42.7824 106.275 42.3122C105.859 41.8427 105.651 41.1618 105.651 40.2698V35.4671H107.327V40.249C107.327 41.1908 107.72 41.6618 108.505 41.6618C109.319 41.6618 109.867 41.3717 110.152 40.7917V35.4671H111.827V42.8808H110.248L110.208 42.1558ZM116.197 33.665V35.4671H117.514V36.7007H116.197V40.8384C116.197 41.1221 116.254 41.3269 116.366 41.4525C116.479 41.5768 116.681 41.6393 116.97 41.64C117.163 41.64 117.359 41.6172 117.555 41.5716V42.8601C117.197 42.9626 116.826 43.0154 116.453 43.0175C115.166 43.0175 114.523 42.3118 114.523 40.9005V36.7007H113.295V35.4671H114.522V33.666L116.197 33.665ZM123.876 42.1558C123.384 42.7316 122.686 43.0192 121.781 43.0185C120.971 43.0185 120.359 42.7834 119.943 42.3132C119.527 41.8437 119.319 41.1629 119.319 40.2708V35.4682H120.995V40.2501C120.995 41.1919 121.388 41.6628 122.173 41.6628C122.986 41.6628 123.535 41.3728 123.821 40.7928V35.4682H125.496V42.8818H123.918L123.876 42.1558ZM131.672 36.9896C131.447 36.9528 131.218 36.9344 130.99 36.9347C130.222 36.9347 129.705 37.2272 129.438 37.812V42.8818H127.764V35.4682H129.363L129.404 36.2967C129.809 35.6532 130.369 35.3315 131.086 35.3315C131.325 35.3315 131.522 35.3632 131.679 35.4268L131.672 36.9896ZM136.449 43.0185C135.387 43.0185 134.526 42.6864 133.867 42.0222C133.208 41.3573 132.879 40.4724 132.878 39.3676V39.1615C132.878 38.4213 133.021 37.7602 133.308 37.1781C133.574 36.6202 133.994 36.1487 134.518 35.8183C135.038 35.4936 135.641 35.3247 136.255 35.3315C137.271 35.3315 138.056 35.6532 138.609 36.2967C139.163 36.9417 139.44 37.8531 139.441 39.031V39.7032H134.566C134.617 40.315 134.823 40.799 135.184 41.1553C135.544 41.5116 135.998 41.6897 136.545 41.6897C137.312 41.6897 137.938 41.3811 138.42 40.7638L139.324 41.6214C139.024 42.0649 138.611 42.421 138.127 42.6529C137.603 42.9021 137.029 43.0273 136.449 43.0185ZM136.249 36.6665C135.789 36.6665 135.418 36.8267 135.136 37.1471C134.853 37.4661 134.673 37.9114 134.594 38.4831H137.785V38.3589C137.749 37.8023 137.6 37.3811 137.338 37.0953C137.075 36.8101 136.712 36.6672 136.249 36.6665ZM145.071 39.1056C145.071 38.3792 145.215 37.725 145.505 37.1429C145.771 36.5861 146.195 36.119 146.725 35.7996C147.249 35.4868 147.851 35.3304 148.532 35.3304C149.538 35.3304 150.355 35.6522 150.982 36.2957C151.61 36.9406 151.949 37.7951 151.999 38.8591L152.006 39.2496C152.006 39.9801 151.865 40.6333 151.582 41.2091C151.319 41.7638 150.897 42.2287 150.368 42.5452C149.842 42.8601 149.235 43.0175 148.546 43.0175C147.493 43.0175 146.651 42.6695 146.019 41.9735C145.387 41.2761 145.071 40.3474 145.071 39.1874V39.1056ZM146.746 39.2496C146.746 40.0125 146.905 40.6098 147.222 41.0414C147.538 41.4729 147.98 41.6887 148.546 41.6887C149.111 41.6887 149.55 41.4691 149.865 41.03C150.18 40.5929 150.338 39.9514 150.337 39.1056C150.337 38.3571 150.175 37.7633 149.851 37.3242C149.528 36.885 149.088 36.6658 148.531 36.6665C147.985 36.6665 147.551 36.8823 147.229 37.3138C146.906 37.7454 146.745 38.3906 146.746 39.2496ZM154.578 42.8808V36.7007H153.44V35.4671H154.578V34.7887C154.578 33.9664 154.808 33.3315 155.267 32.8841C155.726 32.4366 156.369 32.2129 157.197 32.2129C157.491 32.2129 157.804 32.254 158.134 32.3362L158.093 33.6381C157.882 33.598 157.667 33.5796 157.453 33.5832C156.653 33.5832 156.252 33.9919 156.252 34.8095V35.4671H157.769V36.7007H156.252V42.8808H154.578ZM165.213 35.4671L165.261 36.2419C165.785 35.6342 166.501 35.3304 167.411 35.3304C168.408 35.3304 169.091 35.7098 169.459 36.4687C170.001 35.7092 170.764 35.3297 171.747 35.3304C172.57 35.3304 173.182 35.5566 173.584 36.0088C173.987 36.4604 174.193 37.127 174.202 38.0088V42.8808H172.527V38.0575C172.527 37.5866 172.423 37.2417 172.216 37.0228C172.009 36.8032 171.667 36.6934 171.19 36.6934C170.808 36.6934 170.497 36.7953 170.255 36.999C170.01 37.2082 169.833 37.4858 169.749 37.7965L169.756 42.8818H168.08V38.0026C168.057 37.1298 167.609 36.6934 166.736 36.6934C166.064 36.6934 165.589 36.9655 165.31 37.5096V42.8808H163.634V35.4671H165.213ZM176.173 39.1066C176.173 38.3796 176.317 37.725 176.606 37.1429C176.873 36.5863 177.297 36.1194 177.827 35.7996C178.351 35.4868 178.952 35.3304 179.633 35.3304C180.641 35.3304 181.457 35.6522 182.083 36.2957C182.711 36.9406 183.05 37.7951 183.1 38.8591L183.107 39.2496C183.107 39.9801 182.966 40.6333 182.684 41.2091C182.421 41.764 181.998 42.2288 181.469 42.5452C180.943 42.8601 180.336 43.0175 179.647 43.0175C178.594 43.0175 177.752 42.6695 177.121 41.9735C176.489 41.2761 176.173 40.3474 176.173 39.1874V39.1066ZM177.848 39.2496C177.848 40.0125 178.007 40.6098 178.323 41.0414C178.641 41.4729 179.082 41.6887 179.647 41.6887C180.212 41.6887 180.652 41.4691 180.967 41.03C181.282 40.5929 181.439 39.9514 181.439 39.1056C181.439 38.3571 181.277 37.7633 180.954 37.3242C180.629 36.885 180.189 36.6658 179.633 36.6665C179.086 36.6665 178.651 36.8823 178.33 37.3138C178.008 37.7454 177.848 38.3906 177.848 39.2496ZM186.643 35.4671L186.691 36.3237C187.243 35.6608 187.967 35.3297 188.862 35.3304C190.416 35.3304 191.206 36.2142 191.234 37.9819V42.8808H189.56V38.0782C189.56 37.608 189.457 37.2596 189.252 37.0331C189.049 36.8067 188.714 36.6934 188.249 36.6934C187.573 36.6934 187.07 36.9972 186.74 37.6049V42.8808H185.064V35.4671H186.643ZM196.789 43.0175C195.728 43.0175 194.868 42.6854 194.209 42.0211C193.549 41.3562 193.219 40.4714 193.219 39.3666V39.1605C193.219 38.4203 193.363 37.7592 193.649 37.1771C193.915 36.619 194.335 36.1475 194.86 35.8172C195.38 35.4928 195.983 35.3238 196.596 35.3304C197.613 35.3304 198.398 35.6522 198.951 36.2957C199.505 36.9406 199.782 37.852 199.782 39.03V39.7022H194.908C194.958 40.3139 195.163 40.798 195.524 41.1543C195.885 41.5105 196.339 41.6887 196.886 41.6887C197.654 41.6887 198.278 41.38 198.761 40.7627L199.665 41.6203C199.366 42.0638 198.953 42.4199 198.469 42.6519C197.945 42.9014 197.37 43.0265 196.789 43.0175ZM196.59 36.6655C196.131 36.6655 195.76 36.8257 195.476 37.146C195.194 37.465 195.014 37.9104 194.935 38.4821H198.127V38.3578C198.09 37.8013 197.941 37.3801 197.679 37.0942C197.417 36.8084 197.054 36.6655 196.59 36.6655ZM204.165 40.4966L205.682 35.4671H207.467L204.502 44.0045C204.048 45.2515 203.276 45.875 202.187 45.875C201.913 45.8704 201.642 45.8289 201.38 45.7518V44.4634L201.698 44.4841C202.12 44.4841 202.438 44.4078 202.651 44.2552C202.865 44.1012 203.034 43.8443 203.158 43.4846L203.4 42.8466L200.781 35.4671H202.587L204.165 40.4966ZM36.5539 42.9875L26.0442 47.4773V47.0278C24.0174 47.5374 21.7729 47.8315 19.6462 47.9258C9.7637 47.8315 1.91939 42.7493 1.8277 36.7017V34.4552C5.07358 39.0932 11.682 42.2003 19.6462 42.0885C22.3419 42.2003 25.098 41.7819 27.4144 41.1905L28.3283 38.9451C25.5815 39.7509 22.5826 40.3112 19.6472 40.2915C9.7637 40.3112 1.91939 35.2289 1.82874 29.0685V27.2726C5.07358 31.5604 11.6675 34.6676 19.6472 34.4563C23.237 34.6686 26.7475 33.926 29.6985 32.6593L30.157 30.4149C27.2727 31.9095 23.535 32.7774 19.6472 32.6593C9.7637 32.7774 1.91939 27.6951 1.82874 21.4363V19.6394C5.07358 24.0266 11.682 27.1348 19.6472 27.2726C24.1737 27.1348 28.4658 25.9593 31.9847 24.1292L32.4411 21.4353C29.2484 23.7605 24.5864 25.2591 19.6472 25.4756C9.7637 25.2591 1.92044 20.1759 1.82874 13.8031C1.91939 7.74211 9.7637 2.65882 19.6472 2.57907C25.5388 2.65986 31.0104 4.68986 34.2688 7.96686L34.5866 8.48575L36.8895 8.49611L36.5539 7.96686C33.3133 3.64068 26.8319 0.78418 19.6472 0.78418C8.71126 0.78418 0 6.70639 0 13.8041V37.1502C0.384504 44.0791 8.89674 49.7206 19.6472 49.7206C26.7475 49.7206 33.1288 46.976 36.5539 42.9875Z" fill="white"/>
<path id="Vector_4" d="M32.2783 58.7842L35.9671 43.3779L25.3625 47.9092L31.8188 21.1753H19.3667L22.5938 8.03418H62.2519L59.0238 21.1753H46.1132L43.3456 28.4253L57.64 22.5342L32.2783 58.7842ZM38.7347 40.2055L36.8903 49.268L52.1069 26.6128L39.6558 32.0503L45.19 19.3628H57.64L59.946 9.84668H23.9766L21.6706 19.3628H34.1227L28.1269 44.7378L38.7336 40.2076L38.7347 40.2055Z" fill="#FABF2C"/>
<path id="Vector_5" d="M100.682 42.8964H102.343V36.6883H103.881V35.4806H102.343V34.7681C102.343 34.5078 102.389 34.2885 102.48 34.1104C102.572 33.9357 102.717 33.7943 102.894 33.7065C103.078 33.6098 103.296 33.5615 103.549 33.5615C103.674 33.5615 103.789 33.5663 103.893 33.576C104.004 33.5849 104.106 33.6008 104.197 33.6236L104.239 32.3497C104.085 32.3082 103.929 32.2784 103.77 32.2606C103.608 32.2365 103.444 32.225 103.28 32.2264C102.747 32.2264 102.285 32.3245 101.895 32.5206C101.511 32.7054 101.195 33.0049 100.991 33.3771C100.785 33.752 100.682 34.2157 100.682 34.7681V35.4806H99.5365V36.6873H100.682V42.8964ZM81.1522 36.333V32.3714H79.4985V42.8964H81.1522V37.6039C81.2015 37.51 81.2571 37.4216 81.3189 37.3387C81.4704 37.1336 81.6586 36.9714 81.8837 36.8519C82.113 36.7339 82.3769 36.6748 82.6756 36.6748C82.9612 36.6748 83.2026 36.7228 83.3998 36.8188C83.5978 36.9099 83.7472 37.0605 83.8479 37.2704C83.9542 37.481 84.0073 37.7641 84.0073 38.1196V42.8964H85.6746V38.1341C85.6746 37.6266 85.6173 37.1972 85.5026 36.8457C85.4121 36.5226 85.2441 36.2262 85.0129 35.9819C84.8001 35.759 84.5353 35.5918 84.2418 35.4951C83.9215 35.3904 83.5859 35.3396 83.2488 35.345C82.8465 35.339 82.4482 35.425 82.0847 35.5964C81.7212 35.7677 81.4022 36.0197 81.1522 36.333ZM74.6521 42.8964V34.2896H77.8032V32.9193H69.813V34.2896H72.9359V42.8964H74.6521Z" fill="white"/>
<path id="Vector_6" fill-rule="evenodd" clip-rule="evenodd" d="M91.1975 43.033C90.686 43.0408 90.1779 42.9501 89.7012 42.7658C89.2756 42.5926 88.8907 42.3337 88.5706 42.0056C88.2598 41.6746 88.0182 41.2856 87.8599 40.8611C87.6924 40.4067 87.6084 39.9261 87.6119 39.4422V39.1687C87.6119 38.5887 87.697 38.0633 87.8672 37.5924C88.0367 37.1222 88.2733 36.7203 88.5768 36.3868C88.873 36.0525 89.2404 35.7879 89.6522 35.6121C90.0768 35.4315 90.5345 35.3405 90.9964 35.3449C91.5299 35.3449 91.9967 35.434 92.3969 35.6121C92.7956 35.7902 93.1263 36.0416 93.3889 36.3661C93.6556 36.6858 93.8536 37.0673 93.9828 37.5106C94.1148 37.9538 94.1811 38.4427 94.1818 38.9771V39.6825H89.2885C89.3052 39.9165 89.3462 40.1382 89.4115 40.3474C89.5032 40.6215 89.6362 40.8614 89.8106 41.0672C89.9856 41.2723 90.1975 41.4345 90.4462 41.554C90.6935 41.6679 90.9759 41.7249 91.2934 41.7249C91.6935 41.7249 92.0499 41.6448 92.3625 41.4846C92.6751 41.3244 92.946 41.0983 93.1752 40.8062L94.0505 41.6493C93.8727 41.9 93.6617 42.1257 93.4232 42.3204C93.1662 42.531 92.8515 42.7022 92.4792 42.8341C92.0668 42.9739 91.6331 43.0412 91.1975 43.033ZM89.3906 38.1341C89.3627 38.2538 89.3401 38.3748 89.3229 38.4966H92.5407V38.3671C92.5348 38.0798 92.4744 37.7962 92.3625 37.5313C92.2634 37.2785 92.0934 37.0592 91.8727 36.8995C91.6518 36.7407 91.3576 36.6613 90.9901 36.6613C90.7144 36.6613 90.4684 36.7203 90.2524 36.8384C90.0354 36.9575 89.8525 37.1297 89.721 37.3386C89.5687 37.5845 89.4571 37.853 89.3906 38.1341Z" fill="white"/>
<path id="Vector_7" d="M109.361 42.7804C109.677 42.6293 109.957 42.4108 110.18 42.1403L110.222 42.8964H111.794V35.4817H110.125V40.8032C110.009 41.0547 109.825 41.2694 109.594 41.4236C109.323 41.6059 108.951 41.697 108.478 41.697C108.319 41.698 108.161 41.675 108.009 41.6286C107.863 41.5835 107.73 41.5035 107.622 41.3956C107.504 41.2729 107.415 41.1253 107.361 40.9637C107.291 40.7445 107.258 40.5152 107.264 40.2853V35.4817H105.603V40.2719C105.603 40.7607 105.663 41.1812 105.782 41.5334C105.902 41.8855 106.07 42.1707 106.286 42.3889C106.506 42.6084 106.768 42.7707 107.071 42.8756C107.375 42.9806 107.708 43.0331 108.071 43.0331C108.571 43.0331 109.001 42.9488 109.361 42.7804ZM117.466 36.6883V35.4806H116.136V33.665H114.475V35.4806H113.261V36.6873H114.475V40.9492C114.475 41.4567 114.557 41.8634 114.723 42.1693C114.888 42.4759 115.118 42.6972 115.413 42.8332C115.706 42.9658 116.044 43.032 116.425 43.032C116.66 43.032 116.867 43.0162 117.046 42.9844C117.23 42.9526 117.391 42.916 117.529 42.8746L117.522 41.6141C117.329 41.6531 117.133 41.6739 116.936 41.6763C116.776 41.6763 116.635 41.6556 116.515 41.6141C116.394 41.5713 116.294 41.4857 116.233 41.3739C116.168 41.251 116.136 41.0749 116.136 40.8456V36.6873L117.466 36.6883ZM123.022 42.7804C123.349 42.6216 123.622 42.4082 123.842 42.1403L123.884 42.8964H125.457V35.4817H123.788V40.8032C123.672 41.0544 123.488 41.269 123.257 41.4236C122.986 41.6059 122.614 41.697 122.14 41.697C121.974 41.697 121.818 41.6742 121.671 41.6286C121.525 41.5833 121.393 41.5033 121.285 41.3956C121.166 41.273 121.077 41.1254 121.023 40.9637C120.953 40.7444 120.921 40.5152 120.927 40.2853V35.4817H119.265V40.2719C119.265 40.7607 119.325 41.1812 119.444 41.5334C119.564 41.8855 119.731 42.1707 119.947 42.3889C120.168 42.6084 120.431 42.7707 120.734 42.8756C121.037 42.9806 121.37 43.0331 121.733 43.0331C122.234 43.0331 122.664 42.9488 123.022 42.7804ZM129.378 37.8286V42.8964H127.717V35.4817H129.303L129.35 36.3527L129.378 36.304C129.567 36.003 129.801 35.7679 130.081 35.5987C130.366 35.4295 130.694 35.345 131.067 35.345C131.168 35.345 131.276 35.3539 131.391 35.3719C131.51 35.3905 131.6 35.4113 131.66 35.434L131.646 36.969C131.423 36.9331 131.197 36.9147 130.971 36.9141C130.686 36.9141 130.436 36.9555 130.22 37.0384C130.031 37.1037 129.859 37.2079 129.714 37.3441C129.569 37.4803 129.454 37.6454 129.378 37.8286Z" fill="white"/>
<path id="Vector_8" fill-rule="evenodd" clip-rule="evenodd" d="M136.403 43.0331C135.851 43.0331 135.353 42.944 134.907 42.7658C134.481 42.5926 134.096 42.3338 133.776 42.0056C133.465 41.6747 133.224 41.2857 133.065 40.8612C132.898 40.4068 132.814 39.9262 132.817 39.4422V39.1688C132.817 38.5888 132.903 38.0634 133.073 37.5925C133.242 37.1222 133.479 36.7204 133.782 36.3869C134.079 36.0524 134.447 35.7878 134.859 35.6122C135.283 35.4315 135.741 35.3405 136.203 35.345C136.736 35.345 137.202 35.434 137.602 35.6122C138.003 35.7903 138.334 36.0416 138.595 36.3662C138.862 36.6859 139.059 37.0673 139.187 37.5106C139.321 37.9539 139.387 38.4428 139.387 38.9772V39.6825H134.494C134.511 39.9166 134.552 40.1382 134.617 40.3475C134.709 40.6216 134.842 40.8615 135.017 41.0673C135.191 41.2723 135.402 41.4346 135.651 41.5541C135.899 41.668 136.182 41.725 136.499 41.725C136.87 41.732 137.236 41.6495 137.568 41.4847C137.881 41.3245 138.152 41.0983 138.381 40.8063L139.257 41.6493C139.079 41.9 138.868 42.1258 138.63 42.3205C138.347 42.5448 138.027 42.7186 137.685 42.8342C137.272 42.974 136.839 43.0413 136.403 43.0331ZM134.596 38.1341C134.568 38.2539 134.546 38.3749 134.528 38.4966H137.747V38.3672C137.741 38.0798 137.68 37.7962 137.568 37.5313C137.469 37.2785 137.299 37.0593 137.078 36.8996C136.857 36.7407 136.563 36.6613 136.196 36.6613C135.92 36.6613 135.674 36.7204 135.458 36.8385C135.246 36.9531 135.069 37.1198 134.928 37.3387C134.773 37.5836 134.661 37.8525 134.596 38.1341ZM144.984 39.1139V39.2713C144.984 39.8058 145.062 40.3015 145.219 40.7586C145.375 41.2143 145.602 41.6141 145.901 41.958C146.2 42.2963 146.563 42.5611 146.99 42.7524C147.423 42.9395 147.913 43.0331 148.459 43.0331C149.001 43.0331 149.486 42.9398 149.914 42.7534C150.341 42.5608 150.704 42.2956 151.003 41.958C151.308 41.6068 151.539 41.1992 151.685 40.7586C151.842 40.3015 151.92 39.8058 151.92 39.2713V39.1139C151.92 38.5795 151.842 38.0837 151.685 37.6266C151.541 37.1855 151.309 36.7777 151.003 36.4273C150.703 36.0833 150.328 35.8117 149.907 35.6329C149.445 35.435 148.947 35.3368 148.445 35.345C147.903 35.345 147.416 35.4409 146.984 35.6329C146.556 35.82 146.193 36.0848 145.894 36.4273C145.592 36.7791 145.362 37.1866 145.219 37.6266C145.062 38.0837 144.984 38.5795 144.984 39.1139ZM146.646 39.2713V39.1139C146.646 38.7846 146.68 38.4738 146.749 38.1818C146.811 37.9028 146.921 37.6366 147.073 37.3946C147.221 37.1661 147.407 36.9876 147.632 36.8592C147.861 36.7266 148.132 36.6603 148.445 36.6603C148.757 36.6603 149.026 36.7266 149.251 36.8592C149.482 36.9876 149.67 37.1657 149.817 37.3936C149.968 37.6215 150.079 37.8842 150.148 38.1818C150.221 38.4738 150.258 38.7846 150.258 39.1139V39.2713C150.258 39.6048 150.221 39.92 150.148 40.217C150.079 40.5139 149.971 40.7742 149.824 40.9979C149.682 41.2173 149.488 41.3987 149.258 41.5261C149.014 41.6597 148.738 41.7259 148.459 41.7177C148.142 41.7177 147.868 41.6538 147.638 41.5261C147.409 41.3986 147.215 41.2172 147.073 40.9979C146.919 40.7588 146.81 40.4944 146.749 40.217C146.678 39.9067 146.644 39.5894 146.646 39.2713Z" fill="white"/>
<path id="Vector_9" d="M156.111 42.8963H154.449V36.6882H153.305V35.4805H154.449V34.768C154.449 34.2156 154.552 33.7519 154.759 33.377C154.971 32.9972 155.272 32.7117 155.663 32.5205C156.053 32.3237 156.515 32.2256 157.049 32.2263C157.213 32.2263 157.376 32.2377 157.537 32.2605C157.699 32.2785 157.856 32.3081 158.006 32.3496L157.966 33.6235C157.866 33.6002 157.764 33.5843 157.661 33.5759C157.547 33.5667 157.432 33.5622 157.317 33.5624C157.064 33.5624 156.845 33.6104 156.662 33.7064C156.486 33.7953 156.341 33.9364 156.248 34.1103C156.151 34.3158 156.104 34.5411 156.111 34.768V35.4805H157.648V36.6871H156.111V42.8963ZM165.134 37.5665V42.8963H163.472V35.4816H165.037L165.09 36.3174C165.333 36.0136 165.63 35.7788 165.981 35.6131C166.354 35.4336 166.784 35.3442 167.271 35.3449C167.611 35.3449 167.921 35.3953 168.201 35.4961C168.486 35.5914 168.732 35.7443 168.939 35.9549C169.092 36.1068 169.219 36.2908 169.319 36.5069C169.363 36.4448 169.409 36.384 169.456 36.3246C169.705 36.0188 170.01 35.7788 170.373 35.6048C170.764 35.4243 171.191 35.3354 171.621 35.3449C172.003 35.3449 172.343 35.3973 172.641 35.5023C172.945 35.6031 173.202 35.7629 173.414 35.9818C173.625 36.2007 173.786 36.4862 173.896 36.8384C174.006 37.1857 174.062 37.6062 174.062 38.0999V42.8963H172.393V38.0926C172.393 37.7177 172.338 37.4277 172.228 37.2226C172.135 37.029 171.973 36.8773 171.772 36.798C171.574 36.7151 171.338 36.6737 171.063 36.6737C170.805 36.6737 170.577 36.722 170.38 36.8187C170.188 36.9089 170.021 37.0427 169.89 37.2091C169.757 37.3754 169.656 37.5641 169.59 37.7664C169.592 37.8285 169.593 37.8917 169.593 37.9559V42.8963H167.933V38.1009C167.933 37.7398 167.877 37.4567 167.767 37.2516C167.671 37.055 167.507 36.8991 167.305 36.8125C167.081 36.7157 166.839 36.669 166.595 36.6757C166.282 36.6757 166.016 36.7351 165.795 36.8539C165.581 36.9714 165.399 37.1383 165.264 37.3407C165.215 37.4125 165.172 37.4878 165.134 37.5665Z" fill="white"/>
<path id="Vector_10" fill-rule="evenodd" clip-rule="evenodd" d="M176.005 39.2713V39.1139C176.005 38.5795 176.083 38.0837 176.24 37.6266C176.396 37.1661 176.621 36.7663 176.915 36.4273C177.213 36.0842 177.585 35.8126 178.004 35.6329C178.465 35.435 178.963 35.3368 179.466 35.345C180.012 35.345 180.5 35.4409 180.928 35.6329C181.359 35.82 181.724 36.0848 182.024 36.4273C182.323 36.7656 182.55 37.1654 182.706 37.6266C182.863 38.0837 182.941 38.5795 182.941 39.1139V39.2713C182.941 39.8058 182.863 40.3015 182.706 40.7586C182.549 41.2143 182.322 41.6141 182.024 41.958C181.723 42.2986 181.351 42.5698 180.934 42.7524C180.507 42.9395 180.022 43.0331 179.479 43.0331C178.976 43.0416 178.476 42.9464 178.011 42.7534C177.594 42.5704 177.222 42.2989 176.922 41.958C176.617 41.6068 176.385 41.1992 176.24 40.7586C176.079 40.2792 176 39.7766 176.005 39.2713ZM177.666 39.1139V39.2713C177.666 39.6048 177.7 39.92 177.769 40.217C177.839 40.5139 177.947 40.7742 178.093 40.9979C178.24 41.2223 178.429 41.3984 178.659 41.5261C178.888 41.6538 179.162 41.7177 179.479 41.7177C179.788 41.7177 180.054 41.6538 180.279 41.5261C180.508 41.3986 180.702 41.2172 180.844 40.9979C180.998 40.7588 181.108 40.4944 181.168 40.217C181.242 39.92 181.279 39.6048 181.279 39.2713V39.1139C181.279 38.7846 181.242 38.4738 181.168 38.1818C181.107 37.9018 180.995 37.6351 180.838 37.3946C180.698 37.1714 180.503 36.9872 180.272 36.8592C180.026 36.7218 179.748 36.653 179.466 36.6603C179.153 36.6603 178.882 36.7266 178.652 36.8592C178.425 36.9893 178.233 37.1728 178.093 37.3936C177.947 37.6215 177.839 37.8842 177.769 38.1818C177.699 38.4876 177.665 38.8003 177.666 39.1139Z" fill="white"/>
<path id="Vector_11" d="M186.532 37.6277V42.8964H184.87V35.4817H186.435L186.489 36.3755L186.524 36.332C186.778 36.0226 187.099 35.7741 187.462 35.605C187.841 35.428 188.256 35.3391 188.675 35.345C189.034 35.345 189.358 35.3954 189.647 35.4962C189.942 35.5915 190.192 35.7489 190.399 35.9685C190.61 36.1881 190.772 36.4736 190.882 36.825C190.992 37.1724 191.047 37.5994 191.047 38.1062V42.8964H189.378V38.101C189.378 37.7448 189.326 37.4637 189.22 37.258C189.131 37.0597 188.971 36.9011 188.772 36.8126C188.544 36.7139 188.296 36.6672 188.048 36.6759C187.763 36.6759 187.508 36.7353 187.283 36.854C187.058 36.9723 186.863 37.1385 186.711 37.3408C186.644 37.4306 186.584 37.5262 186.532 37.6277Z" fill="white"/>
<path id="Vector_12" fill-rule="evenodd" clip-rule="evenodd" d="M196.582 43.033C196.071 43.0407 195.563 42.9499 195.086 42.7658C194.661 42.5926 194.276 42.3337 193.956 42.0056C193.645 41.6746 193.403 41.2856 193.245 40.8611C193.078 40.4067 192.994 39.9261 192.997 39.4422V39.1687C192.997 38.5887 193.082 38.0633 193.252 37.5924C193.422 37.1222 193.659 36.7203 193.962 36.3868C194.258 36.0525 194.626 35.7879 195.037 35.6121C195.462 35.4315 195.92 35.3405 196.382 35.3449C196.915 35.3449 197.382 35.434 197.782 35.6121C198.182 35.7902 198.512 36.0416 198.774 36.3661C199.041 36.6858 199.239 37.0673 199.367 37.5106C199.5 37.9538 199.567 38.4427 199.567 38.9771V39.6825H194.674C194.69 39.9165 194.731 40.1382 194.797 40.3474C194.888 40.6215 195.021 40.8614 195.196 41.0672C195.371 41.2723 195.582 41.4345 195.83 41.554C196.078 41.6679 196.361 41.7249 196.679 41.7249C197.078 41.7249 197.434 41.6448 197.747 41.4846C198.059 41.3244 198.331 41.0983 198.561 40.8062L199.436 41.6493C199.258 41.9 199.047 42.1257 198.809 42.3204C198.526 42.5446 198.207 42.7184 197.864 42.8341C197.452 42.974 197.018 43.0413 196.582 43.033ZM194.776 38.1341C194.748 38.2538 194.725 38.3748 194.708 38.4966H197.926V38.3671C197.92 38.0797 197.859 37.7962 197.747 37.5313C197.648 37.2786 197.478 37.0594 197.258 36.8995C197.037 36.7407 196.743 36.6613 196.375 36.6613C196.099 36.6613 195.853 36.7203 195.638 36.8384C195.426 36.953 195.249 37.1197 195.106 37.3386C194.954 37.5845 194.842 37.853 194.776 38.1341Z" fill="white"/>
<path id="Vector_13" d="M203.187 42.8777L200.545 35.4827H202.338L203.955 40.5473L205.509 35.4827H207.287L204.296 44.0273C204.217 44.2304 204.127 44.4292 204.027 44.6228C203.911 44.8456 203.765 45.0513 203.592 45.2339C203.417 45.43 203.199 45.5874 202.938 45.7062C202.675 45.8291 202.358 45.8906 201.987 45.8906C201.839 45.8906 201.696 45.8768 201.558 45.8491C201.431 45.8276 201.305 45.8027 201.179 45.7746L201.173 44.5131C201.283 44.5229 201.393 44.5298 201.503 44.5338C201.737 44.5404 201.971 44.5057 202.193 44.4312C202.37 44.373 202.526 44.2634 202.641 44.1164C202.76 43.97 202.861 43.7732 202.944 43.526L203.187 42.8777Z" fill="white"/>
</g>
</g>
</g>
</g>
<defs>
<clipPath id="clip0_1738_2278">
<rect width="248" height="58" fill="white" transform="translate(0 0.78418)"/>
</clipPath>
</defs>
</svg>
