<svg width="252" height="45" viewBox="0 0 252 45" fill="none" xmlns="http://www.w3.org/2000/svg">
<g id="svgexport-5 1" clip-path="url(#clip0_1738_1936)">
<path id="Vector" d="M42.663 22.7007V22.6158C42.621 10.5947 33.048 0.78418 21.3315 0.78418C9.615 0.78418 0 10.5947 0 22.7007C0 34.8083 9.5715 44.5991 21.3315 44.5991C26.7278 44.6028 31.9177 42.5019 35.8215 38.7334C36.206 38.3781 36.4352 37.8828 36.4587 37.3566C36.4822 36.8303 36.298 36.3162 35.9468 35.9273C35.5955 35.5384 35.1058 35.3065 34.5856 35.2828C34.0653 35.259 33.557 35.4453 33.1725 35.8006L33.1305 35.8431C31.4461 37.4628 29.4555 38.7214 27.2782 39.5436C25.1009 40.3657 22.7819 40.7344 20.4602 40.6274C18.1386 40.5204 15.8622 39.94 13.7679 38.921C11.6735 37.902 9.80431 36.4654 8.2725 34.6976L17.385 19.9166V26.7563C17.385 30.0245 18.645 31.088 19.704 31.3854C20.763 31.6828 22.3515 31.4674 24.072 28.7075L29.0715 20.4962C29.205 20.2565 29.3595 20.0289 29.5305 19.8149V23.9798C29.5305 27.037 30.7485 29.501 32.847 30.689C33.8157 31.2225 34.9092 31.4807 36.0113 31.4361C37.1134 31.3915 38.183 31.0457 39.1065 30.4356C41.5305 28.844 42.8325 26.0569 42.663 22.7007ZM37.119 27.0021C36.7824 27.2367 36.3899 27.376 35.9822 27.4056C35.5744 27.4352 35.1663 27.354 34.8 27.1705C33.96 26.6622 33.4545 25.5167 33.4545 23.9449V19.1307C33.4545 16.8396 32.5725 15.1813 31.062 14.7595C28.4985 13.9766 26.5695 17.1795 25.854 18.369L21.3315 25.7155V16.6697C21.2895 14.5896 20.616 13.3576 19.356 12.9737C18.516 12.7203 17.256 12.8493 16.0395 14.7185L5.919 31.1123C4.57264 28.5173 3.86706 25.6313 3.8625 22.7007C3.8625 12.8038 11.7135 4.77604 21.3315 4.77604C30.9495 4.77604 38.8005 12.8038 38.8005 22.7007V22.7872C38.901 24.6959 38.295 26.2283 37.1205 26.99L37.119 27.0021ZM72.3945 15.2253C72.6727 15.4056 72.9052 15.6494 73.0733 15.9372C73.2413 16.225 73.3402 16.5486 73.362 16.8821C73.3591 17.3697 73.1692 17.837 72.8323 18.1857C72.4954 18.5344 72.0378 18.7372 71.556 18.7514C71.3275 18.7337 71.1016 18.6905 70.8825 18.6224C69.7061 17.7298 68.279 17.2397 66.8085 17.2235C63.24 17.2235 60.8055 20.1518 60.8055 23.8038C60.8055 27.4558 63.2835 30.3461 66.8085 30.3461C68.5029 30.3437 70.1296 29.6731 71.343 28.4769C71.652 28.2569 72.018 28.1385 72.3945 28.137C72.6959 28.1336 72.9927 28.2113 73.2547 28.362C73.5166 28.5128 73.7343 28.7312 73.8853 28.995C74.0364 29.2588 74.1155 29.5584 74.1144 29.8633C74.1134 30.1681 74.0323 30.4672 73.8795 30.73C73.734 30.9879 73.527 31.2079 73.2765 31.3672C72.0471 32.4012 70.5899 33.1209 69.0278 33.4657C67.4657 33.8105 65.8445 33.7702 64.3011 33.3484C62.7576 32.9265 61.337 32.1353 60.1592 31.0416C58.9814 29.9479 58.0809 28.5838 57.5337 27.0642C56.9865 25.5447 56.8086 23.9143 57.015 22.3106C57.2214 20.7069 57.806 19.1769 58.7196 17.8497C59.6332 16.5225 60.849 15.437 62.2644 14.6848C63.6797 13.9325 65.2532 13.5356 66.852 13.5275C68.829 13.4971 70.767 14.0889 72.3945 15.2253ZM82.3875 19.4599C80.5037 19.4518 78.6936 20.1995 77.3538 21.539C76.014 22.8785 75.2539 24.7007 75.24 26.6061C75.2516 28.5221 76.0062 30.3569 77.3414 31.716C78.6767 33.0751 80.4859 33.8499 82.38 33.8737C86.076 33.8737 89.226 30.5176 89.226 26.6061C89.226 22.6977 86.1255 19.4599 82.3875 19.4599ZM82.3455 30.334C80.583 30.334 79.113 28.7196 79.113 26.638C79.113 24.4729 80.583 23.1544 82.3455 23.1544C83.985 23.1544 85.368 24.5154 85.368 26.638C85.368 28.7621 83.985 30.3461 82.3455 30.3461V30.334ZM91.584 31.6631V21.6371C91.5792 21.3772 91.6257 21.1189 91.7207 20.8773C91.8157 20.6357 91.9573 20.4157 92.1373 20.2301C92.3173 20.0445 92.5321 19.897 92.7691 19.7963C93.006 19.6956 93.2605 19.6436 93.5175 19.6435C94.0347 19.6503 94.5283 19.8637 94.8905 20.2372C95.2527 20.6107 95.4542 21.114 95.451 21.6371V31.6631C95.4546 32.1865 95.2533 32.6902 94.891 33.064C94.5288 33.4378 94.035 33.6514 93.5175 33.6582C93.0028 33.643 92.5138 33.4267 92.1534 33.0547C91.7929 32.6827 91.5888 32.1839 91.584 31.6631ZM91.29 15.8625C91.2816 15.5599 91.3328 15.2586 91.4406 14.9761C91.5485 14.6937 91.7107 14.4357 91.918 14.2173C92.1253 13.9989 92.3735 13.8244 92.6481 13.7038C92.9227 13.5833 93.2182 13.5193 93.5175 13.5154C93.8186 13.5189 94.1161 13.5825 94.3929 13.7024C94.6698 13.8223 94.9205 13.9962 95.1309 14.2142C95.3412 14.4322 95.507 14.6899 95.6188 14.9728C95.7307 15.2556 95.7863 15.5579 95.7825 15.8625C95.7825 16.4649 95.5459 17.0426 95.1248 17.4686C94.7037 17.8945 94.1325 18.1338 93.537 18.1338C92.9415 18.1338 92.3703 17.8945 91.9492 17.4686C91.5281 17.0426 91.29 16.4649 91.29 15.8625ZM102.839 26.2283V31.6631C102.839 32.1818 102.635 32.6792 102.272 33.046C101.91 33.4128 101.418 33.6188 100.905 33.6188C100.392 33.6188 99.9004 33.4128 99.5378 33.046C99.1752 32.6792 98.9715 32.1818 98.9715 31.6631V21.1714C98.9715 20.7714 99.1286 20.3878 99.4082 20.1049C99.6878 19.8221 100.067 19.6632 100.462 19.6632C100.858 19.6632 101.237 19.8221 101.517 20.1049C101.796 20.3878 101.954 20.7714 101.954 21.1714C102.505 20.6018 103.168 20.1561 103.901 19.8633C104.633 19.5705 105.419 19.4372 106.206 19.472C110.072 19.472 111.792 22.4034 111.792 25.7595V31.6631C111.792 32.1818 111.588 32.6792 111.226 33.046C110.863 33.4128 110.371 33.6188 109.858 33.6188C109.346 33.6188 108.854 33.4128 108.491 33.046C108.129 32.6792 107.925 32.1818 107.925 31.6631V26.2283C107.925 24.5275 107.716 23.0998 105.28 23.0998C103.561 23.0998 102.846 24.5427 102.846 26.2283H102.839ZM124.298 28.3085C124.101 28.3089 123.908 28.2628 123.732 28.1737C123.557 28.0846 123.405 27.9551 123.288 27.7956L118.796 22.8691V31.6631C118.803 31.9244 118.758 32.1845 118.664 32.4281C118.57 32.6716 118.429 32.8937 118.249 33.0811C118.069 33.2685 117.853 33.4174 117.615 33.5191C117.377 33.6209 117.121 33.6733 116.863 33.6733C116.604 33.6733 116.348 33.6209 116.11 33.5191C115.872 33.4174 115.657 33.2685 115.477 33.0811C115.296 32.8937 115.155 32.6716 115.061 32.4281C114.967 32.1845 114.923 31.9244 114.93 31.6631V14.2467C114.99 14.1022 115.088 13.9778 115.215 13.8879C115.342 13.7979 115.491 13.7461 115.646 13.7384C115.979 13.7956 116.278 13.9769 116.485 14.2467L123.667 22.4034C123.741 22.5085 123.834 22.5974 123.943 22.6647C124.051 22.732 124.172 22.7762 124.298 22.7948C124.547 22.7458 124.771 22.6067 124.928 22.4034L132.107 14.2467C132.206 14.1099 132.331 13.9945 132.475 13.9073C132.619 13.82 132.779 13.7626 132.945 13.7384C133.102 13.7345 133.257 13.7817 133.386 13.8732C133.514 13.9647 133.611 14.0956 133.661 14.2467V31.6646C133.665 31.9245 133.619 32.1828 133.524 32.4244C133.429 32.666 133.287 32.886 133.107 33.0716C132.927 33.2572 132.712 33.4047 132.475 33.5054C132.238 33.6061 131.984 33.6581 131.727 33.6582C131.21 33.6507 130.717 33.4367 130.355 33.063C129.993 32.6893 129.792 32.1861 129.795 31.6631V22.8691L125.298 27.7956C125.039 28.0882 124.68 28.2713 124.293 28.3085H124.298ZM160.62 23.0846H160.199C157.764 23.209 157.303 24.614 157.303 26.2131V31.6479C157.303 32.1665 157.099 32.6637 156.737 33.0304C156.374 33.397 155.883 33.6032 155.37 33.6036C154.857 33.6028 154.366 33.3963 154.004 33.0293C153.641 32.6623 153.438 32.165 153.438 31.6464V21.1729C153.439 20.7727 153.596 20.3892 153.876 20.1063C154.156 19.8233 154.535 19.664 154.931 19.6632C155.326 19.664 155.705 19.8234 155.984 20.1064C156.264 20.3893 156.421 20.7729 156.421 21.1729C157.848 19.8119 159.024 19.5145 160.199 19.4705H160.585C161.057 19.4832 161.504 19.681 161.833 20.0221C162.162 20.3632 162.347 20.8207 162.348 21.2973C162.347 21.763 162.167 22.2102 161.846 22.5439C161.525 22.8776 161.088 23.0716 160.628 23.0846H160.62ZM175.527 30.7285C175.704 31.0091 175.806 31.3308 175.821 31.6631C175.8 32.175 175.59 32.6601 175.231 33.0224C174.873 33.3847 174.394 33.5975 173.888 33.6188C173.219 33.6188 172.628 33.106 172.167 32.5112L167.718 27.2798V31.6191C167.718 32.1376 167.514 32.6348 167.152 33.0014C166.789 33.3681 166.298 33.574 165.785 33.574C165.273 33.574 164.781 33.3681 164.419 33.0014C164.056 32.6348 163.853 32.1376 163.853 31.6191V15.6956C163.852 15.3087 163.964 14.9302 164.177 14.6082C164.389 14.2863 164.691 14.0353 165.044 13.8872C165.398 13.7391 165.786 13.7006 166.162 13.7764C166.537 13.8523 166.881 14.0392 167.151 14.3134C167.514 14.6791 167.718 15.1782 167.718 15.6941V25.632L172.167 20.6646C172.628 20.1533 173.176 19.6025 173.846 19.6025C174.336 19.6244 174.8 19.8341 175.143 20.1891C175.486 20.5441 175.683 21.0178 175.693 21.5142C175.695 21.8293 175.608 22.1383 175.441 22.4049L171.917 26.3148L175.527 30.7345V30.7285ZM198.876 33.8297H197.824C194.886 33.8297 193.162 32.5112 193.162 27.8821V23.0846H192.158C191.684 23.0846 191.229 22.8942 190.894 22.5553C190.559 22.2164 190.371 21.7568 190.371 21.2776C190.371 20.7983 190.559 20.3387 190.894 19.9998C191.229 19.6609 191.684 19.4705 192.158 19.4705H193.147V15.776C193.138 15.3841 193.246 14.9986 193.458 14.6699C193.669 14.3412 193.973 14.0847 194.331 13.9341C194.568 13.834 194.823 13.7824 195.079 13.7824C195.596 13.7912 196.089 14.0052 196.45 14.3783C196.812 14.7513 197.014 15.2534 197.013 15.776V19.4599H198.606C199.073 19.4742 199.515 19.6737 199.838 20.0152C200.16 20.3567 200.337 20.8129 200.329 21.2851C200.314 21.7467 200.129 22.1856 199.81 22.5162C199.491 22.8468 199.062 23.0451 198.606 23.0725H197.013V27.1083C197.013 29.7832 197.136 30.334 198.312 30.334H198.861C199.317 30.336 199.755 30.5206 200.077 30.8475C200.399 31.1744 200.581 31.6171 200.581 32.0788C200.571 32.5371 200.387 32.9737 200.066 33.2978C199.746 33.622 199.314 33.8087 198.861 33.8191L198.876 33.8297ZM217.56 15.2253C217.838 15.406 218.07 15.65 218.237 15.9377C218.405 16.2254 218.504 16.5488 218.526 16.8821C218.523 17.3698 218.334 17.8374 217.997 18.1861C217.66 18.5349 217.202 18.7376 216.72 18.7514C216.492 18.7328 216.267 18.6895 216.048 18.6224C214.873 17.7291 213.447 17.239 211.977 17.2235C208.405 17.2235 205.97 20.1518 205.97 23.8038C205.97 27.4558 208.447 30.3461 211.977 30.3461C213.671 30.3437 215.298 29.6731 216.512 28.4769C216.819 28.2584 217.185 28.14 217.56 28.137C217.787 28.1349 218.012 28.1783 218.222 28.2648C218.432 28.3513 218.623 28.479 218.784 28.6407C219.051 28.9103 219.222 29.262 219.27 29.6404C219.317 30.0189 219.239 30.4027 219.048 30.7315C218.901 30.9907 218.692 31.2087 218.44 31.3657C217.212 32.3977 215.756 33.1156 214.195 33.4589C212.634 33.8022 211.015 33.7607 209.474 33.3381C207.147 32.7017 205.127 31.2337 203.788 29.206C202.45 27.1784 201.883 24.7286 202.194 22.3108C202.504 19.8926 203.669 17.6699 205.476 16.0548C207.282 14.4397 209.605 13.5418 212.016 13.5275C213.995 13.4894 215.935 14.0835 217.56 15.2253ZM148.485 19.601C148.288 19.6009 148.094 19.6407 147.913 19.7179C147.731 19.7952 147.567 19.9083 147.43 20.0507C147.293 20.1931 147.185 20.3619 147.113 20.547C147.041 20.7322 147.007 20.93 147.012 21.1289L146.931 21.5992C146.377 20.9355 145.69 20.399 144.914 20.0254C144.139 19.6518 143.294 19.4497 142.436 19.4326C138.659 19.4326 135.93 22.6582 135.93 26.5636C135.93 30.4705 138.615 33.8297 142.227 33.8297C143.739 33.8297 146.132 33.1485 146.889 31.6631L146.975 32.1289C146.971 32.3288 147.007 32.5275 147.082 32.7126C147.157 32.8976 147.269 33.0652 147.411 33.2048C147.552 33.3444 147.721 33.4532 147.905 33.5244C148.09 33.5956 148.287 33.6278 148.485 33.6188C148.684 33.6192 148.88 33.5799 149.064 33.5032C149.248 33.4265 149.415 33.3138 149.555 33.1717C149.696 33.0297 149.807 32.8609 149.883 32.6752C149.959 32.4894 149.997 32.2904 149.997 32.0894V21.141C149.991 20.7362 149.83 20.3495 149.548 20.0622C149.266 19.775 148.885 19.6096 148.485 19.601ZM142.857 30.3461C141.137 30.3461 139.791 28.6923 139.791 26.6501C139.791 24.6094 141.175 23.1301 142.857 23.1301C144.537 23.1301 146.05 24.5305 146.05 26.6501C146.05 28.7697 144.579 30.3461 142.857 30.3461ZM189.638 26.3102C189.552 21.9345 186.738 19.4705 183.003 19.4705C178.365 19.4705 176.408 22.8691 176.408 26.7791C176.408 31.7496 179.645 33.8722 183.549 33.8722C185.018 33.8722 186.572 33.6582 187.746 32.7661C187.99 32.6216 188.195 32.4179 188.341 32.1734C188.488 31.9289 188.572 31.6513 188.586 31.3657C188.589 30.9453 188.428 30.5405 188.139 30.2386C187.85 29.9367 187.455 29.7617 187.04 29.7514C186.684 29.7544 186.336 29.8576 186.035 30.0487C185.238 30.3928 184.379 30.5659 183.513 30.557C182.547 30.557 180.321 30.1656 180.321 27.8396H188.121C188.52 27.8319 188.901 27.6684 189.183 27.3834C189.466 27.0984 189.629 26.7138 189.638 26.3102ZM180.312 25.324C180.312 23.6702 182.037 23.1195 183.084 23.1195C184.132 23.1195 185.856 23.6702 185.898 25.324H180.312ZM232.965 19.601C232.769 19.6011 232.574 19.6409 232.393 19.718C232.212 19.7951 232.048 19.908 231.91 20.0501C231.773 20.1925 231.666 20.3614 231.594 20.5467C231.523 20.7321 231.489 20.93 231.495 21.1289L231.411 21.5992C230.858 20.9355 230.171 20.3988 229.396 20.0252C228.621 19.6516 227.777 19.4495 226.919 19.4326C223.139 19.4326 220.408 22.6582 220.408 26.5636C220.408 30.4705 223.114 33.8297 226.705 33.8297C228.217 33.8297 230.614 33.1485 231.367 31.6631L231.453 32.1289C231.45 32.3286 231.488 32.5267 231.563 32.7113C231.639 32.896 231.75 33.0633 231.891 33.2031C232.032 33.3429 232.201 33.4519 232.385 33.5234C232.57 33.5949 232.767 33.6274 232.965 33.6188C233.264 33.6187 233.556 33.529 233.805 33.361C234.054 33.1931 234.248 32.9544 234.363 32.6751C234.438 32.49 234.477 32.2912 234.477 32.0894V21.141C234.471 20.7364 234.309 20.3501 234.028 20.063C233.746 19.7759 233.365 19.6104 232.965 19.601ZM227.336 30.3461C225.659 30.3461 224.271 28.6923 224.271 26.6501C224.271 24.6094 225.617 23.1301 227.336 23.1301C229.056 23.1301 230.529 24.5305 230.529 26.6501C230.529 28.7697 229.068 30.3461 227.345 30.3461H227.336ZM245.486 19.4599C244.644 19.4444 243.808 19.602 243.028 19.9234C242.249 20.2447 241.542 20.723 240.951 21.3291C240.951 20.3551 240.321 19.6314 239.482 19.6314C239.284 19.6308 239.087 19.6699 238.903 19.7465C238.719 19.8231 238.552 19.9357 238.411 20.0778C238.27 20.2199 238.159 20.3887 238.082 20.5745C238.006 20.7604 237.967 20.9596 237.967 21.1607V37.6425C237.969 38.1604 238.173 38.6568 238.535 39.023C238.897 39.3893 239.387 39.5955 239.9 39.5967C240.412 39.5963 240.903 39.3904 241.266 39.024C241.628 38.6576 241.832 38.1608 241.833 37.6425V32.6842C242.88 33.4883 244.561 33.8297 245.698 33.857C249.352 33.857 252 30.5024 252 26.5925C252 22.681 249.225 19.4599 245.486 19.4599ZM245.022 30.334C243.302 30.334 241.833 28.7712 241.833 26.6395C241.833 24.5078 243.302 23.1195 245.022 23.1195C246.743 23.1195 248.088 24.5199 248.088 26.6395C248.088 28.6908 246.747 30.3461 245.022 30.3461V30.334Z" fill="white"/>
</g>
<defs>
<clipPath id="clip0_1738_1936">
<rect width="252" height="44" fill="white" transform="translate(0 0.78418)"/>
</clipPath>
</defs>
</svg>
