<svg width="176" height="65" viewBox="0 0 176 65" fill="none" xmlns="http://www.w3.org/2000/svg">
<path id="Vector" fill-rule="evenodd" clip-rule="evenodd" d="M63.2249 20.0258V39.3118H67.9722H72.7195V31.8941C72.7195 26.9984 72.7195 24.328 72.7195 24.0313C72.8679 23.2895 73.0162 22.5478 73.4613 21.9544C74.0547 20.9159 75.0932 20.4708 76.28 20.6192C77.9119 20.7675 78.9504 21.6576 79.2471 23.5863C79.2471 23.883 79.2471 26.85 79.2471 31.5974V39.1634H83.9944H88.7418V30.2622C88.7418 22.6961 88.7418 21.2126 88.5934 20.4708C88.2967 17.8004 87.4066 15.7235 85.7747 14.2399C84.4395 12.9048 82.8076 12.163 80.879 11.8663C80.1372 11.7179 78.0603 11.8663 77.4669 12.0146C75.6866 12.4597 74.3514 13.0531 73.1646 14.3883L72.4228 14.9817V7.86073V0.739746H67.6755H62.9282V20.0258H63.2249ZM164.106 1.03646C163.809 1.62987 154.166 24.9214 154.166 24.9214C154.166 24.9214 156.688 24.9214 159.803 24.9214H165.441L170.485 12.9048C173.304 6.22884 175.529 0.739746 175.529 0.739746C175.529 0.739746 173.007 0.739746 169.891 0.739746H164.254L164.106 1.03646ZM42.4553 12.0146C40.3784 12.3113 38.7465 12.9048 37.1146 13.9432C33.8508 16.0202 31.7739 19.5807 31.1805 23.7346C30.8837 25.6632 31.0321 28.0369 31.4772 29.8171C32.664 34.4161 35.7794 37.9766 39.785 39.3118C41.2685 39.7568 41.8619 39.9052 43.6422 39.9052C44.9774 39.9052 45.4224 39.9052 45.8675 39.7568C47.7961 39.3118 49.1313 38.57 50.3181 37.3832L50.9115 36.7897V37.9766V39.1634H55.5105H60.1095V25.8116V12.4597H55.5105H50.9115V13.6465V14.8334L50.4665 14.3883C49.428 13.2015 47.9444 12.4597 46.0158 12.0146C45.4224 11.8663 45.1257 11.8663 43.9389 11.8663C43.1971 12.0146 42.6037 12.0146 42.4553 12.0146ZM102.984 12.0146C100.462 12.3113 97.7914 13.4982 95.8628 14.9817C92.1539 18.0972 90.2253 22.9928 90.9671 28.0369C91.7088 33.6743 95.7144 37.9766 101.352 39.4601C102.539 39.7568 103.726 39.9052 105.209 39.9052C107.879 39.9052 109.808 39.4601 111.885 38.4216C116.039 36.3447 118.709 32.6358 119.303 28.0369C119.451 26.85 119.451 24.9214 119.303 23.883C119.006 21.6576 118.116 19.4323 116.781 17.6521C116.187 16.9103 115 15.5751 114.259 14.9817C112.182 13.3498 109.808 12.3113 107.138 12.0146C106.099 11.8663 104.022 11.8663 102.984 12.0146ZM133.248 12.0146C130.726 12.3113 128.204 13.3498 126.275 14.9817C125.534 15.5751 124.198 16.9103 123.753 17.6521C122.418 19.4323 121.676 21.6576 121.231 23.883C121.083 24.9214 121.083 26.9984 121.231 28.0369C122.121 33.971 126.424 38.57 132.358 39.7568C133.545 40.0535 134.138 40.0535 135.473 40.0535C137.995 40.0535 140.221 39.6085 142.298 38.4216C147.787 35.6029 150.754 29.3721 149.419 22.9928C148.232 17.0587 143.484 12.7564 137.402 12.0146C136.363 11.8663 134.286 11.8663 133.248 12.0146ZM0.471191 12.6081C0.471191 12.6081 2.99321 18.6906 6.10864 26.1083C9.22407 33.526 11.7461 39.6085 11.7461 39.6085C11.7461 39.6085 10.856 41.8338 9.66913 44.5041C8.4823 47.1745 7.59218 49.2515 7.59218 49.3998C7.59218 49.5482 9.81749 49.3998 12.6362 49.3998H17.6802L25.2463 31.1523C29.4002 21.0642 32.8123 12.9048 32.8123 12.7564C32.8123 12.7564 31.7739 12.6081 27.7683 12.7564H22.7243L19.6088 20.4708C18.2737 24.6247 16.9385 28.1852 16.9385 28.1852C16.9385 28.1852 15.6033 24.6247 13.823 20.4708L10.856 12.7564H5.66358C2.84485 12.6081 0.471191 12.6081 0.471191 12.6081ZM47.0543 20.6192C48.9829 21.0642 50.4665 22.5478 51.0599 24.4764C51.2082 25.2181 51.2082 26.5533 51.0599 27.2951C50.6148 29.2237 49.1313 30.7072 47.2027 31.1523C46.4609 31.3007 45.1257 31.3007 44.3839 31.1523C42.7521 30.7072 41.2685 29.5204 40.6751 28.0369C39.9333 26.405 40.23 24.328 41.1202 22.8445C42.4554 20.9159 44.6807 20.1741 47.0543 20.6192ZM106.248 20.7675C108.324 21.0642 109.956 22.6961 110.401 24.7731C110.55 25.5149 110.55 26.7017 110.401 27.4434C109.956 29.3721 108.473 30.7072 106.693 31.3006C106.099 31.449 104.467 31.449 103.874 31.3006C102.39 30.8556 101.203 29.8171 100.462 28.4819C100.017 27.5918 100.017 27.1467 100.017 26.1083C100.017 25.2181 100.165 24.7731 100.462 24.0313C100.907 23.1412 101.5 22.2511 102.39 21.6576C103.28 20.7675 104.764 20.4708 106.248 20.7675ZM136.363 20.7675C138.144 21.0642 139.627 22.2511 140.221 23.883C140.517 24.6247 140.666 25.0698 140.666 25.9599C140.666 26.9984 140.517 27.4434 140.221 28.3336C139.627 29.6688 138.292 30.7072 136.808 31.1523C136.215 31.3007 134.583 31.3007 133.99 31.1523C132.209 30.7072 130.726 29.2237 130.281 27.2951C130.133 26.5533 130.133 25.2181 130.281 24.4764C130.874 22.1027 132.951 20.4708 135.325 20.4708C135.622 20.6192 136.067 20.6192 136.363 20.7675ZM156.54 27.2951C153.721 27.5918 151.644 29.6688 151.05 32.3391C150.902 33.0809 150.902 34.4161 151.05 35.1579C151.644 37.5315 153.424 39.1634 155.798 39.7568C156.094 39.7568 156.688 39.9052 157.133 39.9052C158.913 39.9052 160.397 39.3118 161.584 38.1249C162.919 36.7897 163.364 35.4546 163.364 33.6743C163.364 31.449 162.325 29.5204 160.545 28.4819C159.358 27.4435 157.726 27.1467 156.54 27.2951ZM78.357 41.8338C76.4284 42.4272 75.5383 44.6525 76.5768 46.2844C76.8735 46.7295 77.4669 47.3229 77.9119 47.4712C78.357 47.6196 78.357 47.6196 79.2471 47.6196C79.9889 47.6196 80.1372 47.6196 80.5823 47.4712C81.1757 47.1745 81.7691 46.5811 82.0658 45.9877C82.8076 44.5041 82.0658 42.7239 80.5823 41.9821C80.1372 41.6854 79.9889 41.6854 79.3955 41.6854C78.8021 41.6854 78.6537 41.6854 78.357 41.8338ZM70.3459 41.9821C67.8239 42.4272 66.192 44.0591 65.4502 46.7295C65.3018 47.1745 65.3019 47.6196 65.3019 48.213V49.2515H64.2634H63.2249V51.4768V53.7021H64.2634H65.3019V59.0428V64.3836H68.1206H70.9393V59.0428V53.7021H72.8679H74.7965V51.4768V49.2515H72.8679H70.9393V48.8064C71.0877 47.7679 71.5327 47.0262 72.4228 46.8778C73.0163 46.7295 73.9064 46.7295 74.4998 47.0262C74.7965 47.1745 74.9448 47.1745 74.9448 47.1745C74.9448 47.1745 74.9448 46.136 74.9448 44.8009V42.4272L74.4998 42.2788C73.9064 41.9821 73.1646 41.9821 72.1261 41.9821C71.3844 41.8338 70.7909 41.9821 70.3459 41.9821ZM92.8957 48.9548C91.7089 49.2515 90.8187 49.8449 90.2253 50.5867L89.9286 51.0317V50.1416V49.2515H87.1099H84.2912V56.8175V64.3836H87.1099H89.9286V60.2297C89.9286 57.856 89.9286 55.9274 89.9286 55.6307C90.077 55.0373 90.3737 54.4439 90.6704 54.1472C91.4121 53.5537 92.7473 53.7021 93.3407 54.4439C93.7858 55.0373 93.7858 55.0373 93.7858 59.7846V64.2352H96.6045H99.4232V59.1912C99.4232 53.8504 99.4232 53.257 99.1265 52.2185C98.8298 51.3284 98.5331 50.5867 97.7914 49.9932C97.1979 49.3998 96.6045 48.9548 95.7144 48.8064C94.9726 48.8064 93.4891 48.8064 92.8957 48.9548ZM106.989 48.8064C106.099 48.9548 104.764 49.3998 104.022 49.9932C102.39 51.1801 101.352 52.9603 100.907 55.1856C100.758 56.0758 100.758 57.7076 100.907 58.5978C101.203 59.933 101.649 61.2681 102.39 62.1583C103.429 63.4935 104.764 64.3836 106.396 64.6803C107.286 64.8286 108.77 64.8286 109.511 64.5319C110.401 64.2352 110.995 63.9385 111.737 63.3451L112.33 62.7517V63.4935V64.2352H115.149H117.967V56.6692V49.1031H115.149H112.33V49.8449V50.5867L111.885 50.4383C111.143 49.6965 110.105 49.1031 108.918 48.9548C108.473 48.8064 107.434 48.8064 106.989 48.8064ZM128.501 48.9548C127.462 49.1031 126.424 49.8449 125.83 50.5867L125.534 50.8834V49.9932V49.1031H122.715H119.896V56.6692V64.2352H122.715H125.534V59.933C125.534 55.334 125.534 55.334 125.83 54.5922C126.127 53.9988 126.72 53.7021 127.314 53.7021C127.907 53.7021 128.204 53.8504 128.649 54.1472C129.242 54.7406 129.242 54.5922 129.242 59.6362V64.0869H132.061H134.88V58.5978C134.88 53.1087 134.88 53.1087 134.731 52.5153C134.583 52.2186 134.435 51.6251 134.286 51.1801C133.99 50.5867 133.841 50.4383 133.396 49.9932C132.803 49.3998 132.358 49.1031 131.764 48.8064C130.726 48.8064 129.539 48.6581 128.501 48.9548ZM143.188 48.9548C140.666 49.3998 138.737 50.5867 137.55 52.6636C137.253 53.257 136.957 53.9988 136.66 54.7406C136.512 55.4823 136.512 55.6307 136.512 56.8175C136.512 58.1527 136.512 58.5978 136.957 59.6362C137.847 62.1583 139.924 64.0869 142.743 64.6803C143.188 64.8286 143.633 64.8286 144.671 64.8286C146.155 64.8286 146.748 64.6803 147.787 64.2352L148.38 63.9385V61.4165V58.8945L147.935 59.1912C147.193 59.6363 146.748 59.7846 145.858 59.7846C144.968 59.7846 144.523 59.7846 143.929 59.4879C143.336 59.1912 142.891 58.7461 142.594 58.1527C142.446 57.7076 142.446 57.7076 142.446 56.9659C142.446 56.3725 142.446 56.2241 142.594 55.779C143.039 54.5922 144.078 53.9988 145.561 53.8505C146.6 53.8505 147.045 53.8505 148.528 54.5922C148.528 54.5922 148.528 53.4054 148.528 52.0702V49.5482L148.083 49.3998C146.451 48.8064 144.671 48.6581 143.188 48.9548ZM155.946 48.9548C151.644 49.6965 148.973 53.4054 149.27 57.7076C149.419 59.1912 149.864 60.5264 150.605 61.5648C151.644 63.1967 153.276 64.2352 155.353 64.6803C156.243 64.8286 158.616 64.8286 159.655 64.6803C161.138 64.3836 162.474 63.6418 163.512 62.6033C163.957 62.1583 164.699 61.1198 164.699 61.1198C164.699 61.1198 163.661 60.6747 162.325 60.2297L159.952 59.3395L159.655 59.6362C159.21 60.0813 158.913 60.2297 158.32 60.378C156.688 60.8231 155.056 59.933 154.759 58.4494V58.1527H159.952H165.144V56.8175C165.144 55.9274 165.144 55.334 164.996 55.0373C164.699 53.257 163.957 52.0702 162.919 50.8834C161.88 49.8449 160.693 49.2515 159.062 48.9548C158.468 48.8064 156.688 48.8064 155.946 48.9548ZM76.4284 56.8175V64.3836H79.2471H82.0658V56.8175V49.2515H79.2471H76.4284V56.8175ZM158.171 53.1087C158.616 53.257 158.765 53.4054 159.21 53.7021C159.507 53.9988 159.803 54.2955 159.803 54.7406V55.0373H157.281C154.463 55.0373 154.611 55.0373 154.908 54.4439C155.353 53.4054 156.688 52.812 158.171 53.1087ZM110.253 53.8505C110.995 53.9988 111.885 54.7406 112.182 55.4823C112.923 57.1142 112.182 59.0428 110.401 59.6362C109.808 59.7846 108.918 59.7846 108.324 59.6362C107.434 59.3395 106.544 58.5978 106.396 57.7076C106.248 57.2626 106.248 57.1142 106.248 56.6692C106.248 56.0758 106.248 55.9274 106.544 55.4823C107.138 54.1472 108.621 53.5537 110.253 53.8505Z" fill="white"/>
</svg>
