<svg width="825" height="1056" viewBox="0 0 825 1056" fill="none" xmlns="http://www.w3.org/2000/svg">
    <g clip-path="url(#clip0_423_920)">
        <path opacity="0.96" d="M823.791 1052.78L17.0341 625.459C12.3971 623.002 8.58852 619.307 6.02723 614.783C1.33313 606.526 1.19983 596.584 5.66542 588.203L318.904 0H316.181L3.54212 587.089C-1.31384 596.203 -1.1615 607.012 3.94203 615.974C6.75087 620.897 10.8927 624.916 15.9201 627.583L822.686 1054.9C823.448 1055.3 824.219 1055.68 825.01 1056.01V1053.39C824.6 1053.2 824.2 1053 823.8 1052.79L823.791 1052.78Z" fill="url(#paint0_linear_423_920)"/>
        <path opacity="0.9" d="M33.6015 592.165C29.0883 584.241 28.8978 574.68 33.0873 566.575L325.635 0H322.931L30.945 565.49C26.3937 574.308 26.6032 584.727 31.4972 593.346C34.2965 598.26 38.4479 602.25 43.5134 604.85L825 1006.13V1003.42L44.6274 602.708C39.9809 600.317 36.1628 596.679 33.6015 592.165Z" fill="url(#paint1_linear_423_920)"/>
        <path opacity="0.85" d="M59.0618 570.727C61.8516 575.642 66.0316 579.584 71.1161 582.118L825 956.546V953.86L72.2205 579.965C67.555 577.641 63.7464 574.051 61.1661 569.537C56.8528 561.956 56.6053 552.766 60.4996 544.957L332.729 0H330.034L58.3477 543.89C54.0821 552.414 54.3582 562.442 59.0618 570.727Z" fill="url(#paint2_linear_423_920)"/>
        <path opacity="0.8" d="M86.6551 548.109C89.464 553.023 93.6344 556.928 98.7665 559.385L825 907.385V904.728L99.8043 557.223C95.1198 554.975 91.3016 551.414 88.7404 546.919H88.7213C84.5985 539.662 84.3033 530.852 87.9215 523.338L340.203 0H337.556L85.7792 522.31C81.8182 530.538 82.142 540.185 86.6551 548.109Z" fill="url(#paint3_linear_423_920)"/>
        <path opacity="0.75" d="M114.21 525.491C117 530.414 121.218 534.271 126.379 536.652L825 858.71V856.091L127.369 534.49C122.665 532.319 118.828 528.805 116.286 524.319V524.3C112.354 517.377 112.001 508.929 115.353 501.71L348.077 0H345.449L113.191 500.72C109.516 508.643 109.897 517.91 114.21 525.5V525.491Z" fill="url(#paint4_linear_423_920)"/>
        <path opacity="0.7" d="M141.756 502.882C144.555 507.805 148.783 511.624 153.982 513.919L825.009 810.531V807.921L154.962 511.739C150.24 509.653 146.393 506.177 143.851 501.701C140.099 495.11 139.699 487.034 142.784 480.101L356.38 0H353.762L140.594 479.13C137.195 486.749 137.643 495.625 141.766 502.882H141.756Z" fill="url(#paint5_linear_423_920)"/>
        <path opacity="0.65" d="M169.302 480.282C172.101 485.215 176.357 488.987 181.604 491.196L825.009 762.913V760.313L182.537 488.996C177.785 486.996 173.929 483.568 171.387 479.092C167.769 472.74 167.331 465.226 170.197 458.492L365.13 0H362.522L167.988 457.54C164.827 464.978 165.303 473.263 169.292 480.282H169.302Z" fill="url(#paint6_linear_423_920)"/>
        <path opacity="0.6" d="M196.867 457.683C199.676 462.616 203.951 466.349 209.235 468.483L825 715.838V713.276L210.13 466.254C205.35 464.34 201.475 460.959 198.952 456.502H198.942C195.505 450.454 195.039 443.302 197.638 436.864L374.366 0H371.805L195.429 435.96C192.544 443.093 193.077 450.997 196.867 457.673V457.683Z" fill="url(#paint7_linear_423_920)"/>
        <path opacity="0.55" d="M224.383 435.083C227.154 439.96 231.582 443.75 236.838 445.75L825 669.382V666.82L237.704 443.512C232.962 441.712 228.963 438.293 226.478 433.903H226.459C223.212 428.179 222.698 421.379 225.04 415.236L384.116 0H381.545L222.812 414.379C220.204 421.189 220.775 428.731 224.383 435.083Z" fill="url(#paint8_linear_423_920)"/>
        <path opacity="0.5" d="M251.91 412.494C254.69 417.389 259.156 421.122 264.469 423.027L825.009 623.564V621.021L265.288 420.77C260.518 419.065 256.509 415.703 254.005 411.303C250.939 405.903 250.387 399.456 252.491 393.608L394.409 0H391.857L250.215 392.799C247.864 399.303 248.482 406.475 251.901 412.494H251.91Z" fill="url(#paint9_linear_423_920)"/>
        <path opacity="0.45" d="M279.428 389.904C282.218 394.818 286.712 398.513 292.082 400.303L825 578.442V575.899L292.853 398.008C288.045 396.408 284.017 393.094 281.513 388.694H281.522C278.628 383.618 278.038 377.523 279.904 371.971L405.292 0H402.76L277.628 371.219C275.543 377.409 276.19 384.218 279.428 389.894V389.904Z" fill="url(#paint10_linear_423_920)"/>
        <path opacity="0.4" d="M306.945 367.314C309.744 372.247 314.286 375.895 319.713 377.571L825 534.043V531.529L320.418 375.276C315.571 373.78 311.524 370.523 309.02 366.123H309.03C306.307 361.343 305.697 355.6 307.335 350.352L416.804 0H414.3L305.05 349.648C303.212 355.524 303.907 361.962 306.945 367.314Z" fill="url(#paint11_linear_423_920)"/>
        <path opacity="0.35" d="M334.452 344.734C337.28 349.695 341.85 353.286 347.354 354.848L825.009 490.453V487.958L348.001 352.533C343.117 351.143 339.042 347.953 336.537 343.543H336.557C333.976 339 333.348 333.753 334.785 328.715L428.991 0H426.497L332.462 328.067C330.834 333.715 331.548 339.629 334.452 344.734Z" fill="url(#paint12_linear_423_920)"/>
        <path opacity="0.3" d="M361.931 322.153C364.769 327.144 369.406 330.677 374.966 332.115L825.01 447.702V445.226L375.566 329.791C370.634 328.524 366.521 325.391 364.017 320.963H364.026C361.617 316.725 360.96 311.801 362.198 307.077L441.893 0H439.417L359.865 306.496C358.485 311.82 359.208 317.382 361.931 322.163V322.153Z" fill="url(#paint13_linear_423_920)"/>
        <path opacity="0.25" d="M389.41 299.582C392.219 304.544 397.037 308.115 402.607 309.382L825 405.856V403.408L403.15 307.058C398.237 305.935 393.99 302.782 391.515 298.411C389.277 294.468 388.601 289.868 389.62 285.459L455.585 0H453.128L387.287 284.916C386.135 289.926 386.887 295.135 389.42 299.582H389.41Z" fill="url(#paint14_linear_423_920)"/>
        <path opacity="0.2" d="M416.87 277.031C419.717 282.03 424.583 285.545 430.219 286.659L825 365.019V362.571L430.705 284.307C425.744 283.316 421.46 280.231 418.956 275.84H418.965C416.899 272.193 416.204 267.926 417.032 263.812L470.105 0H467.658L414.68 263.355C413.738 268.04 414.519 272.897 416.87 277.031Z" fill="url(#paint15_linear_423_920)"/>
        <path opacity="0.15" d="M444.34 254.469C447.216 259.526 452.157 262.964 457.889 263.926L825 325.229V322.82L458.27 261.574C453.252 260.736 448.929 257.717 446.416 253.298C444.511 249.955 443.816 246.003 444.454 242.184L485.53 0H483.112L442.102 241.774C441.36 246.127 442.15 250.641 444.331 254.46L444.34 254.469Z" fill="url(#paint16_linear_423_920)"/>
        <path opacity="0.1" d="M471.762 231.937C474.666 237.051 479.684 240.422 485.501 241.213L825 286.621V284.192L485.825 238.822C480.741 238.146 476.38 235.194 473.847 230.737C472.076 227.632 471.391 224.099 471.876 220.537L501.945 0H499.527L469.505 220.223C468.953 224.318 469.724 228.365 471.762 231.937Z" fill="url(#paint17_linear_423_920)"/>
        <path opacity="0.05" d="M499.193 209.394C502.097 214.499 507.315 217.889 513.161 218.461L825 249.231V246.822L513.39 216.08C508.315 215.575 503.792 212.642 501.269 208.213C499.65 205.385 498.974 202.166 499.307 198.89L519.426 0H517.017L496.927 198.652C496.546 202.414 497.327 206.137 499.193 209.404V209.394Z" fill="url(#paint18_linear_423_920)"/>
        <path opacity="0.05" d="M526.596 186.89C529.548 192.061 534.861 195.385 540.802 195.747L825.009 213.232V210.813L540.954 193.338C535.813 193.023 531.233 190.166 528.681 185.681C527.224 183.128 526.548 180.205 526.739 177.243L538.069 0H535.67L524.349 177.1C524.13 180.528 524.901 183.919 526.596 186.89Z" fill="url(#paint19_linear_423_920)"/>
        <path opacity="0.05" d="M553.97 164.377C556.931 169.567 562.473 172.872 568.443 173.014L825 178.7V176.3L568.5 170.624C563.282 170.51 558.636 167.738 556.046 163.196H556.056C554.742 160.891 554.094 158.262 554.151 155.605L557.969 0H555.56L551.752 155.548C551.676 158.653 552.437 161.7 553.97 164.377Z" fill="url(#paint20_linear_423_920)"/>
        <path opacity="0.05" d="M581.307 141.882C584.316 147.177 589.981 150.405 596.084 150.272L825 145.777V143.387L596.046 147.882C590.828 147.977 585.982 145.225 583.402 140.701V140.682C582.24 138.634 581.612 136.301 581.573 133.93L579.241 0H576.822L579.155 133.996C579.203 136.768 579.955 139.501 581.307 141.882Z" fill="url(#paint21_linear_423_920)"/>
    </g>
    <defs>
        <linearGradient id="paint0_linear_423_920" x1="412.507" y1="0" x2="412.507" y2="1056.01" gradientUnits="userSpaceOnUse">
            <stop stop-color="#00FFB3"/>
            <stop offset="1" stop-color="#00A3FF"/>
        </linearGradient>
        <linearGradient id="paint1_linear_423_920" x1="426.337" y1="0" x2="426.337" y2="1006.13" gradientUnits="userSpaceOnUse">
            <stop stop-color="#00FFB3"/>
            <stop offset="1" stop-color="#00A3FF"/>
        </linearGradient>
        <linearGradient id="paint2_linear_423_920" x1="440.165" y1="0" x2="440.165" y2="956.546" gradientUnits="userSpaceOnUse">
            <stop stop-color="#00FFB3"/>
            <stop offset="1" stop-color="#00A3FF"/>
        </linearGradient>
        <linearGradient id="paint3_linear_423_920" x1="454.012" y1="0" x2="454.012" y2="907.385" gradientUnits="userSpaceOnUse">
            <stop stop-color="#00FFB3"/>
            <stop offset="1" stop-color="#00A3FF"/>
        </linearGradient>
        <linearGradient id="paint4_linear_423_920" x1="467.841" y1="0" x2="467.841" y2="858.71" gradientUnits="userSpaceOnUse">
            <stop stop-color="#00FFB3"/>
            <stop offset="1" stop-color="#00A3FF"/>
        </linearGradient>
        <linearGradient id="paint5_linear_423_920" x1="481.668" y1="0" x2="481.668" y2="810.531" gradientUnits="userSpaceOnUse">
            <stop stop-color="#00FFB3"/>
            <stop offset="1" stop-color="#00A3FF"/>
        </linearGradient>
        <linearGradient id="paint6_linear_423_920" x1="495.463" y1="0" x2="495.463" y2="762.913" gradientUnits="userSpaceOnUse">
            <stop stop-color="#00FFB3"/>
            <stop offset="1" stop-color="#00A3FF"/>
        </linearGradient>
        <linearGradient id="paint7_linear_423_920" x1="509.295" y1="0" x2="509.295" y2="715.838" gradientUnits="userSpaceOnUse">
            <stop stop-color="#00FFB3"/>
            <stop offset="1" stop-color="#00A3FF"/>
        </linearGradient>
        <linearGradient id="paint8_linear_423_920" x1="523.099" y1="0" x2="523.099" y2="669.382" gradientUnits="userSpaceOnUse">
            <stop stop-color="#00FFB3"/>
            <stop offset="1" stop-color="#00A3FF"/>
        </linearGradient>
        <linearGradient id="paint9_linear_423_920" x1="536.909" y1="0" x2="536.909" y2="623.564" gradientUnits="userSpaceOnUse">
            <stop stop-color="#00FFB3"/>
            <stop offset="1" stop-color="#00A3FF"/>
        </linearGradient>
        <linearGradient id="paint10_linear_423_920" x1="550.714" y1="0" x2="550.714" y2="578.442" gradientUnits="userSpaceOnUse">
            <stop stop-color="#00FFB3"/>
            <stop offset="1" stop-color="#00A3FF"/>
        </linearGradient>
        <linearGradient id="paint11_linear_423_920" x1="564.52" y1="0" x2="564.52" y2="534.043" gradientUnits="userSpaceOnUse">
            <stop stop-color="#00FFB3"/>
            <stop offset="1" stop-color="#00A3FF"/>
        </linearGradient>
        <linearGradient id="paint12_linear_423_920" x1="578.308" y1="0" x2="578.308" y2="490.453" gradientUnits="userSpaceOnUse">
            <stop stop-color="#00FFB3"/>
            <stop offset="1" stop-color="#00A3FF"/>
        </linearGradient>
        <linearGradient id="paint13_linear_423_920" x1="592.096" y1="0" x2="592.096" y2="447.702" gradientUnits="userSpaceOnUse">
            <stop stop-color="#00FFB3"/>
            <stop offset="1" stop-color="#00A3FF"/>
        </linearGradient>
        <linearGradient id="paint14_linear_423_920" x1="605.88" y1="0" x2="605.88" y2="405.856" gradientUnits="userSpaceOnUse">
            <stop stop-color="#00FFB3"/>
            <stop offset="1" stop-color="#00A3FF"/>
        </linearGradient>
        <linearGradient id="paint15_linear_423_920" x1="619.645" y1="0" x2="619.645" y2="365.019" gradientUnits="userSpaceOnUse">
            <stop stop-color="#00FFB3"/>
            <stop offset="1" stop-color="#00A3FF"/>
        </linearGradient>
        <linearGradient id="paint16_linear_423_920" x1="633.415" y1="0" x2="633.415" y2="325.229" gradientUnits="userSpaceOnUse">
            <stop stop-color="#00FFB3"/>
            <stop offset="1" stop-color="#00A3FF"/>
        </linearGradient>
        <linearGradient id="paint17_linear_423_920" x1="647.166" y1="0" x2="647.166" y2="286.621" gradientUnits="userSpaceOnUse">
            <stop stop-color="#00FFB3"/>
            <stop offset="1" stop-color="#00A3FF"/>
        </linearGradient>
        <linearGradient id="paint18_linear_423_920" x1="660.916" y1="0" x2="660.916" y2="249.231" gradientUnits="userSpaceOnUse">
            <stop stop-color="#00FFB3"/>
            <stop offset="1" stop-color="#00A3FF"/>
        </linearGradient>
        <linearGradient id="paint19_linear_423_920" x1="674.661" y1="0" x2="674.661" y2="213.232" gradientUnits="userSpaceOnUse">
            <stop stop-color="#00FFB3"/>
            <stop offset="1" stop-color="#00A3FF"/>
        </linearGradient>
        <linearGradient id="paint20_linear_423_920" x1="688.373" y1="0" x2="688.373" y2="178.7" gradientUnits="userSpaceOnUse">
            <stop stop-color="#00FFB3"/>
            <stop offset="1" stop-color="#00A3FF"/>
        </linearGradient>
        <linearGradient id="paint21_linear_423_920" x1="700.911" y1="0" x2="700.911" y2="150.276" gradientUnits="userSpaceOnUse">
            <stop stop-color="#00FFB3"/>
            <stop offset="1" stop-color="#00A3FF"/>
        </linearGradient>
        <clipPath id="clip0_423_920">
            <rect width="825" height="1056" fill="white"/>
        </clipPath>
    </defs>
</svg>
