<svg width="28" height="28" viewBox="0 0 28 28" fill="none" xmlns="http://www.w3.org/2000/svg">
    <g clip-path="url(#clip0_326_697)">
        <path d="M14.4927 27.7708C16.6013 27.4712 18.4498 25.2704 19.613 22.0203C17.9315 21.6437 16.2156 21.4415 14.4927 21.4175V27.7708Z" fill="#94FFDF"/>
        <path d="M17.8616 27.254C17.9863 27.2179 18.1104 27.1816 18.2336 27.1417C18.3376 27.1082 18.4401 27.0721 18.5426 27.0363C18.6639 26.9944 18.7847 26.9513 18.905 26.9056C19.0075 26.8666 19.109 26.8252 19.2108 26.7838C19.3282 26.7345 19.4454 26.6854 19.5614 26.6361C19.6627 26.5916 19.7633 26.5449 19.8639 26.498C19.9777 26.4443 20.091 26.3897 20.2034 26.3329C20.3021 26.2826 20.4005 26.2314 20.4991 26.1787C20.6096 26.1195 20.7193 26.0591 20.8283 25.997C20.927 25.9412 21.022 25.8851 21.118 25.8273C21.2249 25.7616 21.3312 25.696 21.4369 25.6303C21.5314 25.5701 21.6258 25.509 21.7189 25.4459C21.8228 25.3759 21.9253 25.303 22.0274 25.2301C22.119 25.1644 22.2102 25.099 22.2998 25.033C22.3984 24.957 22.4995 24.8783 22.5984 24.7994C22.6862 24.7294 22.7738 24.6598 22.8602 24.5879C22.9586 24.5061 23.0529 24.4214 23.1485 24.3367C23.2322 24.2623 23.3164 24.1887 23.3982 24.1124C23.4923 24.0246 23.584 23.9336 23.6757 23.8434C23.7551 23.7649 23.8354 23.6877 23.9132 23.6073C23.9276 23.5924 23.9413 23.5763 23.9562 23.5609C22.8814 23.0057 21.7492 22.57 20.5795 22.2615C19.9712 24.2014 18.8886 25.9594 17.4299 27.3758C17.4699 27.3654 17.5098 27.357 17.5498 27.3467C17.6552 27.3171 17.7586 27.2846 17.8616 27.254Z" fill="#94FFDF"/>
        <path d="M27.7872 14.5039H21.8783C21.8559 16.811 21.5212 19.1045 20.8833 21.3219C22.1841 21.6693 23.4395 22.1689 24.6234 22.8101C26.5672 20.4674 27.6798 17.5464 27.7872 14.5039Z" fill="#94FFDF"/>
        <path d="M14.4927 13.5183H20.8927C20.8676 11.2927 20.5411 9.08085 19.9224 6.94287C18.1404 7.34929 16.3202 7.56634 14.4927 7.5904V13.5183Z" fill="#94FFDF"/>
        <path d="M14.4927 0.251709V6.60501C16.2156 6.58071 17.9315 6.37882 19.613 6.00224C18.4498 2.75207 16.6013 0.551291 14.4927 0.251709Z" fill="#94FFDF"/>
        <path d="M14.4927 20.4318C16.3202 20.4561 18.1404 20.6731 19.9224 21.0795C20.5411 18.9416 20.8676 16.7295 20.8927 14.5039H14.4927V20.4318Z" fill="#94FFDF"/>
        <path d="M24.6234 5.21216C23.4395 5.85343 22.1841 6.35298 20.8833 6.70044C21.5212 8.91783 21.8559 11.2113 21.8783 13.5184H27.7872C27.6796 10.4761 26.5669 7.55515 24.6234 5.21216Z" fill="#94FFDF"/>
        <path d="M23.9577 4.46459C23.9432 4.44991 23.9295 4.43403 23.9153 4.41887C23.8373 4.3385 23.7565 4.26102 23.6771 4.18282C23.5856 4.09258 23.4944 4.00138 23.4001 3.91379C23.3185 3.83776 23.2341 3.76581 23.1503 3.69001C23.0548 3.60531 22.9593 3.51989 22.8611 3.43807C22.7759 3.36612 22.6886 3.29731 22.602 3.22825C22.5033 3.14836 22.4022 3.06895 22.3007 2.99267C22.2117 2.92553 22.1214 2.86057 22.0307 2.7956C21.9277 2.72148 21.8242 2.64761 21.7193 2.57711C21.6272 2.51502 21.5336 2.45439 21.44 2.39495C21.3334 2.32637 21.227 2.25924 21.1185 2.19427C21.0234 2.13724 20.9274 2.08093 20.8312 2.02631C20.721 1.96326 20.6105 1.90214 20.4991 1.84247C20.4004 1.79314 20.302 1.73948 20.2034 1.69015C20.09 1.63288 19.9757 1.57778 19.8586 1.52364C19.7599 1.47671 19.6598 1.43099 19.5583 1.38648C19.4415 1.33474 19.3236 1.28806 19.206 1.23873C19.1044 1.19734 19.0034 1.15644 18.9009 1.11746C18.7813 1.07174 18.66 1.02891 18.5387 0.987036C18.4362 0.950942 18.3337 0.915088 18.2297 0.8814C18.1065 0.841456 17.9833 0.805121 17.8568 0.768546C17.7543 0.738467 17.6513 0.707908 17.5476 0.680476C17.5079 0.669648 17.4674 0.661226 17.4275 0.650879C18.8862 2.06722 19.9685 3.825 20.5771 5.76519C21.748 5.4567 22.8818 5.02068 23.9577 4.46459Z" fill="#94FFDF"/>
        <path d="M0.212646 13.5184H6.12151C6.14388 11.2113 6.4786 8.91783 7.11626 6.70044C5.81567 6.35322 4.56031 5.85367 3.37642 5.21216C1.43263 7.55491 0.319967 10.4761 0.212646 13.5184Z" fill="#94FFDF"/>
        <path d="M13.507 27.7708V21.4175C11.7841 21.4418 10.0682 21.6437 8.38672 22.0203C9.54967 25.2704 11.3984 27.4712 13.507 27.7708Z" fill="#94FFDF"/>
        <path d="M13.5072 14.5039H7.10718C7.1322 16.7295 7.45849 18.9416 8.07739 21.0795C9.85948 20.6729 11.6793 20.4558 13.5072 20.4318V14.5039Z" fill="#94FFDF"/>
        <path d="M13.507 0.251709C11.3984 0.551291 9.54967 2.75207 8.38672 6.00224C10.0682 6.37906 11.7841 6.58095 13.507 6.60501V0.251709Z" fill="#94FFDF"/>
        <path d="M13.5072 7.5904C11.6796 7.56634 9.85948 7.34929 8.07739 6.94287C7.45849 9.08085 7.1322 11.2927 7.10718 13.5183H13.5072V7.5904Z" fill="#94FFDF"/>
        <path d="M10.5686 0.650391C10.5286 0.660738 10.4887 0.66916 10.4487 0.679507C10.3443 0.70742 10.2413 0.73846 10.1374 0.768539C10.0137 0.804633 9.89096 0.840968 9.7668 0.880431C9.66212 0.91436 9.55913 0.950454 9.45615 0.986307C9.33559 1.0289 9.2148 1.07125 9.09545 1.11649C8.99246 1.15595 8.89091 1.19686 8.78889 1.23873C8.6717 1.28805 8.55427 1.33738 8.43853 1.38647C8.33699 1.43099 8.23664 1.47767 8.13606 1.52459C8.02224 1.57825 7.90891 1.63287 7.79654 1.68966C7.69788 1.73995 7.59922 1.79145 7.5008 1.84391C7.39036 1.9031 7.28087 1.96374 7.17211 2.02582C7.07345 2.08092 6.97648 2.13747 6.88143 2.19522C6.77435 2.25971 6.66847 2.32636 6.56308 2.3923C6.46827 2.45293 6.37418 2.51405 6.28106 2.5771C6.17711 2.64712 6.0746 2.72003 5.97258 2.79294C5.8809 2.85863 5.7897 2.92408 5.69994 2.99026C5.59912 3.06605 5.50287 3.14498 5.40132 3.22367C5.31374 3.29369 5.22543 3.36323 5.13976 3.43566C5.0411 3.51699 4.9475 3.60121 4.85245 3.68543C4.76823 3.76051 4.68329 3.83342 4.601 3.91114C4.50739 3.99849 4.41619 4.0892 4.32475 4.1792C4.24535 4.25764 4.1645 4.33513 4.08653 4.41574C4.07234 4.43066 4.05862 4.44702 4.0437 4.46218C5.11835 5.01755 6.25074 5.45332 7.42043 5.76181C8.02874 3.82283 9.1106 2.066 10.5686 0.650391Z" fill="#94FFDF"/>
        <path d="M4.32262 23.8397C4.4143 23.9299 4.5055 24.0211 4.59959 24.109C4.6814 24.1848 4.76562 24.2567 4.8496 24.3325C4.94513 24.4175 5.04066 24.5026 5.13883 24.5845C5.22402 24.6559 5.31088 24.725 5.39799 24.7943C5.49665 24.8742 5.59506 24.9536 5.6995 25.0303C5.78829 25.097 5.87852 25.1615 5.96876 25.2276C6.07175 25.3015 6.1757 25.3754 6.28061 25.4464C6.37277 25.5085 6.46638 25.5691 6.55998 25.6288C6.66658 25.6971 6.77294 25.7642 6.88146 25.8292C6.97651 25.8865 7.07252 25.9426 7.16877 25.9974C7.27898 26.0605 7.38943 26.1216 7.50084 26.181C7.59925 26.2303 7.69791 26.284 7.79657 26.3333C7.90991 26.3906 8.0242 26.4457 8.14139 26.5001C8.24005 26.5465 8.34015 26.5923 8.44169 26.637C8.5584 26.6887 8.67606 26.7354 8.79397 26.7848C8.89552 26.8261 8.99658 26.867 9.09909 26.906C9.21868 26.952 9.33996 26.9948 9.46123 27.0367C9.56374 27.0725 9.66625 27.1086 9.7702 27.1421C9.8934 27.182 10.0166 27.2186 10.1432 27.2549C10.2457 27.285 10.3487 27.3156 10.4521 27.3433C10.4921 27.3541 10.5325 27.3625 10.5725 27.3728C9.11377 25.9563 8.03142 24.1985 7.42287 22.2583C6.25318 22.567 5.12079 23.0028 4.04614 23.5584C4.06058 23.5731 4.0743 23.589 4.08873 23.6041C4.16261 23.684 4.24225 23.7615 4.32262 23.8397Z" fill="#94FFDF"/>
        <path d="M3.37642 22.8101C4.56031 22.1689 5.81567 21.6693 7.11626 21.3219C6.4786 19.1045 6.14388 16.811 6.12151 14.5039H0.212646C0.320207 17.5462 1.43263 20.4671 3.37642 22.8101Z" fill="#94FFDF"/>
    </g>
    <defs>
        <clipPath id="clip0_326_697">
            <rect width="27.5745" height="27.5745" fill="white" transform="translate(0.212646 0.212646)"/>
        </clipPath>
    </defs>
</svg>
