<svg width="59" height="59" viewBox="0 0 59 59" fill="none" xmlns="http://www.w3.org/2000/svg">
    <g clip-path="url(#clip0_326_636)">
        <path d="M2.16987 37.5887H8.60012C9.48795 37.5887 10.208 38.3082 10.208 39.196V55.2728C10.208 56.1607 9.48795 56.8807 8.60012 56.8807H2.16987C1.28204 56.8807 0.562012 56.1607 0.562012 55.2728V39.196C0.562012 38.3082 1.28204 37.5887 2.16987 37.5887Z" fill="#94FFDF"/>
        <path d="M18.2462 24.7271H24.677C25.5649 24.7271 26.2849 25.4471 26.2849 26.3349V55.2728C26.2849 56.1606 25.5649 56.8807 24.677 56.8807H18.2462C17.3584 56.8807 16.6389 56.1606 16.6389 55.2728V26.3349C16.6389 25.4471 17.3584 24.7271 18.2462 24.7271Z" fill="#94FFDF"/>
        <path d="M34.3229 31.158H40.7538C41.6416 31.158 42.3611 31.878 42.3611 32.7658V55.2729C42.3611 56.1607 41.6416 56.8807 40.7538 56.8807H34.3229C33.4351 56.8807 32.7151 56.1607 32.7151 55.2729V32.7658C32.7151 31.878 33.4351 31.158 34.3229 31.158Z" fill="#94FFDF"/>
        <path d="M50.3996 21.512H56.8299C57.7177 21.512 58.4377 22.232 58.4377 23.1198V55.2729C58.4377 56.1607 57.7177 56.8807 56.8299 56.8807H50.3996C49.5118 56.8807 48.7917 56.1607 48.7917 55.2729V23.1198C48.7917 22.232 49.5118 21.512 50.3996 21.512Z" fill="#94FFDF"/>
        <path d="M53.6148 2.22009C50.9525 2.22304 48.7948 4.38078 48.7919 7.04308C48.7983 7.56824 48.8914 8.08869 49.0674 8.58323L41.0193 13.3674C39.9631 12.247 38.4317 11.7042 36.9057 11.9085C35.3791 12.1127 34.045 13.0394 33.3203 14.3982L26.2218 10.8823C26.2565 10.6756 26.2771 10.4672 26.2848 10.2582C26.2883 8.30593 25.115 6.54441 23.3122 5.79494C21.5095 5.04606 19.433 5.45759 18.0524 6.83761C16.6712 8.21762 16.2585 10.2935 17.0068 12.0968L7.79884 18.9687C7.0688 18.5336 6.23514 18.3016 5.385 18.2969C2.72152 18.2969 0.562012 20.4558 0.562012 23.1199C0.562012 25.7834 2.72152 27.9429 5.385 27.9429C8.04847 27.9429 10.208 25.7834 10.208 23.1199C10.2039 22.5394 10.0944 21.9654 9.88476 21.4243L19.1845 14.4836C21.0038 15.498 23.2728 15.2007 24.7688 13.7512L32.841 17.7494C33.3792 20.1461 35.6346 21.7546 38.0761 21.4826C40.5177 21.2106 42.364 19.1459 42.361 16.689C42.361 16.5666 42.3339 16.4512 42.3251 16.3311L51.0785 11.1272C51.8374 11.607 52.7164 11.8631 53.6148 11.8661C56.2783 11.8661 58.4378 9.70655 58.4378 7.04308C58.4378 4.3796 56.2783 2.22009 53.6148 2.22009Z" fill="#94FFDF"/>
    </g>
    <defs>
        <clipPath id="clip0_326_636">
            <rect width="57.8758" height="57.8758" fill="white" transform="translate(0.562012 0.562134)"/>
        </clipPath>
    </defs>
</svg>
