<svg width="55" height="55" viewBox="0 0 55 55" fill="none" xmlns="http://www.w3.org/2000/svg">
    <g clip-path="url(#clip0_326_404)">
        <path d="M27.4944 27.4519C17.371 27.4519 8.8876 24.4779 6.57143 20.4684C6.16421 21.1741 5.92651 21.9075 5.92651 22.6685V29.23C5.92651 34.2991 15.5855 38.4118 27.4944 38.4118C39.4106 38.4118 49.0733 34.2991 49.0733 29.23V22.6685C49.0733 21.9075 48.8319 21.1741 48.421 20.4684C46.1048 24.4761 37.6288 27.4519 27.4944 27.4519Z" fill="#94FFDF"/>
        <path d="M27.4944 39.483C17.371 39.483 8.8876 36.5053 6.57143 32.5032C6.16421 33.2052 5.92651 33.9386 5.92651 34.6977V41.2648C5.92651 46.3357 15.5855 50.4466 27.4944 50.4466C39.4106 50.4466 49.0733 46.3376 49.0733 41.2648V34.6977C49.0733 33.9386 48.8319 33.2052 48.421 32.505C46.1048 36.5053 37.6288 39.483 27.4944 39.483Z" fill="#94FFDF"/>
        <path d="M48.4836 8.52917C48.0598 12.2439 38.8431 15.216 27.4944 15.216C16.1512 15.216 6.93443 12.2439 6.51247 8.53102C6.1421 9.20542 5.92651 9.9093 5.92651 10.6334V17.195C5.92651 22.2659 15.5855 26.3768 27.4944 26.3768C39.4106 26.3768 49.0733 22.2677 49.0733 17.195V10.6334C49.0733 9.9093 48.854 9.20542 48.4836 8.52917Z" fill="#94FFDF"/>
        <path d="M27.4945 14.4377C39.1085 14.4377 48.5188 11.3292 48.5188 7.48915C48.5188 3.65282 39.1085 0.54248 27.4945 0.54248C15.8878 0.544323 6.47388 3.65466 6.47388 7.491C6.47388 11.3292 15.8878 14.4377 27.4945 14.4377Z" fill="#94FFDF"/>
    </g>
    <defs>
        <clipPath id="clip0_326_404">
            <rect width="53.915" height="53.915" fill="white" transform="translate(0.54248 0.54248)"/>
        </clipPath>
    </defs>
</svg>
