<svg width="46" height="46" viewBox="0 0 46 46" fill="none" xmlns="http://www.w3.org/2000/svg">
    <path d="M31.9577 29.8906H28.1445L28.0618 27.1344H31.2687L33.1057 24.6868C31.7772 22.3413 33.504 19.5547 36.0921 19.5547C37.9953 19.5547 39.5374 21.0968 39.5374 23C39.5374 25.1719 37.5254 26.8684 35.3052 26.3461L33.0602 29.3394C32.7998 29.6867 32.3918 29.8906 31.9577 29.8906Z" fill="#94FFDF"/>
    <path d="M7.15161 29.2015C5.24842 29.2015 3.7063 27.6594 3.7063 25.7562C3.7063 23.853 5.24842 22.3109 7.15161 22.3109C8.56419 22.3109 9.77418 23.1626 10.3061 24.3781H18.0195L17.9368 27.1344H10.3061C9.77418 28.3499 8.56419 29.2015 7.15161 29.2015Z" fill="#94FFDF"/>
    <path d="M42.2937 34.0249C42.2937 35.9281 40.7516 37.4702 38.8484 37.4702C37.4358 37.4702 36.2258 36.6185 35.6939 35.403H28.3085L28.2258 32.6468H35.6925C36.2245 31.4313 37.4345 30.5796 38.847 30.5796C40.7516 30.5796 42.2937 32.1217 42.2937 34.0249Z" fill="#94FFDF"/>
    <path d="M14.7312 32.6469L12.8941 35.0944C14.2226 37.44 12.4958 40.2266 9.90771 40.2266C8.00452 40.2266 6.4624 38.6844 6.4624 36.7812C6.4624 34.6093 8.47446 32.9129 10.6946 33.4352L12.9396 30.4419C13.2001 30.0946 13.608 29.8906 14.0421 29.8906H17.8554L17.7727 32.6469H14.7312Z" fill="#94FFDF"/>
    <path d="M38.898 15.999C35.6236 14.1344 30.909 12.861 25.5592 12.5551L26.3419 38.8497C26.3984 40.735 24.8866 42.2936 23 42.2936C21.1133 42.2936 19.6015 40.735 19.6567 38.8497L20.4394 12.562C15.0868 12.8845 10.3736 14.173 7.10194 16.05C6.71744 16.2705 6.29574 15.835 6.52864 15.4588C9.39514 10.8131 14.2296 7.31269 20.6158 6.60296L20.6627 5.0443C20.6847 4.30011 21.2952 3.70752 22.0408 3.70752H23.9592C24.7047 3.70752 25.3139 4.30011 25.3373 5.0443L25.3841 6.59883C31.758 7.29478 36.5938 10.7773 39.4713 15.4064C39.7042 15.7813 39.2839 16.2181 38.898 15.999Z" fill="#94FFDF"/>
</svg>
