<svg width="40" height="40" viewBox="0 0 40 40" fill="none" xmlns="http://www.w3.org/2000/svg">
    <path d="M36.6274 19.7909C36.6279 18.4612 36.1243 17.1808 35.2181 16.2077C34.9122 15.8988 34.6801 15.5246 34.5391 15.1133C34.3982 14.702 34.352 14.2642 34.4042 13.8325C34.407 13.8091 34.4084 13.7854 34.4083 13.7618C34.4052 12.4649 33.9255 11.2144 33.0605 10.2481C32.1956 9.28182 31.0057 8.66711 29.717 8.5209C29.5564 7.24197 28.9491 6.0609 28.0024 5.18611C27.4744 4.69995 26.8513 4.32861 26.1725 4.09557C25.4937 3.86254 24.7739 3.77287 24.0587 3.83223C23.3434 3.8916 22.6483 4.09871 22.0171 4.44048C21.386 4.78224 20.8327 5.25123 20.3921 5.81778V14.3791H22.9911C23.4694 14.3786 23.9279 14.1884 24.2661 13.8502C24.6043 13.512 24.7945 13.0535 24.795 12.5752V11.0238C24.3938 10.882 24.0557 10.6029 23.8404 10.2358C23.6251 9.86879 23.5464 9.43745 23.6184 9.01804C23.6904 8.59863 23.9083 8.21816 24.2336 7.94388C24.559 7.6696 24.9708 7.51916 25.3963 7.51916C25.8219 7.51916 26.2337 7.6696 26.5591 7.94388C26.8844 8.21816 27.1023 8.59863 27.1743 9.01804C27.2463 9.43745 27.1676 9.86879 26.9523 10.2358C26.737 10.6029 26.3989 10.882 25.9977 11.0238V12.5752C25.9967 13.3723 25.6797 14.1365 25.116 14.7001C24.5524 15.2637 23.7882 15.5808 22.9911 15.5817H20.3921V17.6238H27.1967C27.675 17.6233 28.1335 17.433 28.4717 17.0948C28.8099 16.7567 29.0001 16.2981 29.0006 15.8199V14.2685C28.5994 14.1266 28.2613 13.8475 28.046 13.4805C27.8307 13.1134 27.7521 12.6821 27.824 12.2627C27.896 11.8433 28.1139 11.4628 28.4392 11.1885C28.7646 10.9143 29.1764 10.7638 29.602 10.7638C30.0275 10.7638 30.4393 10.9143 30.7647 11.1885C31.09 11.4628 31.3079 11.8433 31.3799 12.2627C31.4519 12.6821 31.3732 13.1134 31.1579 13.4805C30.9426 13.8475 30.6045 14.1266 30.2033 14.2685V15.8199C30.2023 16.617 29.8853 17.3811 29.3216 17.9448C28.758 18.5084 27.9938 18.8255 27.1967 18.8264H20.3921V20.7554H27.1967C27.9938 20.7563 28.758 21.0734 29.3216 21.637C29.8853 22.2007 30.2023 22.9648 30.2033 23.7619V25.3133C30.6045 25.4551 30.9426 25.7343 31.1579 26.1013C31.3732 26.4683 31.4519 26.8997 31.3799 27.3191C31.3079 27.7385 31.09 28.119 30.7647 28.3933C30.4393 28.6675 30.0275 28.818 29.602 28.818C29.1764 28.818 28.7646 28.6675 28.4392 28.3933C28.1139 28.119 27.896 27.7385 27.824 27.3191C27.7521 26.8997 27.8307 26.4683 28.046 26.1013C28.2613 25.7343 28.5994 25.4551 29.0006 25.3133V23.7619C29.0001 23.2837 28.8099 22.8251 28.4717 22.4869C28.1335 22.1488 27.675 21.9585 27.1967 21.958H20.3921V24H22.9911C23.7882 24.001 24.5524 24.318 25.116 24.8817C25.6797 25.4453 25.9967 26.2095 25.9977 27.0066V28.558C26.3989 28.6998 26.737 28.9789 26.9523 29.346C27.1676 29.713 27.2463 30.1443 27.1743 30.5638C27.1023 30.9832 26.8844 31.3636 26.5591 31.6379C26.2337 31.9122 25.8219 32.0626 25.3963 32.0626C24.9708 32.0626 24.559 31.9122 24.2336 31.6379C23.9083 31.3636 23.6904 30.9832 23.6184 30.5638C23.5464 30.1443 23.6251 29.713 23.8404 29.346C24.0557 28.9789 24.3938 28.6998 24.795 28.558V27.0066C24.7945 26.5283 24.6043 26.0698 24.2661 25.7316C23.9279 25.3934 23.4694 25.2032 22.9911 25.2027H20.3921V33.7637C20.8401 34.3417 21.4057 34.8182 22.0515 35.1615C22.6972 35.5049 23.4085 35.7074 24.1382 35.7556C24.2486 35.7623 24.3584 35.7657 24.4676 35.7656C25.805 35.7694 27.0929 35.2601 28.0661 34.3428C28.9815 33.4828 29.5617 32.3257 29.7033 31.0777C30.9963 30.9311 32.1903 30.3141 33.058 29.3443C33.9256 28.3744 34.4063 27.1194 34.4086 25.818C34.4084 25.7951 34.407 25.7721 34.4044 25.7493C34.3525 25.3158 34.3995 24.8762 34.5418 24.4635C34.6841 24.0507 34.9179 23.6755 35.2259 23.3661C36.128 22.3943 36.6288 21.1169 36.6274 19.7909Z" fill="#94FFDF"/>
    <path d="M15.4456 3.8265C14.7422 3.77953 14.0366 3.87602 13.3717 4.11012C12.7068 4.34422 12.0964 4.71103 11.5776 5.18828C10.9701 5.74896 10.4991 6.44127 10.2006 7.21216C10.4645 8.09823 10.9605 8.89761 11.6372 9.52749C12.1423 9.93375 12.729 10.2263 13.3574 10.3851C13.9858 10.544 14.6411 10.5654 15.2785 10.4479C15.3569 10.4387 15.4364 10.4449 15.5124 10.4664C15.5884 10.4879 15.6595 10.5241 15.7215 10.573C15.7835 10.6219 15.8352 10.6826 15.8738 10.7515C15.9123 10.8204 15.937 10.8962 15.9462 10.9747C15.9555 11.0531 15.9492 11.1326 15.9277 11.2086C15.9063 11.2846 15.87 11.3556 15.8211 11.4176C15.7722 11.4796 15.7116 11.5314 15.6426 11.5699C15.5737 11.6085 15.4979 11.6331 15.4195 11.6424C15.1034 11.6804 14.7853 11.6998 14.467 11.7004C13.1423 11.7423 11.8495 11.2889 10.8411 10.4289C10.264 9.9116 9.79552 9.28475 9.46291 8.58476C8.25822 8.81596 7.17144 9.45895 6.3888 10.4035C5.60617 11.3481 5.17642 12.5355 5.17319 13.7621C5.23427 14.2065 5.19232 14.659 5.05059 15.0846C4.90886 15.5101 4.67115 15.8974 4.35583 16.2164C3.45353 17.1903 2.95289 18.4694 2.95435 19.7971C2.95581 21.1247 3.45927 22.4027 4.36371 23.3746C4.67674 23.6928 4.91253 24.0785 5.05288 24.5022C5.19322 24.9259 5.23439 25.3761 5.17319 25.8182C5.17097 27.0329 5.58825 28.2111 6.35449 29.1537C7.12073 30.0962 8.18892 30.7453 9.37849 30.9911C9.64593 30.5341 9.98497 30.123 10.3827 29.7734C11.59 28.7232 13.2588 28.3394 15.3423 28.6295C15.497 28.6553 15.6355 28.7404 15.7283 28.8668C15.8211 28.9932 15.8608 29.1508 15.8391 29.3061C15.8173 29.4614 15.7358 29.602 15.6118 29.698C15.4879 29.7941 15.3313 29.8379 15.1755 29.8201C13.4544 29.5802 12.1114 29.8671 11.1789 30.6745C10.7174 31.0864 10.3576 31.5997 10.128 32.1742C10.4046 32.9996 10.8808 33.7439 11.5143 34.3411C12.4877 35.2597 13.7766 35.7696 15.115 35.7656C15.9017 35.764 16.6775 35.5829 17.3836 35.2362C18.0897 34.8894 18.7074 34.3862 19.1897 33.7647V18.1926C18.6928 18.293 18.1873 18.3447 17.6804 18.3469C17.1359 18.3494 16.5933 18.2816 16.0662 18.1452C15.7422 18.1366 13.478 18.1151 12.6979 19.4572C12.6593 19.5276 12.607 19.5895 12.5442 19.6394C12.4813 19.6892 12.409 19.726 12.3317 19.7475C12.2544 19.769 12.1736 19.7748 12.094 19.7646C12.0144 19.7543 11.9377 19.7283 11.8683 19.6879C11.799 19.6476 11.7384 19.5938 11.6901 19.5297C11.6419 19.4655 11.607 19.3924 11.5874 19.3146C11.5679 19.2367 11.5641 19.1558 11.5764 19.0765C11.5886 18.9972 11.6166 18.9211 11.6586 18.8528C11.9446 18.4124 12.3167 18.0343 12.7525 17.7414C13.1883 17.4485 13.6789 17.2468 14.1947 17.1484C13.6407 16.6316 13.229 15.9808 12.9993 15.2587C12.9484 15.1075 12.9597 14.9423 13.0307 14.7994C13.1017 14.6565 13.2265 14.5477 13.3777 14.4968C13.5289 14.446 13.6942 14.4573 13.8371 14.5282C13.98 14.5992 14.0888 14.7241 14.1396 14.8753C15.0664 17.6322 18.0772 17.2196 19.1897 16.9629V5.81761C18.7418 5.23991 18.1765 4.76375 17.5311 4.42054C16.8858 4.07732 16.1749 3.87486 15.4456 3.8265Z" fill="#94FFDF"/>
</svg>
