<svg width="43" height="43" viewBox="0 0 43 43" fill="none" xmlns="http://www.w3.org/2000/svg">
    <path d="M7.79437 10.944C8.12786 8.57031 9.21335 7.67446 11.4824 7.67446H31.9301C32.2666 7.68962 32.5843 7.83407 32.817 8.07771C33.0497 8.32135 33.1794 8.64538 33.179 8.98228V10.944H7.79437ZM35.7946 11.0028V8.98228C35.7948 7.95183 35.3895 6.96271 34.6664 6.22859C33.9433 5.49447 32.9604 5.07429 31.9301 5.05884H11.4824C5.79342 5.05884 5.14605 9.69503 5.06104 12.1014C5.0581 12.1253 5.0581 12.1495 5.06104 12.1733V12.2518V33.1768C5.06104 34.2174 5.47441 35.2153 6.21019 35.9511C6.94598 36.6869 7.94392 37.1002 8.98448 37.1002H35.1407C36.1813 37.1002 37.1792 36.6869 37.915 35.9511C38.6508 35.2153 39.0642 34.2174 39.0642 33.1768V14.8674C39.0632 13.9409 38.7344 13.0446 38.136 12.3373C37.5376 11.63 36.7082 11.1573 35.7946 11.0028ZM31.5442 27.2916C30.9623 27.2916 30.3933 27.1191 29.9094 26.7957C29.4255 26.4724 29.0484 26.0128 28.8257 25.4751C28.6029 24.9375 28.5447 24.3458 28.6582 23.775C28.7718 23.2042 29.052 22.6799 29.4635 22.2684C29.8751 21.8568 30.3994 21.5766 30.9702 21.463C31.541 21.3495 32.1326 21.4078 32.6703 21.6305C33.208 21.8532 33.6676 22.2304 33.9909 22.7143C34.3142 23.1982 34.4868 23.7671 34.4868 24.3491C34.4877 24.7357 34.4122 25.1188 34.2646 25.4762C34.117 25.8336 33.9003 26.1583 33.6269 26.4317C33.3535 26.7051 33.0287 26.9218 32.6713 27.0694C32.3139 27.217 31.9309 27.2925 31.5442 27.2916Z" fill="#94FFDF"/>
</svg>
