<svg width="36" height="36" viewBox="0 0 36 36" fill="none" xmlns="http://www.w3.org/2000/svg">
    <rect width="36" height="36" rx="18" fill="#5A6865"/>
    <path d="M25.2066 25.54L19.1754 16.7779L18.4935 15.7871L14.1793 9.51939L13.8218 9H8.52051L9.8135 10.8789L15.5498 19.2136L16.2318 20.2033L20.8408 26.9L21.1983 27.4189H26.4996L25.2066 25.54ZM21.8283 26.2197L17.0399 19.2624L16.3579 18.2721L10.8015 10.1991H13.1917L17.6852 16.7279L18.3672 17.7182L24.2185 26.2197H21.8283Z" fill="#0A1013"/>
    <path d="M16.3583 18.272L17.0402 19.2625L16.232 20.2032L10.0295 27.4188H8.5L15.55 19.2133L16.3583 18.272Z" fill="#0A1013"/>
    <path d="M25.8615 9L19.1758 16.7781L18.3675 17.7184L17.6855 16.7279L18.4938 15.7871L23.0229 10.5157L24.3322 9H25.8615Z" fill="#0A1013"/>
</svg>
