<svg width="40" height="40" viewBox="0 0 40 40" fill="none" xmlns="http://www.w3.org/2000/svg">
    <rect width="40" height="40" rx="20" fill="#5A6865"/>
    <path d="M31.6467 14.2739C31.3722 13.2543 30.5683 12.4503 29.5487 12.1758C27.6859 11.666 20.235 11.666 20.235 11.666C20.235 11.666 12.784 11.666 10.9212 12.1562C9.92124 12.4307 9.09771 13.2543 8.8232 14.2739C8.33301 16.1366 8.33301 19.9993 8.33301 19.9993C8.33301 19.9993 8.33301 23.8817 8.8232 25.7248C9.09771 26.7444 9.90164 27.5484 10.9212 27.8229C12.8036 28.3327 20.235 28.3327 20.235 28.3327C20.235 28.3327 27.6859 28.3327 29.5487 27.8425C30.5683 27.568 31.3722 26.7641 31.6467 25.7444C32.1369 23.8817 32.1369 20.019 32.1369 20.019C32.1369 20.019 32.1565 16.1366 31.6467 14.2739Z" fill="#131D20"/>
    <path d="M17.8628 23.5669L24.0589 19.9983L17.8628 16.4297V23.5669Z" fill="#5A6865"/>
</svg>
