<svg width="36" height="36" viewBox="0 0 36 36" fill="none" xmlns="http://www.w3.org/2000/svg">
    <rect width="36" height="36" rx="18" fill="#5A6865"/>
    <path d="M19.4858 18.0451C19.4858 21.3836 16.8026 24.09 13.493 24.09C10.1833 24.09 7.5 21.383 7.5 18.0451C7.5 14.7072 10.1831 12 13.493 12C16.8028 12 19.4858 14.7066 19.4858 18.0451Z" fill="#131D20"/>
    <path d="M26.0599 18.045C26.0599 21.1875 24.7183 23.736 23.0634 23.736C21.4085 23.736 20.0669 21.1875 20.0669 18.045C20.0669 14.9025 21.4083 12.354 23.0632 12.354C24.7181 12.354 26.0597 14.9017 26.0597 18.045" fill="#131D20"/>
    <path d="M28.7491 18.0453C28.7491 20.8602 28.2774 23.1435 27.6953 23.1435C27.1132 23.1435 26.6416 20.8608 26.6416 18.0453C26.6416 15.2297 27.1134 12.947 27.6953 12.947C28.2772 12.947 28.7491 15.2295 28.7491 18.0453Z" fill="#131D20"/>
</svg>
