<svg width="40" height="40" viewBox="0 0 40 40" fill="none" xmlns="http://www.w3.org/2000/svg">
    <rect width="40" height="40" rx="20" fill="#5A6865"/>
    <path fill-rule="evenodd" clip-rule="evenodd" d="M9.0532 19.7879C14.8836 17.2477 18.7715 15.5731 20.7168 14.7639C26.271 12.4538 27.4251 12.0525 28.1773 12.0392C28.3428 12.0363 28.7127 12.0773 28.9523 12.2717C29.1547 12.4359 29.2103 12.6577 29.237 12.8134C29.2636 12.969 29.2968 13.3236 29.2704 13.6007C28.9694 16.7632 27.6671 24.4376 27.0045 27.9797C26.7242 29.4784 26.1721 29.9809 25.6377 30.0301C24.4763 30.137 23.5943 29.2626 22.4694 28.5252C20.7091 27.3713 19.7147 26.653 18.0061 25.527C16.0314 24.2258 17.3115 23.5106 18.4368 22.3418C18.7313 22.0359 23.8487 17.3813 23.9477 16.9591C23.9601 16.9063 23.9716 16.7094 23.8547 16.6055C23.7377 16.5015 23.5651 16.5371 23.4406 16.5653C23.264 16.6054 20.452 18.4641 15.0044 22.1413C14.2063 22.6894 13.4833 22.9564 12.8355 22.9425C12.1214 22.927 10.7478 22.5387 9.7266 22.2067C8.4741 21.7996 7.47864 21.5844 7.56532 20.8929C7.61047 20.5328 8.10643 20.1644 9.0532 19.7879Z" fill="#131D20"/>
</svg>
